<svg width="361" height="82" viewBox="0 0 361 82" fill="none" xmlns="http://www.w3.org/2000/svg">
<path d="M32.5817 23.6093C32.5817 20.0047 35.8276 17.0835 39.8387 17.0835C43.8465 17.0835 47.0957 20.0047 47.0957 23.6093C47.0957 25.3006 46.4807 26.8449 45.4147 28.0066C43.375 30.2274 40.3239 32.4653 40.3239 35.349V36.3193M40.3239 36.3193C42.8512 36.2792 45.3314 37.0058 47.4374 38.4035L72.8335 55.521C77.2956 58.5311 74.9279 64.9168 69.3485 64.9168H12.6523C7.13098 64.9168 4.72564 58.6473 9.07164 55.5893L33.3163 38.5367C35.3741 37.1079 37.8154 36.3339 40.3205 36.3159L40.3239 36.3193Z" stroke="#0AC290" stroke-width="2.5" stroke-linecap="round"/>
<path d="M98 28V60H361" stroke="#0AC290" stroke-width="2"/>
<path d="M116.639 49H111.59V33.4453H116.789C121.365 33.4453 124.115 36.3672 124.115 41.2012C124.115 46.0566 121.365 49 116.639 49ZM113.953 46.9375H116.51C120.033 46.9375 121.773 44.875 121.773 41.2012C121.773 37.5488 120.033 35.5078 116.639 35.5078H113.953V46.9375ZM126.779 49V33.4453H132.322C135.932 33.4453 137.715 35.4648 137.715 38.3223C137.715 40.417 136.77 42.0068 134.879 42.7051L138.316 49H135.631L132.473 43.1348H132.322H129.143V49H126.779ZM129.143 41.0938H132.086C134.385 41.0938 135.33 40.084 135.33 38.3223C135.33 36.5605 134.385 35.4648 132.086 35.4648H129.143V41.0938ZM138.574 33.4453H141.26L145.299 40.4922H145.471L149.531 33.4453H152.217L146.566 42.8984V49H144.203V42.8984L138.574 33.4453ZM170.07 38.5156C169.684 36.5176 168.029 35.4004 166.053 35.4004C163.367 35.4004 161.369 37.4629 161.369 41.2227C161.369 45.0039 163.389 47.0449 166.053 47.0449C168.008 47.0449 169.662 45.9492 170.07 43.9727L172.455 43.9941C171.961 47.0664 169.447 49.2148 166.031 49.2148C161.971 49.2148 159.027 46.1855 159.027 41.2227C159.027 36.2383 161.992 33.2305 166.031 33.2305C169.318 33.2305 171.918 35.1641 172.455 38.5156H170.07ZM175.012 49V33.4453H177.375V46.959H184.4V49H175.012ZM186.828 49V33.4453H196.582V35.4863H189.191V40.1914H196.066V42.2109H189.191V46.959H196.668V49H186.828ZM200.814 49H198.301L203.887 33.4453H206.615L212.223 49H209.709L208.291 44.8965H202.232L200.814 49ZM202.92 42.9199H207.604L205.305 36.2812H205.197L202.92 42.9199ZM226.746 33.4453V49H224.576L216.691 37.6348H216.562V49H214.199V33.4453H216.391L224.275 44.832H224.426V33.4453H226.746ZM232.289 33.4453V49H229.926V33.4453H232.289ZM247.994 33.4453V49H245.824L237.939 37.6348H237.811V49H235.447V33.4453H237.639L245.523 44.832H245.674V33.4453H247.994ZM261.68 38.3652C261.1 36.5176 259.703 35.4004 257.641 35.4004C255.02 35.4004 253 37.4629 253 41.2227C253 44.9824 254.998 47.0449 257.748 47.0449C260.229 47.0449 261.873 45.4766 261.916 42.9844H258.092V41.0293H264.215V42.791C264.215 46.7227 261.508 49.2148 257.727 49.2148C253.516 49.2148 250.658 46.1426 250.658 41.2227C250.658 36.2598 253.602 33.2305 257.619 33.2305C260.992 33.2305 263.57 35.3359 264.107 38.3652H261.68ZM280.779 37.5488C280.629 36.1094 279.361 35.2715 277.578 35.2715C275.666 35.2715 274.463 36.2383 274.463 37.5703C274.463 39.0527 276.074 39.6113 277.299 39.9121L278.803 40.3203C280.801 40.793 283.271 41.8887 283.293 44.7031C283.271 47.3242 281.188 49.2578 277.514 49.2578C274.033 49.2578 271.842 47.5176 271.691 44.6816H274.055C274.205 46.3789 275.688 47.1953 277.514 47.1953C279.49 47.1953 280.93 46.1855 280.951 44.6602C280.93 43.3066 279.662 42.748 278.008 42.3184L276.16 41.8242C273.668 41.1367 272.1 39.8691 272.1 37.6992C272.1 35.0137 274.506 33.2305 277.643 33.2305C280.801 33.2305 283.014 35.0352 283.078 37.5488H280.779ZM285.055 35.4863V33.4453H297.107V35.4863H292.273V49H289.91V35.4863H285.055ZM298.977 49H296.463L302.049 33.4453H304.777L310.385 49H307.871L306.453 44.8965H300.395L298.977 49ZM301.082 42.9199H305.766L303.467 36.2812H303.359L301.082 42.9199ZM309.719 35.4863V33.4453H321.771V35.4863H316.938V49H314.574V35.4863H309.719ZM326.541 33.4453V49H324.178V33.4453H326.541ZM343.213 41.2227C343.213 46.1855 340.227 49.2148 336.209 49.2148C332.148 49.2148 329.184 46.1855 329.184 41.2227C329.184 36.2383 332.148 33.2305 336.209 33.2305C340.227 33.2305 343.213 36.2383 343.213 41.2227ZM340.871 41.2227C340.871 37.4414 338.873 35.4004 336.209 35.4004C333.523 35.4004 331.525 37.4414 331.525 41.2227C331.525 45.0039 333.523 47.0449 336.209 47.0449C338.873 47.0449 340.871 45.0039 340.871 41.2227ZM358.424 33.4453V49H356.254L348.369 37.6348H348.24V49H345.877V33.4453H348.068L355.953 44.832H356.104V33.4453H358.424Z" fill="#0AC290"/>
</svg>
