<svg width="467" height="755" viewBox="0 0 467 755" fill="none" xmlns="http://www.w3.org/2000/svg">
<rect width="467" height="755" fill="#747474"/>
<path d="M156.515 61H153.761L161.524 39.7891H164.308L172.071 61H169.288L167.179 55.0234H158.653L156.515 61ZM159.444 52.709H166.358L162.989 43.2168H162.813L159.444 52.709ZM182.384 44.3301C182.384 48.9297 185.431 53.6465 189.122 55.4629L187.716 57.3086C184.845 55.7998 182.442 52.7236 181.3 49.1055C180.128 52.958 177.667 56.2393 174.737 57.8066L173.272 55.9609C177.081 54.0859 180.099 49.0762 180.128 44.3301V39.584H182.384V44.3301ZM193.81 37.3281V47.9043H198.175V49.8965H193.81V63.373H191.524V37.3281H193.81ZM215.987 42.9531C215.987 46.1465 218.624 49.0176 222.462 50.1309L221.378 51.9766C218.375 51.0391 216.061 49.0908 214.903 46.5859C213.775 49.4277 211.373 51.5957 208.312 52.6504L207.14 50.834C211.036 49.6328 213.731 46.5273 213.731 42.9531V42.4258H207.843V40.5215H213.731V37.2109H216.046V40.5215H221.876V42.4258H215.987V42.9531ZM227.472 37.3281V44.125H231.397V46.0293H227.472V53.3242H225.187V37.3281H227.472ZM219.122 53.9688C224.483 53.9688 227.706 55.668 227.706 58.627C227.706 61.6152 224.483 63.2852 219.122 63.2852C213.731 63.2852 210.479 61.6152 210.479 58.627C210.479 55.668 213.731 53.9688 219.122 53.9688ZM219.122 55.7852C215.167 55.7852 212.765 56.8105 212.794 58.627C212.765 60.4434 215.167 61.498 219.122 61.498C223.077 61.498 225.479 60.4434 225.479 58.627C225.479 56.8105 223.077 55.7852 219.122 55.7852ZM240.216 38.5586C243.717 38.5293 246.368 40.5654 246.866 43.5684H252.315V37.3281H254.63V51.3027H252.315V45.4727H246.896C246.427 48.5488 243.746 50.5996 240.216 50.5996C236.261 50.5996 233.448 48.1387 233.448 44.5645C233.448 41.0195 236.261 38.5293 240.216 38.5586ZM240.216 40.5215C237.55 40.4922 235.646 42.1621 235.646 44.5645C235.646 46.9375 237.55 48.666 240.216 48.666C242.853 48.666 244.728 46.9375 244.728 44.5645C244.728 42.1621 242.853 40.4922 240.216 40.5215ZM240.157 52.6211V55.9316H252.315V52.6211H254.63V63.0215H237.843V52.6211H240.157ZM240.157 61.1465H252.315V57.7773H240.157V61.1465ZM280.44 37.3281V63.4316H278.126V37.3281H280.44ZM262.774 39.5547V46.4395H270.538V39.5547H272.794V57.1328H260.489V39.5547H262.774ZM262.774 55.1992H270.538V48.2852H262.774V55.1992ZM308.624 50.2188V52.123H284.894V50.2188H290.782V46.5566C288.702 45.751 287.53 44.418 287.53 42.6602C287.53 39.584 291.046 37.8262 296.759 37.8262C302.413 37.8262 305.958 39.584 305.958 42.6602C305.958 44.4033 304.801 45.7363 302.735 46.5273V50.2188H308.624ZM296.759 54.1152C302.354 54.1152 305.694 55.7266 305.724 58.7148C305.694 61.6738 302.354 63.3145 296.759 63.3145C291.104 63.3145 287.765 61.6738 287.765 58.7148C287.765 55.7266 291.104 54.1152 296.759 54.1152ZM296.759 55.873C292.569 55.9023 290.079 56.9277 290.108 58.7148C290.079 60.4727 292.569 61.5273 296.759 61.5273C300.89 61.5273 303.409 60.4727 303.409 58.7148C303.409 56.9277 300.89 55.9023 296.759 55.873ZM296.759 39.6426C292.511 39.6426 289.874 40.7852 289.903 42.6602C289.874 44.5645 292.511 45.6777 296.759 45.6777C300.978 45.6777 303.614 44.5645 303.614 42.6602C303.614 40.7852 300.978 39.6426 296.759 39.6426ZM293.067 50.2188H300.45V47.1719C299.352 47.3623 298.121 47.4648 296.759 47.4648C295.396 47.4648 294.166 47.3623 293.067 47.1719V50.2188Z" fill="white"/>
<rect width="425" height="629" transform="translate(19 80)" fill="white"/>
<rect width="190" height="58" transform="translate(39 102)" fill="#A2A2A2"/>
<path d="M121.034 121.641V129.418H124.128V130.836H121.034V140.74H119.358V121.641H121.034ZM116.093 123.703C116.093 129.117 113.558 134.037 107.327 137.109L106.382 135.777C111.323 133.317 114.009 129.644 114.396 125.121H107.263V123.703H116.093ZM141.487 121.662V133.264H139.876V128.129H137.341V132.641H135.751V122.027H137.341V126.732H139.876V121.662H141.487ZM133.538 123.338V131.545H126.147V123.338H133.538ZM127.737 124.67V130.213H131.97V124.67H127.737ZM135.171 133.758C139.124 133.736 141.595 135.025 141.595 137.217C141.595 139.408 139.124 140.697 135.171 140.697C131.196 140.697 128.747 139.408 128.769 137.217C128.747 135.025 131.196 133.736 135.171 133.758ZM135.171 135.09C132.249 135.09 130.423 135.885 130.444 137.217C130.423 138.57 132.249 139.365 135.171 139.365C138.071 139.365 139.897 138.57 139.919 137.217C139.897 135.885 138.071 135.09 135.171 135.09ZM160.028 121.641V140.783H158.331V121.641H160.028ZM147.073 123.273V128.322H152.767V123.273H154.421V136.164H145.397V123.273H147.073ZM147.073 134.746H152.767V129.676H147.073V134.746Z" fill="#222222"/>
<rect width="190" height="58" transform="translate(234 102)" fill="#D9D9D9"/>
<path d="M288.33 135.82V134.23L295.334 123.445H297.719V134.123H299.889V135.82H297.719V139H295.871V135.82H288.33ZM290.414 134.123H295.871V125.895H295.678L290.414 133.994V134.123ZM307.537 139.215C304.078 139.215 302.102 136.314 302.102 131.223C302.102 126.174 304.121 123.23 307.537 123.23C310.953 123.23 312.973 126.174 312.973 131.223C312.973 136.314 310.975 139.215 307.537 139.215ZM307.537 137.496C309.771 137.496 311.082 135.24 311.082 131.223C311.082 127.205 309.771 124.906 307.537 124.906C305.303 124.906 303.971 127.205 303.971 131.223C303.971 135.24 305.281 137.496 307.537 137.496ZM320.643 139.215C317.184 139.215 315.207 136.314 315.207 131.223C315.207 126.174 317.227 123.23 320.643 123.23C324.059 123.23 326.078 126.174 326.078 131.223C326.078 136.314 324.08 139.215 320.643 139.215ZM320.643 137.496C322.877 137.496 324.188 135.24 324.188 131.223C324.188 127.205 322.877 124.906 320.643 124.906C318.408 124.906 317.076 127.205 317.076 131.223C317.076 135.24 318.387 137.496 320.643 137.496ZM337.615 123.381V132.168H328.785V123.381H337.615ZM330.439 124.756V130.814H335.982V124.756H330.439ZM342.9 121.641V127.463H345.779V128.881H342.9V135.648H341.225V121.641H342.9ZM343.781 138.914V140.332H330.955V134.316H332.609V138.914H343.781ZM368.252 121.662V136.164H366.555V134.188H362.602V132.963H366.555V121.662H368.252ZM368.725 138.914V140.332H355.146V134.746H356.844V138.914H368.725ZM352.396 130.514C355.963 130.492 360.732 130.471 364.836 129.955L364.943 131.18C363.235 131.448 361.452 131.62 359.701 131.717V135.498H358.004V131.803C356.07 131.889 354.233 131.899 352.633 131.889L352.396 130.514ZM358.67 122.436C361.463 122.436 363.375 123.768 363.396 125.766C363.375 127.807 361.463 129.074 358.67 129.074C355.855 129.074 353.943 127.807 353.943 125.766C353.943 123.768 355.855 122.436 358.67 122.436ZM358.67 123.725C356.801 123.703 355.533 124.541 355.555 125.766C355.533 127.012 356.801 127.828 358.67 127.828C360.475 127.828 361.764 127.012 361.785 125.766C361.764 124.541 360.475 123.703 358.67 123.725Z" fill="#222222"/>
<rect width="190" height="58" transform="translate(39 165)" fill="#A2A2A2"/>
<path d="M123.741 199.895V201.291H106.253V199.895H114.116V195.77H108.315V185.994H110.013V189.453H119.938V185.994H121.593V195.77H115.771V199.895H123.741ZM110.013 194.395H119.938V190.828H110.013V194.395ZM142.669 193.729V195.125H125.267V193.729H142.669ZM133.968 196.801C138.071 196.801 140.521 198.068 140.542 200.26C140.521 202.473 138.071 203.697 133.968 203.697C129.843 203.697 127.372 202.473 127.372 200.26C127.372 198.068 129.843 196.801 133.968 196.801ZM133.968 198.133C130.896 198.154 129.069 198.906 129.091 200.26C129.069 201.592 130.896 202.344 133.968 202.344C136.997 202.344 138.845 201.592 138.845 200.26C138.845 198.906 136.997 198.154 133.968 198.133ZM141.122 185.629V187.025H135.063C135.128 189.195 138.308 190.85 141.702 191.236L141.079 192.59C137.953 192.192 135.021 190.796 133.968 188.658C132.926 190.796 130.004 192.192 126.856 192.59L126.255 191.236C129.585 190.85 132.786 189.195 132.872 187.025H126.856V185.629H141.122ZM159.47 185.672V187.09C159.47 188.572 159.47 190.312 158.976 192.697H161.769V194.094H144.28V192.697H157.278C157.794 190.302 157.794 188.572 157.794 187.09V187.068H146.493V185.672H159.47ZM159.556 196.736V203.482H146.429V196.736H159.556ZM148.104 198.068V202.107H157.88V198.068H148.104Z" fill="#222222"/>
<rect width="190" height="58" transform="translate(234 165)" fill="#D9D9D9"/>
<path d="M294.163 202.215C291.069 202.215 288.856 200.561 288.749 198.09H290.704C290.812 199.572 292.294 200.496 294.142 200.496C296.183 200.496 297.687 199.379 297.687 197.768C297.687 196.07 296.333 194.867 293.905 194.867H292.638V193.17H293.905C295.796 193.17 297.106 192.117 297.106 190.506C297.106 188.959 295.968 187.906 294.206 187.906C292.552 187.906 291.026 188.83 290.94 190.355H289.071C289.179 187.885 291.456 186.23 294.228 186.23C297.192 186.23 298.997 188.164 298.976 190.398C298.997 192.16 297.966 193.471 296.333 193.922V194.029C298.353 194.352 299.599 195.791 299.577 197.768C299.599 200.324 297.257 202.215 294.163 202.215ZM307.462 202.215C304.003 202.215 302.026 199.314 302.026 194.223C302.026 189.174 304.046 186.23 307.462 186.23C310.878 186.23 312.897 189.174 312.897 194.223C312.897 199.314 310.899 202.215 307.462 202.215ZM307.462 200.496C309.696 200.496 311.007 198.24 311.007 194.223C311.007 190.205 309.696 187.906 307.462 187.906C305.228 187.906 303.896 190.205 303.896 194.223C303.896 198.24 305.206 200.496 307.462 200.496ZM320.567 202.215C317.108 202.215 315.132 199.314 315.132 194.223C315.132 189.174 317.151 186.23 320.567 186.23C323.983 186.23 326.003 189.174 326.003 194.223C326.003 199.314 324.005 202.215 320.567 202.215ZM320.567 200.496C322.802 200.496 324.112 198.24 324.112 194.223C324.112 190.205 322.802 187.906 320.567 187.906C318.333 187.906 317.001 190.205 317.001 194.223C317.001 198.24 318.312 200.496 320.567 200.496ZM337.54 186.381V195.168H328.71V186.381H337.54ZM330.364 187.756V193.814H335.907V187.756H330.364ZM342.825 184.641V190.463H345.704V191.881H342.825V198.648H341.149V184.641H342.825ZM343.706 201.914V203.332H330.88V197.316H332.534V201.914H343.706ZM368.177 184.662V199.164H366.479V197.188H362.526V195.963H366.479V184.662H368.177ZM368.649 201.914V203.332H355.071V197.746H356.769V201.914H368.649ZM352.321 193.514C355.888 193.492 360.657 193.471 364.761 192.955L364.868 194.18C363.16 194.448 361.377 194.62 359.626 194.717V198.498H357.929V194.803C355.995 194.889 354.158 194.899 352.558 194.889L352.321 193.514ZM358.595 185.436C361.388 185.436 363.3 186.768 363.321 188.766C363.3 190.807 361.388 192.074 358.595 192.074C355.78 192.074 353.868 190.807 353.868 188.766C353.868 186.768 355.78 185.436 358.595 185.436ZM358.595 186.725C356.726 186.703 355.458 187.541 355.479 188.766C355.458 190.012 356.726 190.828 358.595 190.828C360.399 190.828 361.688 190.012 361.71 188.766C361.688 187.541 360.399 186.703 358.595 186.725Z" fill="#222222"/>
<rect width="190" height="58" transform="translate(39 228)" fill="#A2A2A2"/>
<path d="M123.741 262.959V264.377H106.253V262.959H114.116V259.35H108.444V253.463H119.874V250.455H108.401V249.059H121.528V254.838H110.12V257.953H121.979V259.35H115.771V262.959H123.741ZM130.53 248.328C132.206 248.328 133.624 248.951 134.505 249.982H139.403V247.641H141.079V257.459H139.403V255.268H134.569C133.678 256.342 132.238 256.986 130.53 256.986C127.651 256.986 125.567 255.225 125.567 252.646C125.567 250.09 127.651 248.328 130.53 248.328ZM130.53 249.725C128.575 249.703 127.179 250.928 127.179 252.646C127.179 254.387 128.575 255.611 130.53 255.633C132.421 255.611 133.839 254.387 133.839 252.646C133.839 250.928 132.421 249.703 130.53 249.725ZM141.079 258.426V263.002H130.423V265.129H141.81V266.482H128.747V261.713H139.403V259.779H128.704V258.426H141.079ZM135.278 251.336C135.396 251.744 135.472 252.185 135.472 252.646C135.472 253.098 135.396 253.517 135.278 253.914H139.403V251.336H135.278ZM154.808 249.381V250.799H147.181V254.752H154.12V256.127H147.181V260.746C150.747 260.746 153.196 260.606 156.118 260.123L156.29 261.52C153.282 262.014 150.704 262.121 147.03 262.143H145.505V249.381H154.808ZM160.071 247.641V266.74H158.374V247.641H160.071Z" fill="#222222"/>
<rect width="190" height="58" transform="translate(234 228)" fill="#D9D9D9"/>
<path d="M294.163 265.215C291.069 265.215 288.856 263.561 288.749 261.09H290.704C290.812 262.572 292.294 263.496 294.142 263.496C296.183 263.496 297.687 262.379 297.687 260.768C297.687 259.07 296.333 257.867 293.905 257.867H292.638V256.17H293.905C295.796 256.17 297.106 255.117 297.106 253.506C297.106 251.959 295.968 250.906 294.206 250.906C292.552 250.906 291.026 251.83 290.94 253.355H289.071C289.179 250.885 291.456 249.23 294.228 249.23C297.192 249.23 298.997 251.164 298.976 253.398C298.997 255.16 297.966 256.471 296.333 256.922V257.029C298.353 257.352 299.599 258.791 299.577 260.768C299.599 263.324 297.257 265.215 294.163 265.215ZM307.462 265.215C304.003 265.215 302.026 262.314 302.026 257.223C302.026 252.174 304.046 249.23 307.462 249.23C310.878 249.23 312.897 252.174 312.897 257.223C312.897 262.314 310.899 265.215 307.462 265.215ZM307.462 263.496C309.696 263.496 311.007 261.24 311.007 257.223C311.007 253.205 309.696 250.906 307.462 250.906C305.228 250.906 303.896 253.205 303.896 257.223C303.896 261.24 305.206 263.496 307.462 263.496ZM320.567 265.215C317.108 265.215 315.132 262.314 315.132 257.223C315.132 252.174 317.151 249.23 320.567 249.23C323.983 249.23 326.003 252.174 326.003 257.223C326.003 262.314 324.005 265.215 320.567 265.215ZM320.567 263.496C322.802 263.496 324.112 261.24 324.112 257.223C324.112 253.205 322.802 250.906 320.567 250.906C318.333 250.906 317.001 253.205 317.001 257.223C317.001 261.24 318.312 263.496 320.567 263.496ZM337.54 249.381V258.168H328.71V249.381H337.54ZM330.364 250.756V256.814H335.907V250.756H330.364ZM342.825 247.641V253.463H345.704V254.881H342.825V261.648H341.149V247.641H342.825ZM343.706 264.914V266.332H330.88V260.316H332.534V264.914H343.706ZM368.177 247.662V262.164H366.479V260.188H362.526V258.963H366.479V247.662H368.177ZM368.649 264.914V266.332H355.071V260.746H356.769V264.914H368.649ZM352.321 256.514C355.888 256.492 360.657 256.471 364.761 255.955L364.868 257.18C363.16 257.448 361.377 257.62 359.626 257.717V261.498H357.929V257.803C355.995 257.889 354.158 257.899 352.558 257.889L352.321 256.514ZM358.595 248.436C361.388 248.436 363.3 249.768 363.321 251.766C363.3 253.807 361.388 255.074 358.595 255.074C355.78 255.074 353.868 253.807 353.868 251.766C353.868 249.768 355.78 248.436 358.595 248.436ZM358.595 249.725C356.726 249.703 355.458 250.541 355.479 251.766C355.458 253.012 356.726 253.828 358.595 253.828C360.399 253.828 361.688 253.012 361.71 251.766C361.688 250.541 360.399 249.703 358.595 249.725Z" fill="#222222"/>
<rect width="190" height="58" transform="translate(39 291)" fill="#A2A2A2"/>
<path d="M90.7412 310.662V324.627H89.0654V310.662H90.7412ZM91.3428 327.914V329.332H78.4092V323.209H80.085V327.914H91.3428ZM80.4287 311.994C83.2861 311.994 85.4346 313.928 85.4346 316.678C85.4346 319.471 83.2861 321.383 80.4287 321.383C77.5713 321.383 75.4229 319.471 75.4229 316.678C75.4229 313.928 77.5713 311.994 80.4287 311.994ZM80.4287 313.477C78.4951 313.477 77.0557 314.809 77.0771 316.678C77.0557 318.59 78.4951 319.9 80.4287 319.9C82.3193 319.9 83.7803 318.59 83.7803 316.678C83.7803 314.809 82.3193 313.477 80.4287 313.477ZM101.849 312.982V314.336H96.3486V318.117H100.968V319.471H96.3486V323.768C99.0879 323.735 100.764 323.639 102.837 323.252L102.987 324.627C100.774 325.078 98.9697 325.121 95.9404 325.143H94.7373V312.982H101.849ZM110.335 310.641V329.74H108.702V310.641H110.335ZM106.425 311.113V328.752H104.813V319.299H101.999V317.902H104.813V311.113H106.425ZM128.769 310.641V329.783H127.093V310.641H128.769ZM122.968 312.424V319.213H115.835V323.725C119.004 323.725 121.829 323.585 125.245 323.037L125.417 324.455C121.894 325.014 118.993 325.143 115.706 325.143H114.116V317.838H121.271V313.82H114.073V312.424H122.968ZM137.147 312.123C139.747 312.145 141.616 314.368 141.896 317.945H146.171V310.641H147.847V329.783H146.171V319.342H141.917C141.713 323.08 139.812 325.422 137.147 325.422C134.333 325.422 132.356 322.844 132.356 318.783C132.356 314.723 134.333 312.145 137.147 312.123ZM137.147 313.627C135.257 313.648 133.968 315.668 133.968 318.783C133.968 321.898 135.257 323.918 137.147 323.918C139.017 323.918 140.327 321.898 140.327 318.783C140.327 315.668 139.017 313.648 137.147 313.627ZM163.337 315.775C163.315 319.256 165.7 322.779 168.515 324.047L167.483 325.379C165.313 324.315 163.434 322.07 162.521 319.342C161.629 322.231 159.749 324.638 157.515 325.766L156.44 324.348C159.276 323.037 161.64 319.406 161.661 315.775V312.295H163.337V315.775ZM172.296 310.641V329.783H170.599V310.641H172.296ZM184.198 322.715C188.302 322.715 190.901 324.004 190.901 326.217C190.901 328.408 188.302 329.697 184.198 329.697C180.116 329.697 177.517 328.408 177.517 326.217C177.517 324.004 180.116 322.715 184.198 322.715ZM184.198 324.004C181.147 324.025 179.171 324.863 179.192 326.217C179.171 327.549 181.147 328.365 184.198 328.365C187.249 328.365 189.204 327.549 189.226 326.217C189.204 324.863 187.249 324.025 184.198 324.004ZM190.751 311.629V313.24C190.751 314.787 190.751 316.334 190.214 318.311L188.56 318.117C189.075 316.141 189.075 314.744 189.075 313.24V313.004H177.646V311.629H190.751ZM192.964 319.557V320.932H175.583V319.557H182.78V315.861H184.435V319.557H192.964Z" fill="#222222"/>
<rect width="190" height="58" transform="translate(234 291)" fill="#D9D9D9"/>
<path d="M282.562 328L282.54 326.582L287.847 320.996C289.694 319.041 290.575 317.988 290.575 316.549C290.575 314.959 289.222 313.906 287.481 313.906C285.634 313.906 284.452 315.088 284.452 316.828H282.626C282.604 314.078 284.731 312.23 287.546 312.23C290.36 312.23 292.38 314.121 292.38 316.549C292.38 318.289 291.563 319.643 288.813 322.479L285.247 326.152V326.281H292.659V328H282.562ZM300.544 328.215C297.729 328.215 295.603 326.475 295.495 324.09H297.364C297.515 325.486 298.868 326.518 300.544 326.518C302.563 326.518 304.024 325.035 304.024 323.08C304.024 321.061 302.499 319.578 300.415 319.557C299.104 319.535 298.095 319.943 297.515 320.953H295.646L296.741 312.445H305.163V314.164H298.353L297.772 318.719H297.923C298.61 318.182 299.663 317.816 300.759 317.816C303.724 317.816 305.915 320.008 305.915 323.037C305.915 326.045 303.638 328.215 300.544 328.215ZM313.692 328.215C310.233 328.215 308.257 325.314 308.257 320.223C308.257 315.174 310.276 312.23 313.692 312.23C317.108 312.23 319.128 315.174 319.128 320.223C319.128 325.314 317.13 328.215 313.692 328.215ZM313.692 326.496C315.927 326.496 317.237 324.24 317.237 320.223C317.237 316.205 315.927 313.906 313.692 313.906C311.458 313.906 310.126 316.205 310.126 320.223C310.126 324.24 311.437 326.496 313.692 326.496ZM326.798 328.215C323.339 328.215 321.362 325.314 321.362 320.223C321.362 315.174 323.382 312.23 326.798 312.23C330.214 312.23 332.233 315.174 332.233 320.223C332.233 325.314 330.235 328.215 326.798 328.215ZM326.798 326.496C329.032 326.496 330.343 324.24 330.343 320.223C330.343 316.205 329.032 313.906 326.798 313.906C324.563 313.906 323.231 316.205 323.231 320.223C323.231 324.24 324.542 326.496 326.798 326.496ZM343.771 312.381V321.168H334.94V312.381H343.771ZM336.595 313.756V319.814H342.138V313.756H336.595ZM349.056 310.641V316.463H351.935V317.881H349.056V324.648H347.38V310.641H349.056ZM349.937 327.914V329.332H337.11V323.316H338.765V327.914H349.937ZM374.407 310.662V325.164H372.71V323.188H368.757V321.963H372.71V310.662H374.407ZM374.88 327.914V329.332H361.302V323.746H362.999V327.914H374.88ZM358.552 319.514C362.118 319.492 366.888 319.471 370.991 318.955L371.099 320.18C369.391 320.448 367.607 320.62 365.856 320.717V324.498H364.159V320.803C362.226 320.889 360.389 320.899 358.788 320.889L358.552 319.514ZM364.825 311.436C367.618 311.436 369.53 312.768 369.552 314.766C369.53 316.807 367.618 318.074 364.825 318.074C362.011 318.074 360.099 316.807 360.099 314.766C360.099 312.768 362.011 311.436 364.825 311.436ZM364.825 312.725C362.956 312.703 361.688 313.541 361.71 314.766C361.688 316.012 362.956 316.828 364.825 316.828C366.63 316.828 367.919 316.012 367.94 314.766C367.919 313.541 366.63 312.703 364.825 312.725Z" fill="#222222"/>
<rect width="190" height="58" transform="translate(39 354)" fill="#A2A2A2"/>
<path d="M58.8691 379.076C58.8691 382.105 60.3516 385.393 62.8867 386.896L61.9199 388.207C60.083 387.09 58.7617 385.049 58.0957 382.729C57.3867 385.264 55.9688 387.444 54.0566 388.615L52.9824 387.348C55.625 385.801 57.2363 382.406 57.2363 379.141V375.445H58.8691V379.076ZM69.5684 373.641V392.74H67.9355V373.641H69.5684ZM65.6152 374.049V391.773H64.0254V381.934H60.7812V380.494H64.0254V374.049H65.6152ZM81.9004 374.951V376.348H74.7891V378.84H81.5352V380.172H74.7891V382.814C78.5059 382.814 80.6436 382.718 83.1465 382.256L83.3398 383.652C80.6973 384.104 78.5059 384.189 74.5527 384.168H73.1133V374.951H81.9004ZM87.1426 373.641V378.732H90.0215V380.172H87.1426V385.221H85.4668V373.641H87.1426ZM87.1426 386.166V392.74H85.4668V387.541H74.6387V386.166H87.1426ZM107.016 373.641V392.74H105.318V373.641H107.016ZM101.365 375.725C101.344 381.225 98.7871 386.08 92.3848 389.152L91.4609 387.777C96.6279 385.328 99.2598 381.665 99.6465 377.1H92.3418V375.725H101.365ZM126.029 373.641V392.74H124.332V373.641H126.029ZM120.379 375.725C120.357 381.225 117.801 386.08 111.398 389.152L110.475 387.777C115.642 385.328 118.273 381.665 118.66 377.1H111.355V375.725H120.379ZM144.742 374.887V382.664H135.783V374.887H144.742ZM137.438 376.262V381.332H143.088V376.262H137.438ZM150.521 373.641V384.619H148.867V373.641H150.521ZM145.344 387.24C145.344 389.109 148.395 390.957 151.682 391.365L151.102 392.676C148.223 392.289 145.602 390.936 144.484 389.152C143.324 390.968 140.639 392.289 137.76 392.676L137.158 391.365C140.445 391 143.604 389.152 143.604 387.24H137.953V385.93H143.625V384.061H145.301V385.93H151.016V387.24H145.344ZM165.775 379.506C165.754 382.578 167.967 385.951 170.738 387.262L169.771 388.594C167.623 387.552 165.808 385.274 164.959 382.686C164.078 385.5 162.155 387.971 160.018 389.066L158.986 387.734C161.736 386.402 164.1 382.771 164.121 379.506V377.014H159.674V375.617H170.072V377.014H165.775V379.506ZM174.09 373.641V381.375H177.291V382.814H174.09V392.74H172.414V373.641H174.09ZM189.236 375.467V376.842H187.281V383.158C188.259 383.094 189.226 383.008 190.139 382.9L190.268 384.168C186.4 384.77 181.889 384.855 178.58 384.855L178.387 383.459L180.857 383.416V376.842H178.924V375.467H189.236ZM193.254 373.662V379.463H196.133V380.902H193.254V387.713H191.578V373.662H193.254ZM194.135 390.914V392.332H181.309V386.381H182.963V390.914H194.135ZM182.512 383.395C183.532 383.362 184.585 383.33 185.627 383.266V376.842H182.512V383.395ZM213.127 373.641V392.74H211.43V373.641H213.127ZM207.477 375.725C207.455 381.225 204.898 386.08 198.496 389.152L197.572 387.777C202.739 385.328 205.371 381.665 205.758 377.1H198.453V375.725H207.477Z" fill="#222222"/>
<rect width="189" height="58" transform="translate(234 354)" fill="#D9D9D9"/>
<path d="M282.728 391L282.706 389.582L288.013 383.996C289.86 382.041 290.741 380.988 290.741 379.549C290.741 377.959 289.388 376.906 287.647 376.906C285.8 376.906 284.618 378.088 284.618 379.828H282.792C282.771 377.078 284.897 375.23 287.712 375.23C290.526 375.23 292.546 377.121 292.546 379.549C292.546 381.289 291.729 382.643 288.979 385.479L285.413 389.152V389.281H292.825V391H282.728ZM296.134 391L303.267 377.271V377.164H295.038V375.445H305.265V377.25L298.153 391H296.134ZM312.526 391.215C309.067 391.215 307.091 388.314 307.091 383.223C307.091 378.174 309.11 375.23 312.526 375.23C315.942 375.23 317.962 378.174 317.962 383.223C317.962 388.314 315.964 391.215 312.526 391.215ZM312.526 389.496C314.761 389.496 316.071 387.24 316.071 383.223C316.071 379.205 314.761 376.906 312.526 376.906C310.292 376.906 308.96 379.205 308.96 383.223C308.96 387.24 310.271 389.496 312.526 389.496ZM325.632 391.215C322.173 391.215 320.196 388.314 320.196 383.223C320.196 378.174 322.216 375.23 325.632 375.23C329.048 375.23 331.067 378.174 331.067 383.223C331.067 388.314 329.069 391.215 325.632 391.215ZM325.632 389.496C327.866 389.496 329.177 387.24 329.177 383.223C329.177 379.205 327.866 376.906 325.632 376.906C323.397 376.906 322.065 379.205 322.065 383.223C322.065 387.24 323.376 389.496 325.632 389.496ZM342.604 375.381V384.168H333.774V375.381H342.604ZM335.429 376.756V382.814H340.972V376.756H335.429ZM347.89 373.641V379.463H350.769V380.881H347.89V387.648H346.214V373.641H347.89ZM348.771 390.914V392.332H335.944V386.316H337.599V390.914H348.771ZM373.241 373.662V388.164H371.544V386.188H367.591V384.963H371.544V373.662H373.241ZM373.714 390.914V392.332H360.136V386.746H361.833V390.914H373.714ZM357.386 382.514C360.952 382.492 365.722 382.471 369.825 381.955L369.933 383.18C368.225 383.448 366.441 383.62 364.69 383.717V387.498H362.993V383.803C361.06 383.889 359.223 383.899 357.622 383.889L357.386 382.514ZM363.659 374.436C366.452 374.436 368.364 375.768 368.386 377.766C368.364 379.807 366.452 381.074 363.659 381.074C360.845 381.074 358.933 379.807 358.933 377.766C358.933 375.768 360.845 374.436 363.659 374.436ZM363.659 375.725C361.79 375.703 360.522 376.541 360.544 377.766C360.522 379.012 361.79 379.828 363.659 379.828C365.464 379.828 366.753 379.012 366.774 377.766C366.753 376.541 365.464 375.703 363.659 375.725Z" fill="#222222"/>
<rect width="190" height="58" transform="translate(39 417)" fill="#A2A2A2"/>
<path d="M85.2197 438.639C85.1982 444.16 83.2002 449.252 76.3037 452.625L75.3584 451.271C78.9355 449.553 81.1484 447.351 82.3623 444.762L75.7236 445.406L75.4443 443.902L82.8994 443.408C83.2432 442.345 83.4473 441.217 83.5225 440.035H76.4111V438.639H85.2197ZM90.7627 436.641V455.74H89.0654V436.641H90.7627ZM102.687 437.887C106.747 437.908 109.669 439.885 109.669 442.893C109.669 445.739 107.134 447.63 103.503 447.855V451.873H111.474V453.291H93.9854V451.873H101.849V447.855C98.2285 447.619 95.7041 445.729 95.7041 442.893C95.7041 439.885 98.626 437.908 102.687 437.887ZM102.687 439.283C99.5928 439.283 97.3369 440.744 97.3369 442.893C97.3369 445.105 99.5928 446.523 102.687 446.545C105.78 446.523 108.036 445.105 108.036 442.893C108.036 440.744 105.78 439.283 102.687 439.283ZM122.517 439.455C122.517 442.721 126.255 445.643 129.585 446.266L128.812 447.684C125.933 447.018 122.893 444.966 121.657 442.141C120.422 444.955 117.393 447.007 114.503 447.684L113.729 446.266C117.038 445.621 120.755 442.742 120.755 439.455V437.994H122.517V439.455ZM130.487 451.744V453.141H112.999V451.744H130.487ZM147.245 438.596V440.959C147.245 443.773 147.245 446.373 146.45 450.24L144.753 450.09C145.172 448.253 145.387 446.663 145.505 445.17L133.839 445.814L133.603 444.418L145.569 443.924C145.602 442.914 145.602 441.937 145.612 440.959V440.014H134.118V438.596H147.245ZM149.415 451.637V453.055H132.013V451.637H149.415ZM172.296 436.641V455.783H170.599V436.641H172.296ZM159.341 438.273V443.322H165.034V438.273H166.688V451.164H157.665V438.273H159.341ZM159.341 449.746H165.034V444.676H159.341V449.746ZM192.964 446.094V447.49H175.562V446.094H179.88V443.408C178.354 442.817 177.495 441.84 177.495 440.551C177.495 438.295 180.073 437.006 184.263 437.006C188.409 437.006 191.009 438.295 191.009 440.551C191.009 441.829 190.16 442.807 188.646 443.387V446.094H192.964ZM184.263 448.951C188.366 448.951 190.815 450.133 190.837 452.324C190.815 454.494 188.366 455.697 184.263 455.697C180.116 455.697 177.667 454.494 177.667 452.324C177.667 450.133 180.116 448.951 184.263 448.951ZM184.263 450.24C181.19 450.262 179.364 451.014 179.386 452.324C179.364 453.613 181.19 454.387 184.263 454.387C187.292 454.387 189.14 453.613 189.14 452.324C189.14 451.014 187.292 450.262 184.263 450.24ZM184.263 438.338C181.147 438.338 179.214 439.176 179.235 440.551C179.214 441.947 181.147 442.764 184.263 442.764C187.356 442.764 189.29 441.947 189.29 440.551C189.29 439.176 187.356 438.338 184.263 438.338ZM181.556 446.094H186.97V443.859C186.164 443.999 185.262 444.074 184.263 444.074C183.264 444.074 182.361 443.999 181.556 443.859V446.094Z" fill="#222222"/>
<rect width="190" height="58" transform="translate(234 417)" fill="#D9D9D9"/>
<path d="M294.152 454.215C291.059 454.215 288.846 452.561 288.738 450.09H290.693C290.801 451.572 292.283 452.496 294.131 452.496C296.172 452.496 297.676 451.379 297.676 449.768C297.676 448.07 296.322 446.867 293.895 446.867H292.627V445.17H293.895C295.785 445.17 297.096 444.117 297.096 442.506C297.096 440.959 295.957 439.906 294.195 439.906C292.541 439.906 291.016 440.83 290.93 442.355H289.061C289.168 439.885 291.445 438.23 294.217 438.23C297.182 438.23 298.986 440.164 298.965 442.398C298.986 444.16 297.955 445.471 296.322 445.922V446.029C298.342 446.352 299.588 447.791 299.566 449.768C299.588 452.324 297.246 454.215 294.152 454.215ZM307.43 454.215C304.615 454.215 302.488 452.475 302.381 450.09H304.25C304.4 451.486 305.754 452.518 307.43 452.518C309.449 452.518 310.91 451.035 310.91 449.08C310.91 447.061 309.385 445.578 307.301 445.557C305.99 445.535 304.98 445.943 304.4 446.953H302.531L303.627 438.445H312.049V440.164H305.238L304.658 444.719H304.809C305.496 444.182 306.549 443.816 307.645 443.816C310.609 443.816 312.801 446.008 312.801 449.037C312.801 452.045 310.523 454.215 307.43 454.215ZM320.578 454.215C317.119 454.215 315.143 451.314 315.143 446.223C315.143 441.174 317.162 438.23 320.578 438.23C323.994 438.23 326.014 441.174 326.014 446.223C326.014 451.314 324.016 454.215 320.578 454.215ZM320.578 452.496C322.812 452.496 324.123 450.24 324.123 446.223C324.123 442.205 322.812 439.906 320.578 439.906C318.344 439.906 317.012 442.205 317.012 446.223C317.012 450.24 318.322 452.496 320.578 452.496ZM337.551 438.381V447.168H328.721V438.381H337.551ZM330.375 439.756V445.814H335.918V439.756H330.375ZM342.836 436.641V442.463H345.715V443.881H342.836V450.648H341.16V436.641H342.836ZM343.717 453.914V455.332H330.891V449.316H332.545V453.914H343.717ZM368.188 436.662V451.164H366.49V449.188H362.537V447.963H366.49V436.662H368.188ZM368.66 453.914V455.332H355.082V449.746H356.779V453.914H368.66ZM352.332 445.514C355.898 445.492 360.668 445.471 364.771 444.955L364.879 446.18C363.171 446.448 361.388 446.62 359.637 446.717V450.498H357.939V446.803C356.006 446.889 354.169 446.899 352.568 446.889L352.332 445.514ZM358.605 437.436C361.398 437.436 363.311 438.768 363.332 440.766C363.311 442.807 361.398 444.074 358.605 444.074C355.791 444.074 353.879 442.807 353.879 440.766C353.879 438.768 355.791 437.436 358.605 437.436ZM358.605 438.725C356.736 438.703 355.469 439.541 355.49 440.766C355.469 442.012 356.736 442.828 358.605 442.828C360.41 442.828 361.699 442.012 361.721 440.766C361.699 439.541 360.41 438.703 358.605 438.725Z" fill="#222222"/>
<rect width="190" height="58" transform="translate(39 480)" fill="#A2A2A2"/>
<path d="M87.1426 499.641V505.463H90.0215V506.881H87.1426V513.627H85.4453V499.641H87.1426ZM81.9863 501.123C81.9863 506.043 78.4629 509.695 72.9629 511.414L72.2324 510.061C76.8086 508.632 79.7949 505.903 80.1602 502.541H73.0273V501.123H81.9863ZM88.0234 516.914V518.332H75.1758V512.209H76.8516V516.914H88.0234ZM102.139 501.467V502.842H100.184V509.158C101.161 509.094 102.128 509.008 103.041 508.9L103.17 510.168C99.3027 510.77 94.791 510.855 91.4824 510.855L91.2891 509.459L93.7598 509.416V502.842H91.8262V501.467H102.139ZM106.156 499.662V505.463H109.035V506.902H106.156V513.713H104.48V499.662H106.156ZM107.037 516.914V518.332H94.2109V512.381H95.8652V516.914H107.037ZM95.4141 509.395C96.4346 509.362 97.4873 509.33 98.5293 509.266V502.842H95.4141V509.395ZM125.729 500.887V508.664H116.77V500.887H125.729ZM118.424 502.262V507.332H124.074V502.262H118.424ZM131.508 499.641V510.619H129.854V499.641H131.508ZM126.33 513.24C126.33 515.109 129.381 516.957 132.668 517.365L132.088 518.676C129.209 518.289 126.588 516.936 125.471 515.152C124.311 516.968 121.625 518.289 118.746 518.676L118.145 517.365C121.432 517 124.59 515.152 124.59 513.24H118.939V511.93H124.611V510.061H126.287V511.93H132.002V513.24H126.33ZM146.697 504.775C146.697 508.148 148.932 511.607 151.639 512.939L150.607 514.293C148.502 513.187 146.74 510.931 145.902 508.277C145.043 511.103 143.238 513.509 141.09 514.658L140.016 513.305C142.809 511.93 145.021 508.256 145.043 504.775V501.295H146.697V504.775ZM155.076 499.641V507.396H158.277V508.857H155.076V518.74H153.4V499.641H155.076ZM175.078 499.662V513.627H173.402V499.662H175.078ZM175.68 516.914V518.332H162.746V512.209H164.422V516.914H175.68ZM164.766 500.994C167.623 500.994 169.771 502.928 169.771 505.678C169.771 508.471 167.623 510.383 164.766 510.383C161.908 510.383 159.76 508.471 159.76 505.678C159.76 502.928 161.908 500.994 164.766 500.994ZM164.766 502.477C162.832 502.477 161.393 503.809 161.414 505.678C161.393 507.59 162.832 508.9 164.766 508.9C166.656 508.9 168.117 507.59 168.117 505.678C168.117 503.809 166.656 502.477 164.766 502.477ZM195.725 507.719V509.094H187.84V510.984H193.49V515.26H182.146V517.193H194.07V518.525H180.471V513.992H191.836V512.295H180.428V510.984H186.164V509.094H178.322V507.719H195.725ZM193.469 500.285V506.107H180.578V500.285H193.469ZM182.254 501.639V504.754H191.793V501.639H182.254Z" fill="#222222"/>
<rect width="190" height="58" transform="translate(234 480)" fill="#D9D9D9"/>
<path d="M296.236 501.445V517H294.281V503.465H294.195L290.414 505.979V504.023L294.281 501.445H296.236ZM305.453 517.215C302.639 517.215 300.512 515.475 300.404 513.09H302.273C302.424 514.486 303.777 515.518 305.453 515.518C307.473 515.518 308.934 514.035 308.934 512.08C308.934 510.061 307.408 508.578 305.324 508.557C304.014 508.535 303.004 508.943 302.424 509.953H300.555L301.65 501.445H310.072V503.164H303.262L302.682 507.719H302.832C303.52 507.182 304.572 506.816 305.668 506.816C308.633 506.816 310.824 509.008 310.824 512.037C310.824 515.045 308.547 517.215 305.453 517.215ZM318.58 517.215C315.766 517.215 313.639 515.475 313.531 513.09H315.4C315.551 514.486 316.904 515.518 318.58 515.518C320.6 515.518 322.061 514.035 322.061 512.08C322.061 510.061 320.535 508.578 318.451 508.557C317.141 508.535 316.131 508.943 315.551 509.953H313.682L314.777 501.445H323.199V503.164H316.389L315.809 507.719H315.959C316.646 507.182 317.699 506.816 318.795 506.816C321.76 506.816 323.951 509.008 323.951 512.037C323.951 515.045 321.674 517.215 318.58 517.215ZM335.596 501.381V510.168H326.766V501.381H335.596ZM328.42 502.756V508.814H333.963V502.756H328.42ZM340.881 499.641V505.463H343.76V506.881H340.881V513.648H339.205V499.641H340.881ZM341.762 516.914V518.332H328.936V512.316H330.59V516.914H341.762ZM366.232 499.662V514.164H364.535V512.188H360.582V510.963H364.535V499.662H366.232ZM366.705 516.914V518.332H353.127V512.746H354.824V516.914H366.705ZM350.377 508.514C353.943 508.492 358.713 508.471 362.816 507.955L362.924 509.18C361.216 509.448 359.433 509.62 357.682 509.717V513.498H355.984V509.803C354.051 509.889 352.214 509.899 350.613 509.889L350.377 508.514ZM356.65 500.436C359.443 500.436 361.355 501.768 361.377 503.766C361.355 505.807 359.443 507.074 356.65 507.074C353.836 507.074 351.924 505.807 351.924 503.766C351.924 501.768 353.836 500.436 356.65 500.436ZM356.65 501.725C354.781 501.703 353.514 502.541 353.535 503.766C353.514 505.012 354.781 505.828 356.65 505.828C358.455 505.828 359.744 505.012 359.766 503.766C359.744 502.541 358.455 501.703 356.65 501.725Z" fill="#222222"/>
<rect width="189" height="58" transform="translate(39 543)" fill="#A2A2A2"/>
<path d="M102.713 566.271C102.713 568.764 104.582 570.998 107.396 571.922L106.602 573.254C104.399 572.534 102.734 571.009 101.918 569.086C101.091 571.277 99.3291 572.985 97.041 573.812L96.1816 572.459C99.0391 571.492 101.037 569.021 101.059 566.271V565.455H96.6973V564.059H107.01V565.455H102.713V566.271ZM111.178 562.641V567.518H114.057V568.936H111.178V574.178H109.502V562.641H111.178ZM105.055 574.693C108.986 574.693 111.35 575.982 111.35 578.174C111.35 580.408 108.986 581.697 105.055 581.697C101.123 581.697 98.7168 580.408 98.7168 578.174C98.7168 575.982 101.123 574.693 105.055 574.693ZM105.055 576.047C102.176 576.047 100.393 576.842 100.414 578.174C100.393 579.549 102.176 580.344 105.055 580.344C107.955 580.344 109.717 579.549 109.717 578.174C109.717 576.842 107.955 576.047 105.055 576.047ZM131.008 562.641V581.783H129.311V562.641H131.008ZM118.053 564.273V569.322H123.746V564.273H125.4V577.164H116.377V564.273H118.053ZM118.053 575.746H123.746V570.676H118.053V575.746ZM150.107 562.662V576.777H148.41V571.621H143.469C142.588 572.749 141.17 573.426 139.537 573.426C136.68 573.426 134.574 571.449 134.574 568.656C134.574 565.863 136.68 563.887 139.537 563.865C141.159 563.876 142.545 564.542 143.447 565.648H148.41V562.662H150.107ZM150.645 579.914V581.332H137.84V575.295H139.537V579.914H150.645ZM139.537 565.369C137.582 565.391 136.186 566.744 136.186 568.656C136.186 570.568 137.582 571.922 139.537 571.922C141.406 571.922 142.846 570.568 142.846 568.656C142.846 566.744 141.406 565.391 139.537 565.369ZM144.221 567.045C144.382 567.539 144.479 568.076 144.479 568.656C144.479 569.215 144.382 569.741 144.221 570.225H148.41V567.045H144.221ZM169.121 562.641V572.416H167.424V570.418H162.332V569.086H167.424V566.787H162.611C161.408 569.806 158.443 571.836 154.211 572.846L153.609 571.449C158.293 570.364 161.021 568.076 161.344 565.004H154.576V563.607H163.191C163.191 564.241 163.127 564.854 163.02 565.434H167.424V562.641H169.121ZM169.121 573.275V577.938H158.465V580.172H169.766V581.568H156.789V576.648H167.424V574.65H156.746V573.275H169.121Z" fill="#222222"/>
<rect width="190" height="58" transform="translate(234 543)" fill="#D9D9D9"/>
<path d="M296.258 564.445V580H294.303V566.465H294.217L290.436 568.979V567.023L294.303 564.445H296.258ZM305.496 580.215C302.037 580.215 300.061 577.314 300.061 572.223C300.061 567.174 302.08 564.23 305.496 564.23C308.912 564.23 310.932 567.174 310.932 572.223C310.932 577.314 308.934 580.215 305.496 580.215ZM305.496 578.496C307.73 578.496 309.041 576.24 309.041 572.223C309.041 568.205 307.73 565.906 305.496 565.906C303.262 565.906 301.93 568.205 301.93 572.223C301.93 576.24 303.24 578.496 305.496 578.496ZM318.602 580.215C315.143 580.215 313.166 577.314 313.166 572.223C313.166 567.174 315.186 564.23 318.602 564.23C322.018 564.23 324.037 567.174 324.037 572.223C324.037 577.314 322.039 580.215 318.602 580.215ZM318.602 578.496C320.836 578.496 322.146 576.24 322.146 572.223C322.146 568.205 320.836 565.906 318.602 565.906C316.367 565.906 315.035 568.205 315.035 572.223C315.035 576.24 316.346 578.496 318.602 578.496ZM335.574 564.381V573.168H326.744V564.381H335.574ZM328.398 565.756V571.814H333.941V565.756H328.398ZM340.859 562.641V568.463H343.738V569.881H340.859V576.648H339.184V562.641H340.859ZM341.74 579.914V581.332H328.914V575.316H330.568V579.914H341.74ZM366.211 562.662V577.164H364.514V575.188H360.561V573.963H364.514V562.662H366.211ZM366.684 579.914V581.332H353.105V575.746H354.803V579.914H366.684ZM350.355 571.514C353.922 571.492 358.691 571.471 362.795 570.955L362.902 572.18C361.194 572.448 359.411 572.62 357.66 572.717V576.498H355.963V572.803C354.029 572.889 352.192 572.899 350.592 572.889L350.355 571.514ZM356.629 563.436C359.422 563.436 361.334 564.768 361.355 566.766C361.334 568.807 359.422 570.074 356.629 570.074C353.814 570.074 351.902 568.807 351.902 566.766C351.902 564.768 353.814 563.436 356.629 563.436ZM356.629 564.725C354.76 564.703 353.492 565.541 353.514 566.766C353.492 568.012 354.76 568.828 356.629 568.828C358.434 568.828 359.723 568.012 359.744 566.766C359.723 565.541 358.434 564.703 356.629 564.725Z" fill="#222222"/>
<rect width="385" height="70" transform="translate(39 617)" fill="#313131"/>
<path d="M171.163 643.371V645.246H167.296V648.908H171.163V650.871H167.296V654.826H165.011V639.328H167.296V643.371H171.163ZM167.296 656.027V665.373H165.011V657.932H150.245V656.027H167.296ZM154.259 640.91C158.214 640.881 161.085 643.43 161.114 647.033C161.085 650.695 158.214 653.215 154.259 653.215C150.304 653.215 147.403 650.695 147.433 647.033C147.403 643.43 150.304 640.881 154.259 640.91ZM154.259 642.873C151.622 642.873 149.659 644.572 149.688 647.033C149.659 649.523 151.622 651.252 154.259 651.223C156.925 651.252 158.858 649.523 158.858 647.033C158.858 644.572 156.925 642.873 154.259 642.873ZM188.712 663.293C185.021 663.234 180.978 661.066 180.978 653.215C180.978 645.715 184.054 641.496 189.034 641.496C192.755 641.496 195.362 643.781 195.919 647.121H193.312C192.813 645.246 191.407 643.84 189.034 643.84C185.548 643.84 183.468 646.828 183.468 651.926H183.731C184.962 650.168 186.896 649.113 189.181 649.113C192.96 649.113 196.095 652.043 196.095 656.145C196.095 660.129 193.165 663.322 188.712 663.293ZM188.712 660.979C191.466 660.979 193.517 658.811 193.546 656.174C193.517 653.566 191.554 651.428 188.771 651.428C185.987 651.428 183.849 653.684 183.819 656.203C183.819 658.693 185.87 660.979 188.712 660.979ZM202.071 661.037L199.786 669.006H197.618L199.229 661.037H202.071ZM212.882 663.293C208.429 663.293 205.323 660.832 205.353 657.375C205.323 654.621 207.228 652.365 209.659 651.984V651.867C207.55 651.369 206.173 649.436 206.173 647.121C206.173 643.869 209.015 641.496 212.882 641.496C216.749 641.496 219.591 643.869 219.62 647.121C219.591 649.436 218.185 651.369 216.104 651.867V651.984C218.507 652.365 220.411 654.621 220.44 657.375C220.411 660.832 217.306 663.293 212.882 663.293ZM212.882 660.979C215.929 660.979 217.804 659.455 217.804 657.229C217.804 654.885 215.724 653.156 212.882 653.156C210.04 653.156 207.931 654.885 207.989 657.229C207.931 659.455 209.835 660.979 212.882 660.979ZM212.882 650.93C215.284 650.93 217.042 649.465 217.042 647.326C217.042 645.217 215.372 643.781 212.882 643.781C210.362 643.781 208.722 645.217 208.722 647.326C208.722 649.465 210.45 650.93 212.882 650.93ZM230.929 663.293C226.212 663.293 223.517 659.338 223.517 652.395C223.517 645.51 226.271 641.496 230.929 641.496C235.587 641.496 238.341 645.51 238.341 652.395C238.341 659.338 235.616 663.293 230.929 663.293ZM230.929 660.949C233.976 660.949 235.763 657.873 235.763 652.395C235.763 646.916 233.976 643.781 230.929 643.781C227.882 643.781 226.065 646.916 226.065 652.395C226.065 657.873 227.853 660.949 230.929 660.949ZM248.8 663.293C244.083 663.293 241.388 659.338 241.388 652.395C241.388 645.51 244.142 641.496 248.8 641.496C253.458 641.496 256.212 645.51 256.212 652.395C256.212 659.338 253.487 663.293 248.8 663.293ZM248.8 660.949C251.847 660.949 253.634 657.873 253.634 652.395C253.634 646.916 251.847 643.781 248.8 643.781C245.753 643.781 243.937 646.916 243.937 652.395C243.937 657.873 245.724 660.949 248.8 660.949ZM271.944 641.701V653.684H259.903V641.701H271.944ZM262.159 643.576V651.838H269.718V643.576H262.159ZM279.151 639.328V647.268H283.077V649.201H279.151V658.43H276.866V639.328H279.151ZM280.353 662.883V664.816H262.862V656.613H265.118V662.883H280.353ZM313.722 639.357V659.133H311.407V656.438H306.017V654.768H311.407V639.357H313.722ZM314.366 662.883V664.816H295.851V657.199H298.165V662.883H314.366ZM292.101 651.428C296.964 651.398 303.468 651.369 309.063 650.666L309.21 652.336C306.881 652.702 304.449 652.937 302.062 653.068V658.225H299.747V653.186C297.11 653.303 294.605 653.317 292.423 653.303L292.101 651.428ZM300.655 640.412C304.464 640.412 307.071 642.229 307.101 644.953C307.071 647.736 304.464 649.465 300.655 649.465C296.817 649.465 294.21 647.736 294.21 644.953C294.21 642.229 296.817 640.412 300.655 640.412ZM300.655 642.17C298.106 642.141 296.378 643.283 296.407 644.953C296.378 646.652 298.106 647.766 300.655 647.766C303.116 647.766 304.874 646.652 304.903 644.953C304.874 643.283 303.116 642.141 300.655 642.17Z" fill="white"/>
</svg>
