<svg width="93" height="47" viewBox="0 0 93 47" fill="none" xmlns="http://www.w3.org/2000/svg">
<path d="M48.9109 28.4459V13.0347H52.1038V19.4205H58.7877V13.0347H62.0019V28.4459H58.7877V22.06H52.1038V28.4459H48.9109Z" fill="white"/>
<path d="M43.5467 17.4409C43.419 16.2276 42.4399 15.5039 40.886 15.5039C39.2682 15.5039 38.3742 16.2489 38.3529 17.2706C38.3316 18.3775 39.5024 18.8884 40.8221 19.1864L42.2057 19.527C44.8452 20.123 46.8248 21.464 46.8248 24.0396C46.8248 26.8707 44.6111 28.6588 40.8647 28.6588C37.1396 28.6588 34.7555 26.9346 34.6704 23.6352H37.7782C37.8846 25.1891 39.1192 25.9767 40.8221 25.9767C42.5037 25.9767 43.5893 25.1891 43.5893 24.0396C43.5893 22.9966 42.6314 22.507 40.9498 22.0813L39.2682 21.6769C36.6713 21.0383 35.0748 19.7398 35.0748 17.4835C35.0748 14.6737 37.544 12.8218 40.9073 12.8218C44.3131 12.8218 46.5694 14.7163 46.612 17.4409H43.5467Z" fill="white"/>
<path d="M22.4734 28.4459H19.025L24.3679 13.0347H28.4761L33.7977 28.4459H30.3706L29.2211 24.8911H23.6441L22.4734 28.4459ZM24.453 22.4006H28.4122L26.4752 16.5043H26.3688L24.453 22.4006Z" fill="white"/>
<path d="M3.1242 28.4459L0 15.5039H3.1242L4.80581 23.8055H4.93353L7.76459 11.1114H10.766L13.597 23.8268H13.7247L16.3217 11.1114H19.8126L15.4064 28.4459H12.2773L9.33978 18.2711H9.21206L6.25327 28.4459H3.1242Z" fill="white"/>
<rect x="7.05176" y="5.12872" width="3.20546" height="2.56436" fill="white"/>
<rect x="16.6689" y="5.12872" width="3.20546" height="2.56436" fill="white"/>
<rect x="16.6689" width="3.20546" height="2.56436" fill="white"/>
<rect x="23.0791" width="3.20546" height="2.56436" fill="white"/>
<path d="M1.22266 46.7996V32.2949H10.7789V34.7792H4.22777V38.3052H10.1579V40.7894H4.22777V46.7996H1.22266Z" fill="white"/>
<path d="M13.3633 46.7996H10.1178L15.1464 32.2949H19.0129L24.0215 46.7996H20.796L19.7141 43.4539H14.4652L13.3633 46.7996ZM15.2265 41.1099H18.9528L17.1297 35.5605H17.0296L15.2265 41.1099Z" fill="white"/>
<path d="M34.6796 37.3435C34.4392 35.7408 33.1971 34.7591 31.5142 34.7591C29.2504 34.7591 27.7678 36.5021 27.7678 39.5473C27.7678 42.6726 29.2704 44.3354 31.4942 44.3354C33.157 44.3354 34.3791 43.4139 34.6796 41.8512L37.7248 41.8712C37.3842 44.5558 35.1404 47 31.4541 47C27.5675 47 24.7026 44.2753 24.7026 39.5473C24.7026 34.8192 27.6276 32.0946 31.4541 32.0946C34.7998 32.0946 37.3241 34.0179 37.7248 37.3435H34.6796Z" fill="white"/>
<path d="M39.2674 34.7792V32.2949H51.1476V34.7792H46.7001V46.7996H43.715V34.7792H39.2674Z" fill="white"/>
<path d="M65.6523 39.5473C65.6523 44.2753 62.7073 47 58.8808 47C55.0142 47 52.0892 44.2553 52.0892 39.5473C52.0892 34.8192 55.0142 32.0946 58.8808 32.0946C62.7073 32.0946 65.6523 34.8192 65.6523 39.5473ZM62.5871 39.5473C62.5871 36.442 61.1246 34.7591 58.8808 34.7591C56.637 34.7591 55.1544 36.442 55.1544 39.5473C55.1544 42.6526 56.637 44.3354 58.8808 44.3354C61.1246 44.3354 62.5871 42.6526 62.5871 39.5473Z" fill="white"/>
<path d="M67.816 46.7996V32.2949H73.5057C76.8113 32.2949 78.6945 34.1581 78.6945 37.023C78.6945 39.0064 77.783 40.4488 76.1301 41.15L79.2154 46.7996H75.8897L73.125 41.6509H70.8211V46.7996H67.816ZM70.8211 39.2067H72.9447C74.7278 39.2067 75.5892 38.4654 75.5892 37.023C75.5892 35.5605 74.7278 34.7591 72.9447 34.7591H70.8211V39.2067Z" fill="white"/>
<path d="M79.2955 32.2949H82.6813L86.027 38.5456H86.1672L89.4929 32.2949H92.8787L87.5896 41.6308V46.7996H84.5845V41.6308L79.2955 32.2949Z" fill="white"/>
</svg>
