<svg width="316" height="420" viewBox="0 0 316 420" fill="none" xmlns="http://www.w3.org/2000/svg">
<path d="M0 3.70389C0 1.65829 1.65829 0 3.70388 0H311.126C313.172 0 314.83 1.65829 314.83 3.70388V354.091H0V3.70389Z" fill="white"/>
<path d="M0 3.70388C0 1.65828 1.65829 0 3.70388 0H311.126C313.172 0 314.83 1.65829 314.83 3.70388V60.0029H0V3.70388Z" fill="#9CF9DF"/>
<path d="M0 294.088H314.83V350.387C314.83 352.433 313.172 354.091 311.126 354.091H3.70388C1.65828 354.091 0 352.433 0 350.387V294.088Z" fill="#9CF9DF"/>
<line y1="59.2619" x2="314.83" y2="59.2619" stroke="#53D4B1" stroke-width="1.48155"/>
<path d="M37.5342 28.6345V35.7986H36.4541V35.1287H33.9932V34.4177H36.4541V28.6345H37.5342ZM27.4717 33.2146C29.8232 33.2283 32.8311 33.2009 35.4561 32.9138L35.5244 33.6111C34.335 33.782 33.0977 33.8845 31.8877 33.9392V35.8396H30.835V33.9802C29.6865 34.0212 28.5859 34.0281 27.5947 34.0212L27.4717 33.2146ZM37.5342 36.2361V38.7517H30.4385V39.8455H37.9307V40.6384H29.3857V37.9998H36.4678V37.0154H29.3311V36.2361H37.5342ZM31.4365 28.8669C33.2412 28.8669 34.4443 29.5779 34.458 30.699C34.4443 31.8337 33.2412 32.5173 31.4365 32.5173C29.6045 32.5173 28.415 31.8337 28.415 30.699C28.415 29.5779 29.6045 28.8669 31.4365 28.8669ZM31.4365 29.6189C30.2061 29.6189 29.4131 30.0427 29.4268 30.699C29.4131 31.3416 30.2061 31.7791 31.4365 31.7791C32.6533 31.7791 33.4463 31.3416 33.4463 30.699C33.4463 30.0427 32.6533 29.6189 31.4365 29.6189ZM53.5439 28.6208V40.7751H52.5049V34.3357H50.8096V40.1599H49.7842V28.8806H50.8096V33.447H52.5049V28.6208H53.5439ZM48.2256 30.0427V37.5076H43.5771V30.0427H48.2256ZM44.5889 30.9041V36.6462H47.2139V30.9041H44.5889ZM66.2998 34.0349V34.8689H61.2822V36.0037H64.8779V38.6287H57.6592V39.8181H65.2471V40.6384H56.5928V37.863H63.8252V36.8103H56.5654V36.0037H60.2295V34.8689H55.2393V34.0349H66.2998ZM61.2822 28.5525V29.6873H65.1787V30.5349H61.3643C61.5625 31.7449 63.4629 32.5105 65.6982 32.6541L65.3701 33.4744C63.3398 33.3035 61.5078 32.6746 60.7627 31.5193C60.0176 32.6746 58.1855 33.3035 56.1416 33.4744L55.8271 32.6541C58.0488 32.5105 59.9492 31.7449 60.1611 30.5349H56.374V29.6873H60.2295V28.5525H61.2822Z" fill="#222222"/>
<path d="M33.6104 318.454C33.6104 320.04 35.8252 321.489 37.9307 321.817L37.5068 322.665C35.6611 322.35 33.8359 321.325 33.0635 319.903C32.2979 321.352 30.4521 322.364 28.6064 322.678L28.1826 321.831C30.3018 321.502 32.5029 320.094 32.5029 318.454V317.838H33.6104V318.454ZM38.6279 323.717V324.606H33.6787V327.094H32.6123V324.606H27.499V323.717H38.6279ZM37.3838 328.516V329.418H28.9209V325.905H30.001V328.516H37.3838ZM53.1475 317.524V329.706H52.0674V317.524H53.1475ZM46.6807 318.467C48.4854 318.481 49.7842 320.122 49.7842 322.706C49.7842 325.29 48.4854 326.93 46.6807 326.93C44.8623 326.93 43.5771 325.29 43.5771 322.706C43.5771 320.122 44.8623 318.481 46.6807 318.467ZM46.6807 319.424C45.4639 319.438 44.6162 320.723 44.6162 322.706C44.6162 324.688 45.4639 325.973 46.6807 325.973C47.8975 325.973 48.7451 324.688 48.7451 322.706C48.7451 320.723 47.8975 319.438 46.6807 319.424ZM65.2607 325.413V329.678H64.1943V326.315H57.085V325.413H65.2607ZM65.2607 317.524V324.756H64.1943V317.524H65.2607ZM58.6982 318.262C60.5439 318.249 61.8838 319.438 61.8838 321.12C61.8838 322.829 60.5439 324.004 58.6982 324.004C56.8525 324.004 55.5127 322.829 55.5127 321.12C55.5127 319.438 56.8525 318.249 58.6982 318.262ZM58.6982 319.178C57.4541 319.178 56.5518 319.971 56.5654 321.12C56.5518 322.282 57.4541 323.088 58.6982 323.075C59.9287 323.088 60.8311 322.282 60.8311 321.12C60.8311 319.971 59.9287 319.178 58.6982 319.178Z" fill="#222222"/>
<path d="M23.6289 76.7852V83.9492H22.5488V83.2793H20.0879V82.5684H22.5488V76.7852H23.6289ZM13.5664 81.3652C15.918 81.3789 18.9258 81.3516 21.5508 81.0645L21.6191 81.7617C20.4297 81.9326 19.1924 82.0352 17.9824 82.0898V83.9902H16.9297V82.1309C15.7812 82.1719 14.6807 82.1787 13.6895 82.1719L13.5664 81.3652ZM23.6289 84.3867V86.9023H16.5332V87.9961H24.0254V88.7891H15.4805V86.1504H22.5625V85.166H15.4258V84.3867H23.6289ZM17.5312 77.0176C19.3359 77.0176 20.5391 77.7285 20.5527 78.8496C20.5391 79.9844 19.3359 80.668 17.5312 80.668C15.6992 80.668 14.5098 79.9844 14.5098 78.8496C14.5098 77.7285 15.6992 77.0176 17.5312 77.0176ZM17.5312 77.7695C16.3008 77.7695 15.5078 78.1934 15.5215 78.8496C15.5078 79.4922 16.3008 79.9297 17.5312 79.9297C18.748 79.9297 19.541 79.4922 19.541 78.8496C19.541 78.1934 18.748 77.7695 17.5312 77.7695ZM35.7422 76.7852V83.7305H34.6758V76.7852H35.7422ZM35.7422 84.3867V88.7617H27.8398V84.3867H35.7422ZM28.8926 85.2617V87.8867H34.6895V85.2617H28.8926ZM29.1797 77.4277C31.0254 77.4277 32.3652 78.5762 32.3652 80.2715C32.3652 81.9395 31.0254 83.1016 29.1797 83.1016C27.334 83.1016 25.9941 81.9395 25.9941 80.2715C25.9941 78.5762 27.334 77.4277 29.1797 77.4277ZM29.1797 78.3438C27.9355 78.3301 27.0332 79.1367 27.0469 80.2715C27.0332 81.3926 27.9355 82.1855 29.1797 82.1855C30.4102 82.1855 31.3125 81.3926 31.3125 80.2715C31.3125 79.1367 30.4102 78.3301 29.1797 78.3438ZM41.8535 80.7363C41.8535 82.6777 43.125 84.6738 44.8887 85.5215L44.2598 86.3555C42.9199 85.6992 41.8604 84.373 41.3613 82.8008C40.8281 84.4893 39.7002 85.9043 38.3125 86.5742L37.6973 85.7402C39.4746 84.9062 40.8008 82.8281 40.8145 80.7363V79.7656H38.0254V78.8906H40.8008V77.0039H41.8809V78.8906H44.6152V79.7656H41.8535V80.7363ZM47.2129 76.7715V81.7617H49.25V82.6777H47.2129V88.9258H46.1465V76.7715H47.2129ZM61.0352 86.5195V87.4219H49.9062V86.5195H53.0371V84.209H51.3008V80.4629H58.5742V78.5625H51.2734V77.6738H59.627V81.3516H52.3672V83.3203H59.9141V84.209H58.0137V86.5195H61.0352ZM54.0898 86.5195H56.9609V84.209H54.0898V86.5195ZM69.498 77.4551L66.2988 89.3086H65.2324L68.418 77.4551H69.498ZM80.4492 77.7148V78.3574C80.4355 79.1504 80.4355 80.3672 80.1348 81.9531L79.0547 81.8711C79.3486 80.415 79.376 79.3828 79.3965 78.6172H74.3926V77.7148H80.4492ZM77.3184 80.4082V83.0195C78.665 82.9648 80.0596 82.8691 81.3242 82.6914L81.3926 83.4844C78.8496 83.9219 75.9102 83.9766 73.75 83.9766L73.6406 83.0879C74.4268 83.0811 75.3154 83.0742 76.252 83.0469V80.4082H77.3184ZM83.2383 76.7715V80.7363H85.0156V81.6523H83.2383V85.918H82.1445V76.7715H83.2383ZM83.6348 87.7637V88.666H75.5137V85.0977H76.5938V87.7637H83.6348ZM95.8438 76.7715V88.9531H94.7773V76.7715H95.8438ZM92.1523 77.9062V82.2266H87.6133V85.0977C89.6299 85.0977 91.4277 85.0088 93.6016 84.6602L93.7109 85.5625C91.4688 85.918 89.623 86 87.5312 86H86.5195V81.3516H91.0723V78.7949H86.4922V77.9062H92.1523ZM107.93 76.7715V88.9531H106.85V76.7715H107.93ZM99.6855 77.8105V81.0234H103.309V77.8105H104.361V86.0137H98.6191V77.8105H99.6855ZM99.6855 85.1113H103.309V81.8848H99.6855V85.1113Z" fill="#222222"/>
<path d="M24.6934 114.565V123.451H23.627V114.565H24.6934ZM25.0762 125.543V126.446H16.8457V122.549H17.9121V125.543H25.0762ZM18.1309 115.412C19.9492 115.412 21.3164 116.643 21.3164 118.393C21.3164 120.17 19.9492 121.387 18.1309 121.387C16.3125 121.387 14.9453 120.17 14.9453 118.393C14.9453 116.643 16.3125 115.412 18.1309 115.412ZM18.1309 116.356C16.9004 116.356 15.9844 117.203 15.998 118.393C15.9844 119.61 16.9004 120.444 18.1309 120.444C19.334 120.444 20.2637 119.61 20.2637 118.393C20.2637 117.203 19.334 116.356 18.1309 116.356ZM36.834 114.565V123.547H35.7539V119.213H33.0605V118.311H35.7539V114.565H36.834ZM33.1152 115.494C33.1016 118.612 30.873 120.99 27.4141 122.125L26.9492 121.264C29.752 120.341 31.7002 118.598 31.9395 116.397H27.5645V115.494H33.1152ZM37.1484 125.543V126.446H29.0957V122.631H30.1895V125.543H37.1484ZM48.8789 114.551V126.733H47.7988V114.551H48.8789ZM40.6348 115.59V118.803H44.2578V115.59H45.3105V123.793H39.5684V115.59H40.6348ZM40.6348 122.891H44.2578V119.664H40.6348V122.891Z" fill="#222222"/>
<path d="M262.195 77.9199V87.8184H260.951V79.2051H260.896L258.49 80.8047V79.5605L260.951 77.9199H262.195ZM268.074 87.9551C265.873 87.9551 264.615 86.1094 264.615 82.8691C264.615 79.6562 265.9 77.7832 268.074 77.7832C270.248 77.7832 271.533 79.6562 271.533 82.8691C271.533 86.1094 270.262 87.9551 268.074 87.9551ZM268.074 86.8613C269.496 86.8613 270.33 85.4258 270.33 82.8691C270.33 80.3125 269.496 78.8496 268.074 78.8496C266.652 78.8496 265.805 80.3125 265.805 82.8691C265.805 85.4258 266.639 86.8613 268.074 86.8613ZM276.414 87.9551C274.213 87.9551 272.955 86.1094 272.955 82.8691C272.955 79.6562 274.24 77.7832 276.414 77.7832C278.588 77.7832 279.873 79.6562 279.873 82.8691C279.873 86.1094 278.602 87.9551 276.414 87.9551ZM276.414 86.8613C277.836 86.8613 278.67 85.4258 278.67 82.8691C278.67 80.3125 277.836 78.8496 276.414 78.8496C274.992 78.8496 274.145 80.3125 274.145 82.8691C274.145 85.4258 274.979 86.8613 276.414 86.8613ZM287.215 77.8789V83.4707H281.596V77.8789H287.215ZM282.648 78.7539V82.6094H286.176V78.7539H282.648ZM290.578 76.7715V80.4766H292.41V81.3789H290.578V85.6855H289.512V76.7715H290.578ZM291.139 87.7637V88.666H282.977V84.8379H284.029V87.7637H291.139ZM306.711 76.7852V86.0137H305.631V84.7559H303.115V83.9766H305.631V76.7852H306.711ZM307.012 87.7637V88.666H298.371V85.1113H299.451V87.7637H307.012ZM296.621 82.418C298.891 82.4043 301.926 82.3906 304.537 82.0625L304.605 82.8418C303.519 83.0127 302.384 83.1221 301.27 83.1836V85.5898H300.189V83.2383C298.959 83.293 297.79 83.2998 296.771 83.293L296.621 82.418ZM300.613 77.2773C302.391 77.2773 303.607 78.125 303.621 79.3965C303.607 80.6953 302.391 81.502 300.613 81.502C298.822 81.502 297.605 80.6953 297.605 79.3965C297.605 78.125 298.822 77.2773 300.613 77.2773ZM300.613 78.0977C299.424 78.084 298.617 78.6172 298.631 79.3965C298.617 80.1895 299.424 80.709 300.613 80.709C301.762 80.709 302.582 80.1895 302.596 79.3965C302.582 78.6172 301.762 78.084 300.613 78.0977Z" fill="#222222"/>
<path d="M264.22 162.033C262.142 162.033 260.692 160.885 260.706 159.271C260.692 157.986 261.581 156.933 262.716 156.756V156.701C261.731 156.469 261.089 155.566 261.089 154.486C261.089 152.969 262.415 151.861 264.22 151.861C266.024 151.861 267.351 152.969 267.364 154.486C267.351 155.566 266.694 156.469 265.724 156.701V156.756C266.845 156.933 267.733 157.986 267.747 159.271C267.733 160.885 266.284 162.033 264.22 162.033ZM264.22 160.953C265.642 160.953 266.517 160.242 266.517 159.203C266.517 158.109 265.546 157.302 264.22 157.302C262.894 157.302 261.909 158.109 261.937 159.203C261.909 160.242 262.798 160.953 264.22 160.953ZM264.22 156.263C265.341 156.263 266.161 155.58 266.161 154.582C266.161 153.597 265.382 152.927 264.22 152.927C263.044 152.927 262.278 153.597 262.278 154.582C262.278 155.58 263.085 156.263 264.22 156.263ZM272.642 162.033C270.44 162.033 269.183 160.187 269.183 156.947C269.183 153.734 270.468 151.861 272.642 151.861C274.815 151.861 276.101 153.734 276.101 156.947C276.101 160.187 274.829 162.033 272.642 162.033ZM272.642 160.939C274.063 160.939 274.897 159.504 274.897 156.947C274.897 154.39 274.063 152.927 272.642 152.927C271.22 152.927 270.372 154.39 270.372 156.947C270.372 159.504 271.206 160.939 272.642 160.939ZM283.442 151.957V157.549H277.823V151.957H283.442ZM278.876 152.832V156.687H282.403V152.832H278.876ZM286.806 150.849V154.554H288.638V155.457H286.806V159.763H285.739V150.849H286.806ZM287.366 161.842V162.744H279.204V158.916H280.257V161.842H287.366ZM302.938 150.863V160.092H301.858V158.834H299.343V158.054H301.858V150.863H302.938ZM303.239 161.842V162.744H294.599V159.189H295.679V161.842H303.239ZM292.849 156.496C295.118 156.482 298.153 156.469 300.765 156.14L300.833 156.92C299.746 157.091 298.611 157.2 297.497 157.261V159.668H296.417V157.316C295.187 157.371 294.018 157.378 292.999 157.371L292.849 156.496ZM296.841 151.355C298.618 151.355 299.835 152.203 299.849 153.474C299.835 154.773 298.618 155.58 296.841 155.58C295.05 155.58 293.833 154.773 293.833 153.474C293.833 152.203 295.05 151.355 296.841 151.355ZM296.841 152.176C295.651 152.162 294.845 152.695 294.858 153.474C294.845 154.267 295.651 154.787 296.841 154.787C297.989 154.787 298.81 154.267 298.823 153.474C298.81 152.695 297.989 152.162 296.841 152.176Z" fill="#222222"/>
<path d="M261.789 201.157L261.775 200.255L265.152 196.7C266.328 195.456 266.889 194.786 266.889 193.87C266.889 192.858 266.027 192.188 264.92 192.188C263.744 192.188 262.992 192.94 262.992 194.048H261.83C261.816 192.298 263.17 191.122 264.961 191.122C266.752 191.122 268.037 192.325 268.037 193.87C268.037 194.978 267.518 195.839 265.768 197.644L263.498 199.981V200.063H268.215V201.157H261.789ZM273.246 201.294C271.045 201.294 269.787 199.448 269.787 196.208C269.787 192.995 271.072 191.122 273.246 191.122C275.42 191.122 276.705 192.995 276.705 196.208C276.705 199.448 275.434 201.294 273.246 201.294ZM273.246 200.2C274.668 200.2 275.502 198.765 275.502 196.208C275.502 193.651 274.668 192.188 273.246 192.188C271.824 192.188 270.977 193.651 270.977 196.208C270.977 198.765 271.811 200.2 273.246 200.2ZM284.047 191.218V196.81H278.428V191.218H284.047ZM279.48 192.093V195.948H283.008V192.093H279.48ZM287.41 190.11V193.815H289.242V194.718H287.41V199.024H286.344V190.11H287.41ZM287.971 201.103V202.005H279.809V198.177H280.861V201.103H287.971ZM303.543 190.124V199.353H302.463V198.095H299.947V197.315H302.463V190.124H303.543ZM303.844 201.103V202.005H295.203V198.45H296.283V201.103H303.844ZM293.453 195.757C295.723 195.743 298.758 195.729 301.369 195.401L301.438 196.181C300.351 196.352 299.216 196.461 298.102 196.522V198.929H297.021V196.577C295.791 196.632 294.622 196.639 293.604 196.632L293.453 195.757ZM297.445 190.616C299.223 190.616 300.439 191.464 300.453 192.735C300.439 194.034 299.223 194.841 297.445 194.841C295.654 194.841 294.438 194.034 294.438 192.735C294.438 191.464 295.654 190.616 297.445 190.616ZM297.445 191.437C296.256 191.423 295.449 191.956 295.463 192.735C295.449 193.528 296.256 194.048 297.445 194.048C298.594 194.048 299.414 193.528 299.428 192.735C299.414 191.956 298.594 191.423 297.445 191.437Z" fill="#222222"/>
<path d="M263.036 229.038V238.937H261.792V230.323H261.737L259.331 231.923V230.679L261.792 229.038H263.036ZM269.175 229.038V238.937H267.931V230.323H267.876L265.47 231.923V230.679L267.931 229.038H269.175ZM275.054 239.073C272.853 239.073 271.595 237.228 271.595 233.988C271.595 230.775 272.88 228.902 275.054 228.902C277.228 228.902 278.513 230.775 278.513 233.988C278.513 237.228 277.241 239.073 275.054 239.073ZM275.054 237.98C276.476 237.98 277.31 236.544 277.31 233.988C277.31 231.431 276.476 229.968 275.054 229.968C273.632 229.968 272.784 231.431 272.784 233.988C272.784 236.544 273.618 237.98 275.054 237.98ZM285.854 228.997V234.589H280.235V228.997H285.854ZM281.288 229.872V233.728H284.815V229.872H281.288ZM289.218 227.89V231.595H291.05V232.497H289.218V236.804H288.151V227.89H289.218ZM289.778 238.882V239.784H281.616V235.956H282.669V238.882H289.778ZM305.351 227.904V237.132H304.271V235.874H301.755V235.095H304.271V227.904H305.351ZM305.651 238.882V239.784H297.011V236.23H298.091V238.882H305.651ZM295.261 233.536C297.53 233.523 300.565 233.509 303.177 233.181L303.245 233.96C302.158 234.131 301.023 234.24 299.909 234.302V236.708H298.829V234.357C297.599 234.411 296.43 234.418 295.411 234.411L295.261 233.536ZM299.253 228.396C301.03 228.396 302.247 229.243 302.261 230.515C302.247 231.814 301.03 232.62 299.253 232.62C297.462 232.62 296.245 231.814 296.245 230.515C296.245 229.243 297.462 228.396 299.253 228.396ZM299.253 229.216C298.063 229.202 297.257 229.736 297.271 230.515C297.257 231.308 298.063 231.827 299.253 231.827C300.401 231.827 301.222 231.308 301.235 230.515C301.222 229.736 300.401 229.202 299.253 229.216Z" fill="#222222"/>
<path d="M268.842 124.994C266.641 124.994 265.383 123.148 265.383 119.908C265.383 116.695 266.668 114.822 268.842 114.822C271.016 114.822 272.301 116.695 272.301 119.908C272.301 123.148 271.029 124.994 268.842 124.994ZM268.842 123.9C270.264 123.9 271.098 122.465 271.098 119.908C271.098 117.352 270.264 115.889 268.842 115.889C267.42 115.889 266.572 117.352 266.572 119.908C266.572 122.465 267.406 123.9 268.842 123.9ZM279.643 114.918V120.51H274.023V114.918H279.643ZM275.076 115.793V119.648H278.604V115.793H275.076ZM283.006 113.811V117.516H284.838V118.418H283.006V122.725H281.939V113.811H283.006ZM283.566 124.803V125.705H275.404V121.877H276.457V124.803H283.566ZM299.139 113.824V123.053H298.059V121.795H295.543V121.016H298.059V113.824H299.139ZM299.439 124.803V125.705H290.799V122.15H291.879V124.803H299.439ZM289.049 119.457C291.318 119.443 294.354 119.43 296.965 119.102L297.033 119.881C295.946 120.052 294.812 120.161 293.697 120.223V122.629H292.617V120.277C291.387 120.332 290.218 120.339 289.199 120.332L289.049 119.457ZM293.041 114.316C294.818 114.316 296.035 115.164 296.049 116.436C296.035 117.734 294.818 118.541 293.041 118.541C291.25 118.541 290.033 117.734 290.033 116.436C290.033 115.164 291.25 114.316 293.041 114.316ZM293.041 115.137C291.852 115.123 291.045 115.656 291.059 116.436C291.045 117.229 291.852 117.748 293.041 117.748C294.189 117.748 295.01 117.229 295.023 116.436C295.01 115.656 294.189 115.123 293.041 115.137Z" fill="#222222"/>
<path d="M25.7871 162.01V162.899H14.6582V162.01H19.6348V159.03H20.6875V162.01H25.7871ZM20.7148 154.094C20.7148 156.131 23.1211 157.909 25.2402 158.278L24.7617 159.167C22.9092 158.791 20.9541 157.533 20.168 155.776C19.3682 157.526 17.4268 158.791 15.5742 159.167L15.0957 158.278C17.2148 157.909 19.5938 156.131 19.5938 154.094V153.165H20.7148V154.094ZM37.8867 162.024V162.926H26.7578V162.024H31.7617V159.057H28.0703V153.356H36.5059V159.057H32.8145V162.024H37.8867ZM29.123 154.217V158.196H35.4668V154.217H29.123ZM49.9316 158.209V159.098H44.9141V160.534H48.5781V164.321H40.2109V160.534H43.8613V159.098H38.8574V158.209H49.9316ZM48.8789 152.727V153.616H47.0059V156.172H48.8379V157.061H39.9375V156.172H41.7695V153.616H39.8965V152.727H48.8789ZM41.2773 161.381V163.446H47.5254V161.381H41.2773ZM42.8359 156.172H45.9395V153.616H42.8359V156.172Z" fill="#222222"/>
<path d="M17.0205 193.569C17.0205 195.497 17.9639 197.589 19.5771 198.546L18.9619 199.38C17.793 198.669 16.9521 197.37 16.5283 195.894C16.0771 197.507 15.1748 198.895 13.958 199.64L13.2744 198.833C14.9561 197.849 15.9814 195.688 15.9814 193.61V191.259H17.0205V193.569ZM23.8291 190.11V202.265H22.79V190.11H23.8291ZM21.3135 190.37V201.649H20.3018V195.388H18.2373V194.472H20.3018V190.37H21.3135ZM35.1768 190.767V191.669C35.1768 192.612 35.1768 193.72 34.8623 195.237H36.6396V196.126H25.5107V195.237H33.7822C34.1104 193.713 34.1104 192.612 34.1104 191.669V191.655H26.9189V190.767H35.1768ZM35.2314 197.808V202.101H26.8779V197.808H35.2314ZM27.9443 198.655V201.226H34.165V198.655H27.9443ZM39.6064 200.241L38.54 203.96H37.5283L38.2803 200.241H39.6064ZM51.0088 191.382C50.9951 194.896 49.8057 198.108 45.4307 200.255L44.8291 199.435C47.1191 198.327 48.4932 196.919 49.2314 195.278L45.0615 195.675L44.8838 194.731L49.5596 194.417C49.7715 193.733 49.8945 193.016 49.9424 192.271H45.499V191.382H51.0088ZM54.1123 190.11V195.06H56.0811V195.962H54.1123V202.265H53.0459V190.11H54.1123ZM66.6221 195.962V196.851H58.2275V191.245H66.499V192.134H59.2939V195.962H66.6221ZM67.9346 199.708V200.61H56.8057V199.708H67.9346ZM75.0029 191.245C75.0029 192.954 77.2451 194.444 79.4326 194.745L78.9951 195.62C77.1084 195.306 75.2422 194.26 74.4561 192.763C73.6768 194.267 71.8037 195.306 69.917 195.62L69.4795 194.745C71.667 194.444 73.8955 192.981 73.8955 191.245V190.548H75.0029V191.245ZM79.9795 196.96V197.862H74.9482V202.265H73.8955V197.862H68.9053V196.96H79.9795ZM87.1025 191.245C87.1025 192.954 89.3447 194.444 91.5322 194.745L91.0947 195.62C89.208 195.306 87.3418 194.26 86.5557 192.763C85.7764 194.267 83.9033 195.306 82.0166 195.62L81.5791 194.745C83.7666 194.444 85.9951 192.981 85.9951 191.245V190.548H87.1025V191.245ZM92.0791 196.96V197.862H87.0479V202.265H85.9951V197.862H81.0049V196.96H92.0791ZM104.233 199.858V200.761H93.1045V199.858H96.2354V197.548H94.499V193.802H101.772V191.901H94.4717V191.013H102.825V194.69H95.5654V196.659H103.112V197.548H101.212V199.858H104.233ZM97.2881 199.858H100.159V197.548H97.2881V199.858Z" fill="#222222"/>
<path d="M23.5869 227.904V236.818H22.5068V232.156H20.0049V231.267H22.5068V227.904H23.5869ZM23.9287 238.882V239.784H15.7803V236.011H16.8604V238.882H23.9287ZM17.7354 230.406C17.7354 231.978 18.9521 233.509 20.7295 234.111L20.1689 234.972C18.7949 234.48 17.7354 233.454 17.2158 232.197C16.6895 233.598 15.5684 234.719 14.126 235.259L13.5654 234.384C15.3564 233.755 16.6553 232.156 16.6553 230.406V229.777H13.9072V228.888H20.4561V229.777H17.7354V230.406ZM35.6592 227.89V240.044H34.5791V227.89H35.6592ZM32.0635 229.216C32.0498 232.716 30.4229 235.806 26.3486 237.761L25.7607 236.886C29.0488 235.327 30.7236 232.996 30.9697 230.091H26.3213V229.216H32.0635ZM39.7061 238.021L38.6396 241.74H37.6279L38.3799 238.021H39.7061ZM50.9033 229.025C50.9033 230.734 53.1455 232.224 55.333 232.525L54.8955 233.4C53.0088 233.085 51.1426 232.039 50.3564 230.542C49.5771 232.046 47.7041 233.085 45.8174 233.4L45.3799 232.525C47.5674 232.224 49.7959 230.761 49.7959 229.025V228.327H50.9033V229.025ZM55.8799 234.74V235.642H50.8486V240.044H49.7959V235.642H44.8057V234.74H55.8799ZM66.7217 233.591V234.466H62.9619V237.611H68.0342V238.513H56.9053V237.611H61.9092V234.466H58.3271V228.888H66.5986V229.763H59.4072V233.591H66.7217ZM72.6143 231.349C72.6143 233.277 73.5576 235.368 75.1709 236.325L74.5557 237.159C73.3867 236.448 72.5459 235.15 72.1221 233.673C71.6709 235.286 70.7686 236.674 69.5518 237.419L68.8682 236.613C70.5498 235.628 71.5752 233.468 71.5752 231.39V229.038H72.6143V231.349ZM79.4229 227.89V240.044H78.3838V227.89H79.4229ZM76.9072 228.15V239.429H75.8955V233.167H73.8311V232.251H75.8955V228.15H76.9072Z" fill="#222222"/>
<path d="M23.7393 265.683V274.57H22.6729V265.683H23.7393ZM24.1221 276.662V277.564H15.8916V273.667H16.958V276.662H24.1221ZM17.1768 266.531C18.9951 266.531 20.3623 267.761 20.3623 269.511C20.3623 271.289 18.9951 272.505 17.1768 272.505C15.3584 272.505 13.9912 271.289 13.9912 269.511C13.9912 267.761 15.3584 266.531 17.1768 266.531ZM17.1768 267.474C15.9463 267.474 15.0303 268.322 15.0439 269.511C15.0303 270.728 15.9463 271.562 17.1768 271.562C18.3799 271.562 19.3096 270.728 19.3096 269.511C19.3096 268.322 18.3799 267.474 17.1768 267.474ZM35.8799 265.669V277.851H34.8135V271.152H32.2432V270.263H34.8135V265.669H35.8799ZM32.0381 266.791V267.679H27.4443V270.208H31.5049V271.083H27.4443V274.023C29.6797 274.023 31.1016 273.948 32.7764 273.654L32.8994 274.542C31.1357 274.83 29.6455 274.912 27.2939 274.912H26.3643V266.791H32.0381ZM39.626 266.777V271.48C40.8906 271.466 42.1621 271.384 43.6045 271.083L43.7139 271.972C42.0869 272.314 40.7471 272.396 39.3252 272.396H38.5596V266.777H39.626ZM48.2529 265.683V273.914H47.2275V265.683H48.2529ZM45.8193 265.929V272.82H44.7939V269.333H42.1689V268.458H44.7939V265.929H45.8193ZM44.7119 273.722C44.7119 275.322 46.7627 276.621 48.8818 276.935L48.4717 277.769C46.6533 277.461 44.9238 276.539 44.1787 275.185C43.4336 276.539 41.7041 277.461 39.8857 277.769L39.4756 276.935C41.5947 276.621 43.6455 275.322 43.6455 273.722V273.271H44.7119V273.722ZM51.999 275.8L50.9326 279.519H49.9209L50.6729 275.8H51.999ZM68.2275 275.376V276.265H57.0986V275.376H62.1025V272.751H58.4111V266.531H59.4912V268.732H65.8076V266.531H66.8604V272.751H63.1553V275.376H68.2275ZM59.4912 271.876H65.8076V269.607H59.4912V271.876ZM79.2744 265.669V273.039H78.1943V270.263H76.1299V269.375H78.1943V265.669H79.2744ZM79.2744 273.695V277.66H71.3311V273.695H79.2744ZM72.3975 274.556V276.785H78.2217V274.556H72.3975ZM76.3076 266.955V267.83H69.2119V266.955H72.2334V265.56H73.2861V266.955H76.3076ZM72.7529 268.458C74.4072 268.458 75.5693 269.347 75.583 270.619C75.5693 271.931 74.4072 272.792 72.7529 272.792C71.0986 272.792 69.9365 271.931 69.9365 270.619C69.9365 269.347 71.0986 268.458 72.7529 268.458ZM72.7529 269.292C71.7002 269.292 70.9619 269.839 70.9619 270.619C70.9619 271.425 71.7002 271.958 72.7529 271.972C73.8057 271.958 74.5439 271.425 74.5439 270.619C74.5439 269.839 73.8057 269.292 72.7529 269.292ZM95.8994 271.453V272.355H84.8115V271.453H95.8994ZM94.6006 269.416V270.291H86.2197V266.162H94.5186V267.064H87.2725V269.416H94.6006ZM90.3486 273.421C92.96 273.421 94.5186 274.214 94.5322 275.609C94.5186 277.017 92.96 277.796 90.3486 277.796C87.7236 277.796 86.1514 277.017 86.1514 275.609C86.1514 274.214 87.7236 273.421 90.3486 273.421ZM90.3486 274.255C88.3936 274.269 87.2314 274.761 87.2451 275.609C87.2314 276.47 88.3936 276.949 90.3486 276.949C92.2764 276.949 93.4521 276.47 93.4521 275.609C93.4521 274.761 92.2764 274.269 90.3486 274.255Z" fill="#222222"/>
<path d="M194.618 44.293C190.194 44.293 186.972 41.6855 186.884 38.0234H191.161C191.249 39.6934 192.772 40.8066 194.618 40.8066C196.815 40.8066 198.368 39.2539 198.368 37.0566C198.368 34.8008 196.786 33.248 194.56 33.2188C192.978 33.2188 191.864 33.8047 191.22 35.0059H187.235L188.378 22.7891H201.444V26.3926H192.011L191.425 31.7539H191.601C192.392 30.6992 193.974 29.9668 195.849 29.9668C199.745 29.9668 202.646 32.8672 202.646 36.9395C202.646 41.2168 199.394 44.293 194.618 44.293ZM213.603 44.293C208.769 44.293 205.282 41.7441 205.282 38.2871C205.282 35.6211 207.333 33.4531 209.97 33.043V32.8965C207.685 32.457 206.103 30.5234 206.103 28.209C206.103 24.8984 209.267 22.4961 213.603 22.4961C217.938 22.4961 221.103 24.8984 221.132 28.209C221.103 30.5527 219.491 32.457 217.265 32.8965V33.043C219.843 33.4531 221.923 35.6211 221.923 38.2871C221.923 41.7441 218.437 44.293 213.603 44.293ZM213.603 40.9238C215.829 40.9238 217.323 39.6641 217.323 37.8477C217.323 36.002 215.771 34.6543 213.603 34.6543C211.435 34.6543 209.853 36.002 209.882 37.8477C209.853 39.6641 211.347 40.9238 213.603 40.9238ZM213.603 31.5488C215.478 31.5488 216.825 30.3477 216.825 28.6484C216.825 27.0078 215.507 25.8359 213.603 25.8359C211.698 25.8359 210.409 26.9785 210.409 28.6484C210.409 30.3477 211.728 31.5488 213.603 31.5488ZM233.173 44.293C227.87 44.293 224.647 40.3379 224.647 33.3945C224.647 26.4512 227.87 22.4961 233.173 22.4961C238.476 22.4961 241.698 26.4805 241.698 33.3945C241.698 40.3672 238.476 44.293 233.173 44.293ZM233.173 40.6602C235.634 40.6602 237.216 38.2871 237.187 33.3945C237.187 28.5605 235.634 26.0996 233.173 26.0996C230.712 26.0996 229.159 28.5605 229.159 33.3945C229.13 38.2871 230.712 40.6602 233.173 40.6602ZM257.46 22.2324V35.0352H244.657V22.2324H257.46ZM248.349 25.2207V32.1055H253.769V25.2207H248.349ZM265.019 20.0352V27.7109H268.622V30.7871H265.019V39.4883H261.269V20.0352H265.019ZM265.985 43.2383V46.2266H247.733V37.584H251.454V43.2383H265.985ZM299.296 20.0645V40.1914H295.546V38.082H290.448V35.5332H295.546V20.0645H299.296ZM299.882 43.2383V46.2266H280.019V38.2578H283.739V34.7129C281.352 34.8154 279.081 34.8301 277.06 34.8301L276.62 31.8711C281.513 31.8418 288.104 31.7832 293.729 31.0801L293.935 33.7461C291.825 34.0977 289.643 34.3467 287.489 34.5078V39.5762H283.739V43.2383H299.882ZM285.292 20.9727C289.159 20.9434 291.942 22.9062 291.942 25.748C291.942 28.5898 289.159 30.4355 285.292 30.4355C281.337 30.4355 278.583 28.5898 278.583 25.748C278.583 22.9062 281.308 20.9434 285.292 20.9727ZM285.292 23.6973C283.388 23.6973 282.099 24.4297 282.128 25.748C282.099 27.0371 283.388 27.7402 285.292 27.7402C287.079 27.7402 288.368 27.0371 288.397 25.748C288.368 24.4297 287.079 23.6973 285.292 23.6973Z" fill="#0AC290"/>
<line x1="124.45" y1="82.5964" x2="243.715" y2="82.5964" stroke="black" stroke-width="0.740777" stroke-dasharray="1.48 1.48"/>
<line x1="85.1885" y1="119.635" x2="243.715" y2="119.635" stroke="black" stroke-width="0.740777" stroke-dasharray="1.48 1.48"/>
<line x1="85.1885" y1="157.415" x2="243.715" y2="157.415" stroke="black" stroke-width="0.740777" stroke-dasharray="1.48 1.48"/>
<line x1="124.45" y1="195.935" x2="243.715" y2="195.935" stroke="black" stroke-width="0.740777" stroke-dasharray="1.48 1.48"/>
<line x1="102.968" y1="233.715" x2="240.752" y2="233.715" stroke="black" stroke-width="0.740777" stroke-dasharray="1.48 1.48"/>
<line x1="121.488" y1="271.494" x2="240.753" y2="271.494" stroke="black" stroke-width="0.740777" stroke-dasharray="1.48 1.48"/>
<g filter="url(#filter0_d_742_115)">
<ellipse cx="229.617" cy="330.92" rx="42.5061" ry="40.9318" fill="white"/>
</g>
<mask id="path-26-outside-1_742_115" maskUnits="userSpaceOnUse" x="138.022" y="256.33" width="160.926" height="167.784" fill="black">
<rect fill="white" x="138.022" y="256.33" width="160.926" height="167.784"/>
<path d="M281.607 366.83C275.959 376.033 267.982 383.526 258.472 388.562C248.963 393.599 238.252 396.003 227.408 395.535C216.563 395.066 205.963 391.742 196.665 385.894C187.366 380.045 179.694 371.877 174.411 362.202C169.129 352.526 166.422 341.683 166.559 330.751C166.696 319.82 169.673 309.182 175.193 299.898C180.713 290.614 188.584 283.008 198.02 277.838C207.457 272.668 218.131 270.115 228.977 270.432L228.837 295.083C222.264 294.891 215.796 296.439 210.077 299.572C204.358 302.705 199.589 307.314 196.243 312.94C192.898 318.566 191.094 325.012 191.011 331.637C190.928 338.261 192.569 344.833 195.77 350.696C198.971 356.559 203.621 361.509 209.255 365.053C214.89 368.597 221.314 370.612 227.885 370.896C234.457 371.179 240.948 369.723 246.711 366.67C252.474 363.618 257.307 359.077 260.73 353.5L281.607 366.83Z"/>
</mask>
<path d="M281.607 366.83C275.959 376.033 267.982 383.526 258.472 388.562C248.963 393.599 238.252 396.003 227.408 395.535C216.563 395.066 205.963 391.742 196.665 385.894C187.366 380.045 179.694 371.877 174.411 362.202C169.129 352.526 166.422 341.683 166.559 330.751C166.696 319.82 169.673 309.182 175.193 299.898C180.713 290.614 188.584 283.008 198.02 277.838C207.457 272.668 218.131 270.115 228.977 270.432L228.837 295.083C222.264 294.891 215.796 296.439 210.077 299.572C204.358 302.705 199.589 307.314 196.243 312.94C192.898 318.566 191.094 325.012 191.011 331.637C190.928 338.261 192.569 344.833 195.77 350.696C198.971 356.559 203.621 361.509 209.255 365.053C214.89 368.597 221.314 370.612 227.885 370.896C234.457 371.179 240.948 369.723 246.711 366.67C252.474 363.618 257.307 359.077 260.73 353.5L281.607 366.83Z" fill="#D6FFF4"/>
<path d="M281.607 366.83C275.959 376.033 267.982 383.526 258.472 388.562C248.963 393.599 238.252 396.003 227.408 395.535C216.563 395.066 205.963 391.742 196.665 385.894C187.366 380.045 179.694 371.877 174.411 362.202C169.129 352.526 166.422 341.683 166.559 330.751C166.696 319.82 169.673 309.182 175.193 299.898C180.713 290.614 188.584 283.008 198.02 277.838C207.457 272.668 218.131 270.115 228.977 270.432L228.837 295.083C222.264 294.891 215.796 296.439 210.077 299.572C204.358 302.705 199.589 307.314 196.243 312.94C192.898 318.566 191.094 325.012 191.011 331.637C190.928 338.261 192.569 344.833 195.77 350.696C198.971 356.559 203.621 361.509 209.255 365.053C214.89 368.597 221.314 370.612 227.885 370.896C234.457 371.179 240.948 369.723 246.711 366.67C252.474 363.618 257.307 359.077 260.73 353.5L281.607 366.83Z" stroke="white" stroke-width="4.44466" mask="url(#path-26-outside-1_742_115)"/>
<mask id="path-27-outside-2_742_115" maskUnits="userSpaceOnUse" x="206.575" y="250.99" width="109.979" height="125.411" fill="black">
<rect fill="white" x="206.575" y="250.99" width="109.979" height="125.411"/>
<path d="M228.953 270.432C239.872 270.747 250.582 273.96 260.003 279.746C269.424 285.533 277.222 293.689 282.609 303.391C287.997 313.092 290.784 323.997 290.688 335.003C290.593 346.009 287.619 356.727 282.067 366.076L261.034 353.059C264.401 347.389 266.205 340.889 266.262 334.215C266.32 327.54 264.63 320.927 261.363 315.044C258.095 309.16 253.367 304.214 247.653 300.705C241.94 297.195 235.445 295.247 228.823 295.056L228.953 270.432Z"/>
</mask>
<path d="M228.953 270.432C239.872 270.747 250.582 273.96 260.003 279.746C269.424 285.533 277.222 293.689 282.609 303.391C287.997 313.092 290.784 323.997 290.688 335.003C290.593 346.009 287.619 356.727 282.067 366.076L261.034 353.059C264.401 347.389 266.205 340.889 266.262 334.215C266.32 327.54 264.63 320.927 261.363 315.044C258.095 309.16 253.367 304.214 247.653 300.705C241.94 297.195 235.445 295.247 228.823 295.056L228.953 270.432Z" fill="#53D4B1"/>
<path d="M228.953 270.432C239.872 270.747 250.582 273.96 260.003 279.746C269.424 285.533 277.222 293.689 282.609 303.391C287.997 313.092 290.784 323.997 290.688 335.003C290.593 346.009 287.619 356.727 282.067 366.076L261.034 353.059C264.401 347.389 266.205 340.889 266.262 334.215C266.32 327.54 264.63 320.927 261.363 315.044C258.095 309.16 253.367 304.214 247.653 300.705C241.94 297.195 235.445 295.247 228.823 295.056L228.953 270.432Z" stroke="white" stroke-width="4.44466" mask="url(#path-27-outside-2_742_115)"/>
<path d="M215.622 315.432C215.622 316.564 217.204 317.6 218.708 317.834L218.405 318.439C217.087 318.215 215.783 317.482 215.232 316.467C214.685 317.502 213.366 318.225 212.048 318.449L211.745 317.844C213.259 317.609 214.831 316.604 214.831 315.432V314.992H215.622V315.432ZM219.206 319.191V319.826H215.671V321.604H214.909V319.826H211.257V319.191H219.206ZM218.318 322.619V323.264H212.273V320.754H213.044V322.619H218.318ZM224.265 315.578C224.265 316.799 225.866 317.863 227.429 318.078L227.116 318.703C225.769 318.479 224.436 317.731 223.874 316.662C223.318 317.736 221.98 318.479 220.632 318.703L220.319 318.078C221.882 317.863 223.474 316.818 223.474 315.578V315.08H224.265V315.578ZM227.819 319.66V320.305H224.226V323.449H223.474V320.305H219.909V319.66H227.819ZM235.72 320.402V323.449H234.958V321.047H229.88V320.402H235.72ZM235.72 314.768V319.934H234.958V314.768H235.72ZM231.032 315.295C232.351 315.285 233.308 316.135 233.308 317.336C233.308 318.557 232.351 319.396 231.032 319.396C229.714 319.396 228.757 318.557 228.757 317.336C228.757 316.135 229.714 315.285 231.032 315.295ZM231.032 315.949C230.144 315.949 229.499 316.516 229.509 317.336C229.499 318.166 230.144 318.742 231.032 318.732C231.911 318.742 232.556 318.166 232.556 317.336C232.556 316.516 231.911 315.949 231.032 315.949ZM245.134 318.732V319.328H242.985V320.119H244.138V321.965H238.923V322.795H244.421V323.352H238.152V321.428H243.376V320.686H238.142V320.119H239.343V319.328H237.185V318.732H245.134ZM244.109 315.031V316.818H238.982V317.561H244.265V318.117H238.22V316.301H243.337V315.578H238.191V315.031H244.109ZM240.095 320.119H242.224V319.328H240.095V320.119Z" fill="#222222"/>
<path d="M228.793 346.109V354.811H228.022V346.109H228.793ZM224.174 346.783C225.463 346.793 226.391 347.965 226.391 349.811C226.391 351.656 225.463 352.828 224.174 352.828C222.875 352.828 221.957 351.656 221.957 349.811C221.957 347.965 222.875 346.793 224.174 346.783ZM224.174 347.467C223.305 347.477 222.699 348.395 222.699 349.811C222.699 351.227 223.305 352.145 224.174 352.145C225.043 352.145 225.649 351.227 225.649 349.811C225.649 348.395 225.043 347.477 224.174 347.467ZM233.178 347.516C233.178 348.697 234.076 349.781 235.336 350.211L234.916 350.816C233.954 350.465 233.197 349.747 232.816 348.844C232.445 349.864 231.674 350.67 230.658 351.061L230.248 350.445C231.547 349.957 232.416 348.795 232.426 347.457V346.559H233.178V347.516ZM237.065 346.109V348.375H238.373V349.02H237.065V351.393H236.303V346.109H237.065ZM234.281 351.617C236.068 351.617 237.143 352.193 237.143 353.189C237.143 354.205 236.068 354.771 234.281 354.771C232.494 354.771 231.4 354.205 231.4 353.189C231.4 352.193 232.494 351.617 234.281 351.617ZM234.281 352.232C232.973 352.232 232.162 352.594 232.172 353.189C232.162 353.805 232.973 354.156 234.281 354.166C235.6 354.156 236.4 353.805 236.4 353.189C236.4 352.594 235.6 352.232 234.281 352.232Z" fill="#222222"/>
<path d="M215.271 337.375V335.864L219.156 329.809H221.555V335.839H222.723V337.375H221.555V339H219.74V337.375H215.271ZM217.201 335.839H219.765V331.903H219.676L217.201 335.763V335.839ZM227.535 339.127C225.237 339.127 223.84 337.413 223.84 334.404C223.84 331.396 225.237 329.682 227.535 329.682C229.833 329.682 231.229 331.408 231.229 334.404C231.229 337.426 229.833 339.127 227.535 339.127ZM227.535 337.553C228.601 337.553 229.287 336.524 229.274 334.404C229.274 332.31 228.601 331.243 227.535 331.243C226.468 331.243 225.795 332.31 225.795 334.404C225.783 336.524 226.468 337.553 227.535 337.553ZM234.961 334.404C233.59 334.404 232.841 333.401 232.841 331.954C232.841 330.494 233.616 329.491 234.961 329.491C236.345 329.491 237.069 330.494 237.082 331.954C237.069 333.414 236.32 334.404 234.961 334.404ZM234.961 333.274C235.507 333.274 235.774 332.741 235.787 331.954C235.774 331.167 235.533 330.621 234.961 330.621C234.416 330.621 234.136 331.18 234.136 331.954C234.136 332.741 234.428 333.274 234.961 333.274ZM241.157 339.305C239.798 339.305 239.049 338.302 239.049 336.854C239.049 335.395 239.824 334.392 241.157 334.392C242.541 334.392 243.277 335.395 243.29 336.854C243.277 338.314 242.528 339.305 241.157 339.305ZM241.157 338.175C241.715 338.175 241.982 337.654 241.995 336.854C241.982 336.067 241.741 335.521 241.157 335.534C240.624 335.534 240.344 336.08 240.344 336.854C240.344 337.654 240.636 338.175 241.157 338.175ZM234.162 339L240.484 329.809H241.906L235.583 339H234.162Z" fill="#377B68"/>
<path d="M255.594 340.793L250.557 340.793L250.557 334.076L246.493 334.076L253.076 327.493L259.658 334.076L255.594 334.076L255.594 340.793Z" fill="#377B68"/>
<defs>
<filter id="filter0_d_742_115" x="162.443" y="266.802" width="144.719" height="141.57" filterUnits="userSpaceOnUse" color-interpolation-filters="sRGB">
<feFlood flood-opacity="0" result="BackgroundImageFix"/>
<feColorMatrix in="SourceAlpha" type="matrix" values="0 0 0 0 0 0 0 0 0 0 0 0 0 0 0 0 0 0 127 0" result="hardAlpha"/>
<feMorphology radius="22.2233" operator="dilate" in="SourceAlpha" result="effect1_dropShadow_742_115"/>
<feOffset dx="5.18544" dy="6.66699"/>
<feGaussianBlur stdDeviation="3.815"/>
<feComposite in2="hardAlpha" operator="out"/>
<feColorMatrix type="matrix" values="0 0 0 0 0 0 0 0 0 0 0 0 0 0 0 0 0 0 0.25 0"/>
<feBlend mode="normal" in2="BackgroundImageFix" result="effect1_dropShadow_742_115"/>
<feBlend mode="normal" in="SourceGraphic" in2="effect1_dropShadow_742_115" result="shape"/>
</filter>
</defs>
</svg>
