<svg width="523" height="940" viewBox="0 0 523 940" fill="none" xmlns="http://www.w3.org/2000/svg">
<rect width="523" height="940" fill="#53D4B1"/>
<path d="M275.497 61.05V32.8507H281.339V44.5355H293.569V32.8507H299.45V61.05H293.569V49.3652H281.339V61.05H275.497Z" fill="white"/>
<path d="M265.681 40.9132C265.448 38.6931 263.656 37.3688 260.813 37.3688C257.853 37.3688 256.217 38.7321 256.178 40.6016C256.139 42.627 258.281 43.5618 260.696 44.1071L263.228 44.7303C268.057 45.8208 271.68 48.2747 271.68 52.9875C271.68 58.1678 267.629 61.4395 260.774 61.4395C253.958 61.4395 249.595 58.2846 249.439 52.2475H255.126C255.321 55.0908 257.58 56.5319 260.696 56.5319C263.773 56.5319 265.759 55.0908 265.759 52.9875C265.759 51.079 264.007 50.1832 260.93 49.4042L257.853 48.6641C253.101 47.4957 250.18 45.1198 250.18 40.9911C250.18 35.8498 254.698 32.4612 260.852 32.4612C267.084 32.4612 271.212 35.9277 271.29 40.9132H265.681Z" fill="white"/>
<path d="M227.122 61.05H220.812L230.588 32.8507H238.105L247.843 61.05H241.572L239.468 54.5455H229.264L227.122 61.05ZM230.744 49.9884H237.988L234.444 39.1995H234.249L230.744 49.9884Z" fill="white"/>
<path d="M191.717 61.05L186 37.3688H191.717L194.794 52.5591H195.027L200.208 29.3315H205.699L210.88 52.598H211.113L215.865 29.3315H222.253L214.19 61.05H208.465L203.09 42.4323H202.856L197.442 61.05H191.717Z" fill="white"/>
<rect x="198.902" y="18.3843" width="5.86531" height="4.69225" fill="white"/>
<rect x="216.501" y="18.3843" width="5.86531" height="4.69225" fill="white"/>
<rect x="216.501" y="9" width="5.86531" height="4.69225" fill="white"/>
<rect x="228.229" y="9" width="5.86531" height="4.69225" fill="white"/>
<path d="M188.236 94.6337V68.0931H205.722V72.6388H193.735V79.0906H204.586V83.6362H193.735V94.6337H188.236Z" fill="white"/>
<path d="M210.451 94.6337H204.513L213.714 68.0931H220.789L229.953 94.6337H224.051L222.072 88.5117H212.467L210.451 94.6337ZM213.86 84.2227H220.679L217.343 74.0684H217.16L213.86 84.2227Z" fill="white"/>
<path d="M249.455 77.331C249.016 74.3983 246.743 72.6021 243.663 72.6021C239.521 72.6021 236.808 75.7914 236.808 81.3634C236.808 87.0821 239.558 90.1247 243.627 90.1247C246.669 90.1247 248.906 88.4384 249.455 85.5791L255.028 85.6157C254.404 90.5279 250.299 95.0002 243.554 95.0002C236.442 95.0002 231.2 90.0147 231.2 81.3634C231.2 72.7121 236.552 67.7266 243.554 67.7266C249.675 67.7266 254.294 71.2457 255.028 77.331H249.455Z" fill="white"/>
<path d="M257.85 72.6388V68.0931H279.588V72.6388H271.45V94.6337H265.988V72.6388H257.85Z" fill="white"/>
<path d="M306.129 81.3634C306.129 90.0147 300.74 95.0002 293.739 95.0002C286.664 95.0002 281.311 89.9781 281.311 81.3634C281.311 72.7121 286.664 67.7266 293.739 67.7266C300.74 67.7266 306.129 72.7121 306.129 81.3634ZM300.52 81.3634C300.52 75.6814 297.844 72.6021 293.739 72.6021C289.633 72.6021 286.92 75.6814 286.92 81.3634C286.92 87.0454 289.633 90.1247 293.739 90.1247C297.844 90.1247 300.52 87.0454 300.52 81.3634Z" fill="white"/>
<path d="M310.088 94.6337V68.0931H320.499C326.548 68.0931 329.993 71.5024 329.993 76.7445C329.993 80.3736 328.326 83.013 325.301 84.2961L330.947 94.6337H324.861L319.802 85.2125H315.587V94.6337H310.088ZM315.587 80.7402H319.473C322.735 80.7402 324.311 79.3839 324.311 76.7445C324.311 74.0684 322.735 72.6021 319.473 72.6021H315.587V80.7402Z" fill="white"/>
<path d="M331.093 68.0931H337.288L343.41 79.5305H343.667L349.752 68.0931H355.947L346.27 85.1759V94.6337H340.771V85.1759L331.093 68.0931Z" fill="white"/>
<rect width="420" height="753" transform="translate(52 109)" fill="white"/>
<rect width="190" height="58" transform="translate(69 155)" fill="#9CF9DF"/>
<path d="M151.034 174.641V182.418H154.128V183.836H151.034V193.74H149.358V174.641H151.034ZM146.093 176.703C146.093 182.117 143.558 187.037 137.327 190.109L136.382 188.777C141.323 186.317 144.009 182.644 144.396 178.121H137.263V176.703H146.093ZM171.487 174.662V186.264H169.876V181.129H167.341V185.641H165.751V175.027H167.341V179.732H169.876V174.662H171.487ZM163.538 176.338V184.545H156.147V176.338H163.538ZM157.737 177.67V183.213H161.97V177.67H157.737ZM165.171 186.758C169.124 186.736 171.595 188.025 171.595 190.217C171.595 192.408 169.124 193.697 165.171 193.697C161.196 193.697 158.747 192.408 158.769 190.217C158.747 188.025 161.196 186.736 165.171 186.758ZM165.171 188.09C162.249 188.09 160.423 188.885 160.444 190.217C160.423 191.57 162.249 192.365 165.171 192.365C168.071 192.365 169.897 191.57 169.919 190.217C169.897 188.885 168.071 188.09 165.171 188.09ZM190.028 174.641V193.783H188.331V174.641H190.028ZM177.073 176.273V181.322H182.767V176.273H184.421V189.164H175.397V176.273H177.073ZM177.073 187.746H182.767V182.676H177.073V187.746Z" fill="#222222"/>
<rect width="188" height="58" transform="translate(262 155)" fill="#D4F9F0"/>
<path d="M319.971 192.215C316.727 192.215 314.363 190.303 314.299 187.617H317.436C317.5 188.842 318.617 189.658 319.971 189.658C321.582 189.658 322.721 188.52 322.721 186.908C322.721 185.254 321.561 184.115 319.928 184.094C318.768 184.094 317.951 184.523 317.479 185.404H314.557L315.395 176.445H324.977V179.088H318.059L317.629 183.02H317.758C318.338 182.246 319.498 181.709 320.873 181.709C323.73 181.709 325.857 183.836 325.857 186.822C325.857 189.959 323.473 192.215 319.971 192.215ZM334.086 192.215C330.197 192.215 327.834 189.314 327.834 184.223C327.834 179.131 330.197 176.23 334.086 176.23C337.975 176.23 340.338 179.152 340.338 184.223C340.338 189.336 337.975 192.215 334.086 192.215ZM334.086 189.551C335.891 189.551 337.051 187.811 337.029 184.223C337.029 180.678 335.891 178.873 334.086 178.873C332.281 178.873 331.143 180.678 331.143 184.223C331.121 187.811 332.281 189.551 334.086 189.551ZM348.609 192.215C344.721 192.215 342.357 189.314 342.357 184.223C342.357 179.131 344.721 176.23 348.609 176.23C352.498 176.23 354.861 179.152 354.861 184.223C354.861 189.336 352.498 192.215 348.609 192.215ZM348.609 189.551C350.414 189.551 351.574 187.811 351.553 184.223C351.553 180.678 350.414 178.873 348.609 178.873C346.805 178.873 345.666 180.678 345.666 184.223C345.645 187.811 346.805 189.551 348.609 189.551ZM366.42 176.037V185.426H357.031V176.037H366.42ZM359.738 178.229V183.277H363.713V178.229H359.738ZM371.963 174.426V180.055H374.605V182.311H371.963V188.691H369.213V174.426H371.963ZM372.672 191.441V193.633H359.287V187.295H362.016V191.441H372.672ZM397.1 174.447V189.207H394.35V187.66H390.611V185.791H394.35V174.447H397.1ZM397.529 191.441V193.633H382.963V187.789H385.691V185.189C383.94 185.265 382.275 185.275 380.793 185.275L380.471 183.105C384.059 183.084 388.893 183.041 393.018 182.525L393.168 184.48C391.621 184.738 390.021 184.921 388.441 185.039V188.756H385.691V191.441H397.529ZM386.83 175.113C389.666 175.092 391.707 176.531 391.707 178.615C391.707 180.699 389.666 182.053 386.83 182.053C383.93 182.053 381.91 180.699 381.91 178.615C381.91 176.531 383.908 175.092 386.83 175.113ZM386.83 177.111C385.434 177.111 384.488 177.648 384.51 178.615C384.488 179.561 385.434 180.076 386.83 180.076C388.141 180.076 389.086 179.561 389.107 178.615C389.086 177.648 388.141 177.111 386.83 177.111Z" fill="#377B68"/>
<path d="M313.031 184.996H398.969V187.016H313.031V184.996Z" fill="#377B68"/>
<rect width="190" height="58" transform="translate(69 218)" fill="#9CF9DF"/>
<path d="M153.741 252.895V254.291H136.253V252.895H144.116V248.77H138.315V238.994H140.013V242.453H149.938V238.994H151.593V248.77H145.771V252.895H153.741ZM140.013 247.395H149.938V243.828H140.013V247.395ZM172.669 246.729V248.125H155.267V246.729H172.669ZM163.968 249.801C168.071 249.801 170.521 251.068 170.542 253.26C170.521 255.473 168.071 256.697 163.968 256.697C159.843 256.697 157.372 255.473 157.372 253.26C157.372 251.068 159.843 249.801 163.968 249.801ZM163.968 251.133C160.896 251.154 159.069 251.906 159.091 253.26C159.069 254.592 160.896 255.344 163.968 255.344C166.997 255.344 168.845 254.592 168.845 253.26C168.845 251.906 166.997 251.154 163.968 251.133ZM171.122 238.629V240.025H165.063C165.128 242.195 168.308 243.85 171.702 244.236L171.079 245.59C167.953 245.192 165.021 243.796 163.968 241.658C162.926 243.796 160.004 245.192 156.856 245.59L156.255 244.236C159.585 243.85 162.786 242.195 162.872 240.025H156.856V238.629H171.122ZM189.47 238.672V240.09C189.47 241.572 189.47 243.312 188.976 245.697H191.769V247.094H174.28V245.697H187.278C187.794 243.302 187.794 241.572 187.794 240.09V240.068H176.493V238.672H189.47ZM189.556 249.736V256.482H176.429V249.736H189.556ZM178.104 251.068V255.107H187.88V251.068H178.104Z" fill="#222222"/>
<rect width="188" height="58" transform="translate(262 218)" fill="#D4F9F0"/>
<path d="M314.438 255L314.417 252.658L320.003 247.523C321.464 246.127 322.237 245.268 322.237 244.043C322.237 242.668 321.185 241.809 319.767 241.809C318.306 241.809 317.36 242.732 317.36 244.215H314.288C314.267 241.164 316.522 239.23 319.81 239.23C323.14 239.23 325.353 241.121 325.353 243.828C325.353 245.59 324.493 247.051 321.292 249.951L318.929 252.25V252.336H325.567V255H314.438ZM333.903 255.215C330.015 255.215 327.651 252.314 327.651 247.223C327.651 242.131 330.015 239.23 333.903 239.23C337.792 239.23 340.155 242.152 340.155 247.223C340.155 252.336 337.792 255.215 333.903 255.215ZM333.903 252.551C335.708 252.551 336.868 250.811 336.847 247.223C336.847 243.678 335.708 241.873 333.903 241.873C332.099 241.873 330.96 243.678 330.96 247.223C330.938 250.811 332.099 252.551 333.903 252.551ZM348.427 255.215C344.538 255.215 342.175 252.314 342.175 247.223C342.175 242.131 344.538 239.23 348.427 239.23C352.315 239.23 354.679 242.152 354.679 247.223C354.679 252.336 352.315 255.215 348.427 255.215ZM348.427 252.551C350.231 252.551 351.392 250.811 351.37 247.223C351.37 243.678 350.231 241.873 348.427 241.873C346.622 241.873 345.483 243.678 345.483 247.223C345.462 250.811 346.622 252.551 348.427 252.551ZM366.237 239.037V248.426H356.849V239.037H366.237ZM359.556 241.229V246.277H363.53V241.229H359.556ZM371.78 237.426V243.055H374.423V245.311H371.78V251.691H369.03V237.426H371.78ZM372.489 254.441V256.633H359.104V250.295H361.833V254.441H372.489ZM396.917 237.447V252.207H394.167V250.66H390.429V248.791H394.167V237.447H396.917ZM397.347 254.441V256.633H382.78V250.789H385.509V248.189C383.758 248.265 382.093 248.275 380.61 248.275L380.288 246.105C383.876 246.084 388.71 246.041 392.835 245.525L392.985 247.48C391.438 247.738 389.838 247.921 388.259 248.039V251.756H385.509V254.441H397.347ZM386.647 238.113C389.483 238.092 391.524 239.531 391.524 241.615C391.524 243.699 389.483 245.053 386.647 245.053C383.747 245.053 381.728 243.699 381.728 241.615C381.728 239.531 383.726 238.092 386.647 238.113ZM386.647 240.111C385.251 240.111 384.306 240.648 384.327 241.615C384.306 242.561 385.251 243.076 386.647 243.076C387.958 243.076 388.903 242.561 388.925 241.615C388.903 240.648 387.958 240.111 386.647 240.111Z" fill="#377B68"/>
<path d="M313.214 247.996H398.786V250.016H313.214V247.996Z" fill="#377B68"/>
<rect width="190" height="58" transform="translate(69 281)" fill="#9CF9DF"/>
<path d="M153.741 315.959V317.377H136.253V315.959H144.116V312.35H138.444V306.463H149.874V303.455H138.401V302.059H151.528V307.838H140.12V310.953H151.979V312.35H145.771V315.959H153.741ZM160.53 301.328C162.206 301.328 163.624 301.951 164.505 302.982H169.403V300.641H171.079V310.459H169.403V308.268H164.569C163.678 309.342 162.238 309.986 160.53 309.986C157.651 309.986 155.567 308.225 155.567 305.646C155.567 303.09 157.651 301.328 160.53 301.328ZM160.53 302.725C158.575 302.703 157.179 303.928 157.179 305.646C157.179 307.387 158.575 308.611 160.53 308.633C162.421 308.611 163.839 307.387 163.839 305.646C163.839 303.928 162.421 302.703 160.53 302.725ZM171.079 311.426V316.002H160.423V318.129H171.81V319.482H158.747V314.713H169.403V312.779H158.704V311.426H171.079ZM165.278 304.336C165.396 304.744 165.472 305.185 165.472 305.646C165.472 306.098 165.396 306.517 165.278 306.914H169.403V304.336H165.278ZM184.808 302.381V303.799H177.181V307.752H184.12V309.127H177.181V313.746C180.747 313.746 183.196 313.606 186.118 313.123L186.29 314.52C183.282 315.014 180.704 315.121 177.03 315.143H175.505V302.381H184.808ZM190.071 300.641V319.74H188.374V300.641H190.071Z" fill="#222222"/>
<rect width="189" height="58" transform="translate(262 281)" fill="#D4F9F0"/>
<path d="M320.385 318.215C316.969 318.215 314.52 316.324 314.455 313.617H317.721C317.785 314.777 318.902 315.551 320.406 315.551C321.953 315.551 323.07 314.67 323.049 313.424C323.07 312.156 321.932 311.254 320.105 311.254H318.666V308.869H320.105C321.631 308.869 322.705 308.031 322.705 306.807C322.705 305.625 321.803 304.809 320.428 304.809C319.053 304.809 317.914 305.582 317.871 306.764H314.777C314.82 304.078 317.248 302.23 320.428 302.23C323.672 302.23 325.842 304.143 325.82 306.613C325.842 308.354 324.617 309.6 322.877 309.9V310.029C325.154 310.309 326.422 311.705 326.4 313.639C326.422 316.303 323.887 318.215 320.385 318.215ZM334.715 318.215C330.826 318.215 328.463 315.314 328.463 310.223C328.463 305.131 330.826 302.23 334.715 302.23C338.604 302.23 340.967 305.152 340.967 310.223C340.967 315.336 338.604 318.215 334.715 318.215ZM334.715 315.551C336.52 315.551 337.68 313.811 337.658 310.223C337.658 306.678 336.52 304.873 334.715 304.873C332.91 304.873 331.771 306.678 331.771 310.223C331.75 313.811 332.91 315.551 334.715 315.551ZM349.238 318.215C345.35 318.215 342.986 315.314 342.986 310.223C342.986 305.131 345.35 302.23 349.238 302.23C353.127 302.23 355.49 305.152 355.49 310.223C355.49 315.336 353.127 318.215 349.238 318.215ZM349.238 315.551C351.043 315.551 352.203 313.811 352.182 310.223C352.182 306.678 351.043 304.873 349.238 304.873C347.434 304.873 346.295 306.678 346.295 310.223C346.273 313.811 347.434 315.551 349.238 315.551ZM367.049 302.037V311.426H357.66V302.037H367.049ZM360.367 304.229V309.277H364.342V304.229H360.367ZM372.592 300.426V306.055H375.234V308.311H372.592V314.691H369.842V300.426H372.592ZM373.301 317.441V319.633H359.916V313.295H362.645V317.441H373.301ZM397.729 300.447V315.207H394.979V313.66H391.24V311.791H394.979V300.447H397.729ZM398.158 317.441V319.633H383.592V313.789H386.32V311.189C384.569 311.265 382.904 311.275 381.422 311.275L381.1 309.105C384.688 309.084 389.521 309.041 393.646 308.525L393.797 310.48C392.25 310.738 390.649 310.921 389.07 311.039V314.756H386.32V317.441H398.158ZM387.459 301.113C390.295 301.092 392.336 302.531 392.336 304.615C392.336 306.699 390.295 308.053 387.459 308.053C384.559 308.053 382.539 306.699 382.539 304.615C382.539 302.531 384.537 301.092 387.459 301.113ZM387.459 303.111C386.062 303.111 385.117 303.648 385.139 304.615C385.117 305.561 386.062 306.076 387.459 306.076C388.77 306.076 389.715 305.561 389.736 304.615C389.715 303.648 388.77 303.111 387.459 303.111Z" fill="#377B68"/>
<path d="M313.402 310.996H399.598V313.016H313.402V310.996Z" fill="#377B68"/>
<rect width="190" height="58" transform="translate(69 344)" fill="#9CF9DF"/>
<path d="M120.741 363.662V377.627H119.065V363.662H120.741ZM121.343 380.914V382.332H108.409V376.209H110.085V380.914H121.343ZM110.429 364.994C113.286 364.994 115.435 366.928 115.435 369.678C115.435 372.471 113.286 374.383 110.429 374.383C107.571 374.383 105.423 372.471 105.423 369.678C105.423 366.928 107.571 364.994 110.429 364.994ZM110.429 366.477C108.495 366.477 107.056 367.809 107.077 369.678C107.056 371.59 108.495 372.9 110.429 372.9C112.319 372.9 113.78 371.59 113.78 369.678C113.78 367.809 112.319 366.477 110.429 366.477ZM131.849 365.982V367.336H126.349V371.117H130.968V372.471H126.349V376.768C129.088 376.735 130.764 376.639 132.837 376.252L132.987 377.627C130.774 378.078 128.97 378.121 125.94 378.143H124.737V365.982H131.849ZM140.335 363.641V382.74H138.702V363.641H140.335ZM136.425 364.113V381.752H134.813V372.299H131.999V370.902H134.813V364.113H136.425ZM158.769 363.641V382.783H157.093V363.641H158.769ZM152.968 365.424V372.213H145.835V376.725C149.004 376.725 151.829 376.585 155.245 376.037L155.417 377.455C151.894 378.014 148.993 378.143 145.706 378.143H144.116V370.838H151.271V366.82H144.073V365.424H152.968ZM167.147 365.123C169.747 365.145 171.616 367.368 171.896 370.945H176.171V363.641H177.847V382.783H176.171V372.342H171.917C171.713 376.08 169.812 378.422 167.147 378.422C164.333 378.422 162.356 375.844 162.356 371.783C162.356 367.723 164.333 365.145 167.147 365.123ZM167.147 366.627C165.257 366.648 163.968 368.668 163.968 371.783C163.968 374.898 165.257 376.918 167.147 376.918C169.017 376.918 170.327 374.898 170.327 371.783C170.327 368.668 169.017 366.648 167.147 366.627ZM193.337 368.775C193.315 372.256 195.7 375.779 198.515 377.047L197.483 378.379C195.313 377.315 193.434 375.07 192.521 372.342C191.629 375.231 189.749 377.638 187.515 378.766L186.44 377.348C189.276 376.037 191.64 372.406 191.661 368.775V365.295H193.337V368.775ZM202.296 363.641V382.783H200.599V363.641H202.296ZM214.198 375.715C218.302 375.715 220.901 377.004 220.901 379.217C220.901 381.408 218.302 382.697 214.198 382.697C210.116 382.697 207.517 381.408 207.517 379.217C207.517 377.004 210.116 375.715 214.198 375.715ZM214.198 377.004C211.147 377.025 209.171 377.863 209.192 379.217C209.171 380.549 211.147 381.365 214.198 381.365C217.249 381.365 219.204 380.549 219.226 379.217C219.204 377.863 217.249 377.025 214.198 377.004ZM220.751 364.629V366.24C220.751 367.787 220.751 369.334 220.214 371.311L218.56 371.117C219.075 369.141 219.075 367.744 219.075 366.24V366.004H207.646V364.629H220.751ZM222.964 372.557V373.932H205.583V372.557H212.78V368.861H214.435V372.557H222.964Z" fill="#222222"/>
<rect width="189" height="58" transform="translate(262 344)" fill="#D4F9F0"/>
<path d="M317.087 365.445V381H315.132V367.465H315.046L311.265 369.979V368.023L315.132 365.445H317.087ZM326.433 381.215C323.167 381.215 320.89 379.41 320.911 376.875C320.89 374.855 322.286 373.201 324.069 372.922V372.836C322.522 372.471 321.513 371.053 321.513 369.355C321.513 366.971 323.597 365.23 326.433 365.23C329.269 365.23 331.353 366.971 331.374 369.355C331.353 371.053 330.321 372.471 328.796 372.836V372.922C330.558 373.201 331.954 374.855 331.976 376.875C331.954 379.41 329.677 381.215 326.433 381.215ZM326.433 379.518C328.667 379.518 330.042 378.4 330.042 376.768C330.042 375.049 328.517 373.781 326.433 373.781C324.349 373.781 322.802 375.049 322.845 376.768C322.802 378.4 324.198 379.518 326.433 379.518ZM326.433 372.148C328.194 372.148 329.483 371.074 329.483 369.506C329.483 367.959 328.259 366.906 326.433 366.906C324.585 366.906 323.382 367.959 323.382 369.506C323.382 371.074 324.649 372.148 326.433 372.148ZM339.667 381.215C336.208 381.215 334.231 378.314 334.231 373.223C334.231 368.174 336.251 365.23 339.667 365.23C343.083 365.23 345.103 368.174 345.103 373.223C345.103 378.314 343.104 381.215 339.667 381.215ZM339.667 379.496C341.901 379.496 343.212 377.24 343.212 373.223C343.212 369.205 341.901 366.906 339.667 366.906C337.433 366.906 336.101 369.205 336.101 373.223C336.101 377.24 337.411 379.496 339.667 379.496ZM352.772 381.215C349.313 381.215 347.337 378.314 347.337 373.223C347.337 368.174 349.356 365.23 352.772 365.23C356.188 365.23 358.208 368.174 358.208 373.223C358.208 378.314 356.21 381.215 352.772 381.215ZM352.772 379.496C355.007 379.496 356.317 377.24 356.317 373.223C356.317 369.205 355.007 366.906 352.772 366.906C350.538 366.906 349.206 369.205 349.206 373.223C349.206 377.24 350.517 379.496 352.772 379.496ZM369.745 365.381V374.168H360.915V365.381H369.745ZM362.569 366.756V372.814H368.112V366.756H362.569ZM375.03 363.641V369.463H377.909V370.881H375.03V377.648H373.354V363.641H375.03ZM375.911 380.914V382.332H363.085V376.316H364.739V380.914H375.911ZM400.382 363.662V378.164H398.685V376.188H394.731V374.963H398.685V363.662H400.382ZM400.854 380.914V382.332H387.276V376.746H388.974V380.914H400.854ZM384.526 372.514C388.093 372.492 392.862 372.471 396.966 371.955L397.073 373.18C395.365 373.448 393.582 373.62 391.831 373.717V377.498H390.134V373.803C388.2 373.889 386.363 373.899 384.763 373.889L384.526 372.514ZM390.8 364.436C393.593 364.436 395.505 365.768 395.526 367.766C395.505 369.807 393.593 371.074 390.8 371.074C387.985 371.074 386.073 369.807 386.073 367.766C386.073 365.768 387.985 364.436 390.8 364.436ZM390.8 365.725C388.931 365.703 387.663 366.541 387.685 367.766C387.663 369.012 388.931 369.828 390.8 369.828C392.604 369.828 393.894 369.012 393.915 367.766C393.894 366.541 392.604 365.703 390.8 365.725Z" fill="#222222"/>
<rect width="190" height="58" transform="translate(69 407)" fill="#9CF9DF"/>
<path d="M88.8691 432.076C88.8691 435.105 90.3516 438.393 92.8867 439.896L91.9199 441.207C90.083 440.09 88.7617 438.049 88.0957 435.729C87.3867 438.264 85.9688 440.444 84.0566 441.615L82.9824 440.348C85.625 438.801 87.2363 435.406 87.2363 432.141V428.445H88.8691V432.076ZM99.5684 426.641V445.74H97.9355V426.641H99.5684ZM95.6152 427.049V444.773H94.0254V434.934H90.7812V433.494H94.0254V427.049H95.6152ZM111.9 427.951V429.348H104.789V431.84H111.535V433.172H104.789V435.814C108.506 435.814 110.644 435.718 113.146 435.256L113.34 436.652C110.697 437.104 108.506 437.189 104.553 437.168H103.113V427.951H111.9ZM117.143 426.641V431.732H120.021V433.172H117.143V438.221H115.467V426.641H117.143ZM117.143 439.166V445.74H115.467V440.541H104.639V439.166H117.143ZM137.016 426.641V445.74H135.318V426.641H137.016ZM131.365 428.725C131.344 434.225 128.787 439.08 122.385 442.152L121.461 440.777C126.628 438.328 129.26 434.665 129.646 430.1H122.342V428.725H131.365ZM156.029 426.641V445.74H154.332V426.641H156.029ZM150.379 428.725C150.357 434.225 147.801 439.08 141.398 442.152L140.475 440.777C145.642 438.328 148.273 434.665 148.66 430.1H141.355V428.725H150.379ZM174.742 427.887V435.664H165.783V427.887H174.742ZM167.438 429.262V434.332H173.088V429.262H167.438ZM180.521 426.641V437.619H178.867V426.641H180.521ZM175.344 440.24C175.344 442.109 178.395 443.957 181.682 444.365L181.102 445.676C178.223 445.289 175.602 443.936 174.484 442.152C173.324 443.968 170.639 445.289 167.76 445.676L167.158 444.365C170.445 444 173.604 442.152 173.604 440.24H167.953V438.93H173.625V437.061H175.301V438.93H181.016V440.24H175.344ZM195.775 432.506C195.754 435.578 197.967 438.951 200.738 440.262L199.771 441.594C197.623 440.552 195.808 438.274 194.959 435.686C194.078 438.5 192.155 440.971 190.018 442.066L188.986 440.734C191.736 439.402 194.1 435.771 194.121 432.506V430.014H189.674V428.617H200.072V430.014H195.775V432.506ZM204.09 426.641V434.375H207.291V435.814H204.09V445.74H202.414V426.641H204.09ZM219.236 428.467V429.842H217.281V436.158C218.259 436.094 219.226 436.008 220.139 435.9L220.268 437.168C216.4 437.77 211.889 437.855 208.58 437.855L208.387 436.459L210.857 436.416V429.842H208.924V428.467H219.236ZM223.254 426.662V432.463H226.133V433.902H223.254V440.713H221.578V426.662H223.254ZM224.135 443.914V445.332H211.309V439.381H212.963V443.914H224.135ZM212.512 436.395C213.532 436.362 214.585 436.33 215.627 436.266V429.842H212.512V436.395ZM243.127 426.641V445.74H241.43V426.641H243.127ZM237.477 428.725C237.455 434.225 234.898 439.08 228.496 442.152L227.572 440.777C232.739 438.328 235.371 434.665 235.758 430.1H228.453V428.725H237.477Z" fill="#222222"/>
<rect width="190" height="58" transform="translate(262 407)" fill="#D4F9F0"/>
<path d="M310.562 444L310.54 442.582L315.847 436.996C317.694 435.041 318.575 433.988 318.575 432.549C318.575 430.959 317.222 429.906 315.481 429.906C313.634 429.906 312.452 431.088 312.452 432.828H310.626C310.604 430.078 312.731 428.23 315.546 428.23C318.36 428.23 320.38 430.121 320.38 432.549C320.38 434.289 319.563 435.643 316.813 438.479L313.247 442.152V442.281H320.659V444H310.562ZM328.544 444.215C325.729 444.215 323.603 442.475 323.495 440.09H325.364C325.515 441.486 326.868 442.518 328.544 442.518C330.563 442.518 332.024 441.035 332.024 439.08C332.024 437.061 330.499 435.578 328.415 435.557C327.104 435.535 326.095 435.943 325.515 436.953H323.646L324.741 428.445H333.163V430.164H326.353L325.772 434.719H325.923C326.61 434.182 327.663 433.816 328.759 433.816C331.724 433.816 333.915 436.008 333.915 439.037C333.915 442.045 331.638 444.215 328.544 444.215ZM341.692 444.215C338.233 444.215 336.257 441.314 336.257 436.223C336.257 431.174 338.276 428.23 341.692 428.23C345.108 428.23 347.128 431.174 347.128 436.223C347.128 441.314 345.13 444.215 341.692 444.215ZM341.692 442.496C343.927 442.496 345.237 440.24 345.237 436.223C345.237 432.205 343.927 429.906 341.692 429.906C339.458 429.906 338.126 432.205 338.126 436.223C338.126 440.24 339.437 442.496 341.692 442.496ZM354.798 444.215C351.339 444.215 349.362 441.314 349.362 436.223C349.362 431.174 351.382 428.23 354.798 428.23C358.214 428.23 360.233 431.174 360.233 436.223C360.233 441.314 358.235 444.215 354.798 444.215ZM354.798 442.496C357.032 442.496 358.343 440.24 358.343 436.223C358.343 432.205 357.032 429.906 354.798 429.906C352.563 429.906 351.231 432.205 351.231 436.223C351.231 440.24 352.542 442.496 354.798 442.496ZM371.771 428.381V437.168H362.94V428.381H371.771ZM364.595 429.756V435.814H370.138V429.756H364.595ZM377.056 426.641V432.463H379.935V433.881H377.056V440.648H375.38V426.641H377.056ZM377.937 443.914V445.332H365.11V439.316H366.765V443.914H377.937ZM402.407 426.662V441.164H400.71V439.188H396.757V437.963H400.71V426.662H402.407ZM402.88 443.914V445.332H389.302V439.746H390.999V443.914H402.88ZM386.552 435.514C390.118 435.492 394.888 435.471 398.991 434.955L399.099 436.18C397.391 436.448 395.607 436.62 393.856 436.717V440.498H392.159V436.803C390.226 436.889 388.389 436.899 386.788 436.889L386.552 435.514ZM392.825 427.436C395.618 427.436 397.53 428.768 397.552 430.766C397.53 432.807 395.618 434.074 392.825 434.074C390.011 434.074 388.099 432.807 388.099 430.766C388.099 428.768 390.011 427.436 392.825 427.436ZM392.825 428.725C390.956 428.703 389.688 429.541 389.71 430.766C389.688 432.012 390.956 432.828 392.825 432.828C394.63 432.828 395.919 432.012 395.94 430.766C395.919 429.541 394.63 428.703 392.825 428.725Z" fill="#222222"/>
<rect width="190" height="58" transform="translate(69 470)" fill="#9CF9DF"/>
<path d="M115.22 491.639C115.198 497.16 113.2 502.252 106.304 505.625L105.358 504.271C108.936 502.553 111.148 500.351 112.362 497.762L105.724 498.406L105.444 496.902L112.899 496.408C113.243 495.345 113.447 494.217 113.522 493.035H106.411V491.639H115.22ZM120.763 489.641V508.74H119.065V489.641H120.763ZM132.687 490.887C136.747 490.908 139.669 492.885 139.669 495.893C139.669 498.739 137.134 500.63 133.503 500.855V504.873H141.474V506.291H123.985V504.873H131.849V500.855C128.229 500.619 125.704 498.729 125.704 495.893C125.704 492.885 128.626 490.908 132.687 490.887ZM132.687 492.283C129.593 492.283 127.337 493.744 127.337 495.893C127.337 498.105 129.593 499.523 132.687 499.545C135.78 499.523 138.036 498.105 138.036 495.893C138.036 493.744 135.78 492.283 132.687 492.283ZM152.517 492.455C152.517 495.721 156.255 498.643 159.585 499.266L158.812 500.684C155.933 500.018 152.893 497.966 151.657 495.141C150.422 497.955 147.393 500.007 144.503 500.684L143.729 499.266C147.038 498.621 150.755 495.742 150.755 492.455V490.994H152.517V492.455ZM160.487 504.744V506.141H142.999V504.744H160.487ZM177.245 491.596V493.959C177.245 496.773 177.245 499.373 176.45 503.24L174.753 503.09C175.172 501.253 175.387 499.663 175.505 498.17L163.839 498.814L163.603 497.418L175.569 496.924C175.602 495.914 175.602 494.937 175.612 493.959V493.014H164.118V491.596H177.245ZM179.415 504.637V506.055H162.013V504.637H179.415ZM202.296 489.641V508.783H200.599V489.641H202.296ZM189.341 491.273V496.322H195.034V491.273H196.688V504.164H187.665V491.273H189.341ZM189.341 502.746H195.034V497.676H189.341V502.746ZM222.964 499.094V500.49H205.562V499.094H209.88V496.408C208.354 495.817 207.495 494.84 207.495 493.551C207.495 491.295 210.073 490.006 214.263 490.006C218.409 490.006 221.009 491.295 221.009 493.551C221.009 494.829 220.16 495.807 218.646 496.387V499.094H222.964ZM214.263 501.951C218.366 501.951 220.815 503.133 220.837 505.324C220.815 507.494 218.366 508.697 214.263 508.697C210.116 508.697 207.667 507.494 207.667 505.324C207.667 503.133 210.116 501.951 214.263 501.951ZM214.263 503.24C211.19 503.262 209.364 504.014 209.386 505.324C209.364 506.613 211.19 507.387 214.263 507.387C217.292 507.387 219.14 506.613 219.14 505.324C219.14 504.014 217.292 503.262 214.263 503.24ZM214.263 491.338C211.147 491.338 209.214 492.176 209.235 493.551C209.214 494.947 211.147 495.764 214.263 495.764C217.356 495.764 219.29 494.947 219.29 493.551C219.29 492.176 217.356 491.338 214.263 491.338ZM211.556 499.094H216.97V496.859C216.164 496.999 215.262 497.074 214.263 497.074C213.264 497.074 212.361 496.999 211.556 496.859V499.094Z" fill="#222222"/>
<rect width="190" height="58" transform="translate(262 470)" fill="#D4F9F0"/>
<path d="M322.163 507.215C319.069 507.215 316.856 505.561 316.749 503.09H318.704C318.812 504.572 320.294 505.496 322.142 505.496C324.183 505.496 325.687 504.379 325.687 502.768C325.687 501.07 324.333 499.867 321.905 499.867H320.638V498.17H321.905C323.796 498.17 325.106 497.117 325.106 495.506C325.106 493.959 323.968 492.906 322.206 492.906C320.552 492.906 319.026 493.83 318.94 495.355H317.071C317.179 492.885 319.456 491.23 322.228 491.23C325.192 491.23 326.997 493.164 326.976 495.398C326.997 497.16 325.966 498.471 324.333 498.922V499.029C326.353 499.352 327.599 500.791 327.577 502.768C327.599 505.324 325.257 507.215 322.163 507.215ZM335.462 507.215C332.003 507.215 330.026 504.314 330.026 499.223C330.026 494.174 332.046 491.23 335.462 491.23C338.878 491.23 340.897 494.174 340.897 499.223C340.897 504.314 338.899 507.215 335.462 507.215ZM335.462 505.496C337.696 505.496 339.007 503.24 339.007 499.223C339.007 495.205 337.696 492.906 335.462 492.906C333.228 492.906 331.896 495.205 331.896 499.223C331.896 503.24 333.206 505.496 335.462 505.496ZM348.567 507.215C345.108 507.215 343.132 504.314 343.132 499.223C343.132 494.174 345.151 491.23 348.567 491.23C351.983 491.23 354.003 494.174 354.003 499.223C354.003 504.314 352.005 507.215 348.567 507.215ZM348.567 505.496C350.802 505.496 352.112 503.24 352.112 499.223C352.112 495.205 350.802 492.906 348.567 492.906C346.333 492.906 345.001 495.205 345.001 499.223C345.001 503.24 346.312 505.496 348.567 505.496ZM365.54 491.381V500.168H356.71V491.381H365.54ZM358.364 492.756V498.814H363.907V492.756H358.364ZM370.825 489.641V495.463H373.704V496.881H370.825V503.648H369.149V489.641H370.825ZM371.706 506.914V508.332H358.88V502.316H360.534V506.914H371.706ZM396.177 489.662V504.164H394.479V502.188H390.526V500.963H394.479V489.662H396.177ZM396.649 506.914V508.332H383.071V502.746H384.769V506.914H396.649ZM380.321 498.514C383.888 498.492 388.657 498.471 392.761 497.955L392.868 499.18C391.16 499.448 389.377 499.62 387.626 499.717V503.498H385.929V499.803C383.995 499.889 382.158 499.899 380.558 499.889L380.321 498.514ZM386.595 490.436C389.388 490.436 391.3 491.768 391.321 493.766C391.3 495.807 389.388 497.074 386.595 497.074C383.78 497.074 381.868 495.807 381.868 493.766C381.868 491.768 383.78 490.436 386.595 490.436ZM386.595 491.725C384.726 491.703 383.458 492.541 383.479 493.766C383.458 495.012 384.726 495.828 386.595 495.828C388.399 495.828 389.688 495.012 389.71 493.766C389.688 492.541 388.399 491.703 386.595 491.725Z" fill="#222222"/>
<rect width="190" height="58" transform="translate(69 533)" fill="#9CF9DF"/>
<path d="M117.143 552.641V558.463H120.021V559.881H117.143V566.627H115.445V552.641H117.143ZM111.986 554.123C111.986 559.043 108.463 562.695 102.963 564.414L102.232 563.061C106.809 561.632 109.795 558.903 110.16 555.541H103.027V554.123H111.986ZM118.023 569.914V571.332H105.176V565.209H106.852V569.914H118.023ZM132.139 554.467V555.842H130.184V562.158C131.161 562.094 132.128 562.008 133.041 561.9L133.17 563.168C129.303 563.77 124.791 563.855 121.482 563.855L121.289 562.459L123.76 562.416V555.842H121.826V554.467H132.139ZM136.156 552.662V558.463H139.035V559.902H136.156V566.713H134.48V552.662H136.156ZM137.037 569.914V571.332H124.211V565.381H125.865V569.914H137.037ZM125.414 562.395C126.435 562.362 127.487 562.33 128.529 562.266V555.842H125.414V562.395ZM155.729 553.887V561.664H146.77V553.887H155.729ZM148.424 555.262V560.332H154.074V555.262H148.424ZM161.508 552.641V563.619H159.854V552.641H161.508ZM156.33 566.24C156.33 568.109 159.381 569.957 162.668 570.365L162.088 571.676C159.209 571.289 156.588 569.936 155.471 568.152C154.311 569.968 151.625 571.289 148.746 571.676L148.145 570.365C151.432 570 154.59 568.152 154.59 566.24H148.939V564.93H154.611V563.061H156.287V564.93H162.002V566.24H156.33ZM176.697 557.775C176.697 561.148 178.932 564.607 181.639 565.939L180.607 567.293C178.502 566.187 176.74 563.931 175.902 561.277C175.043 564.103 173.238 566.509 171.09 567.658L170.016 566.305C172.809 564.93 175.021 561.256 175.043 557.775V554.295H176.697V557.775ZM185.076 552.641V560.396H188.277V561.857H185.076V571.74H183.4V552.641H185.076ZM205.078 552.662V566.627H203.402V552.662H205.078ZM205.68 569.914V571.332H192.746V565.209H194.422V569.914H205.68ZM194.766 553.994C197.623 553.994 199.771 555.928 199.771 558.678C199.771 561.471 197.623 563.383 194.766 563.383C191.908 563.383 189.76 561.471 189.76 558.678C189.76 555.928 191.908 553.994 194.766 553.994ZM194.766 555.477C192.832 555.477 191.393 556.809 191.414 558.678C191.393 560.59 192.832 561.9 194.766 561.9C196.656 561.9 198.117 560.59 198.117 558.678C198.117 556.809 196.656 555.477 194.766 555.477ZM225.725 560.719V562.094H217.84V563.984H223.49V568.26H212.146V570.193H224.07V571.525H210.471V566.992H221.836V565.295H210.428V563.984H216.164V562.094H208.322V560.719H225.725ZM223.469 553.285V559.107H210.578V553.285H223.469ZM212.254 554.639V557.754H221.793V554.639H212.254Z" fill="#222222"/>
<rect width="188" height="58" transform="translate(262 533)" fill="#D4F9F0"/>
<path d="M323.021 554.445V570H321.066V556.465H320.98L317.199 558.979V557.023L321.066 554.445H323.021ZM332.539 570.215C329.445 570.215 327.232 568.561 327.125 566.09H329.08C329.188 567.572 330.67 568.496 332.518 568.496C334.559 568.496 336.062 567.379 336.062 565.768C336.062 564.07 334.709 562.867 332.281 562.867H331.014V561.17H332.281C334.172 561.17 335.482 560.117 335.482 558.506C335.482 556.959 334.344 555.906 332.582 555.906C330.928 555.906 329.402 556.83 329.316 558.355H327.447C327.555 555.885 329.832 554.23 332.604 554.23C335.568 554.23 337.373 556.164 337.352 558.398C337.373 560.16 336.342 561.471 334.709 561.922V562.029C336.729 562.352 337.975 563.791 337.953 565.768C337.975 568.324 335.633 570.215 332.539 570.215ZM345.838 570.215C342.379 570.215 340.402 567.314 340.402 562.223C340.402 557.174 342.422 554.23 345.838 554.23C349.254 554.23 351.273 557.174 351.273 562.223C351.273 567.314 349.275 570.215 345.838 570.215ZM345.838 568.496C348.072 568.496 349.383 566.24 349.383 562.223C349.383 558.205 348.072 555.906 345.838 555.906C343.604 555.906 342.271 558.205 342.271 562.223C342.271 566.24 343.582 568.496 345.838 568.496ZM362.811 554.381V563.168H353.98V554.381H362.811ZM355.635 555.756V561.814H361.178V555.756H355.635ZM368.096 552.641V558.463H370.975V559.881H368.096V566.648H366.42V552.641H368.096ZM368.977 569.914V571.332H356.15V565.316H357.805V569.914H368.977ZM393.447 552.662V567.164H391.75V565.188H387.797V563.963H391.75V552.662H393.447ZM393.92 569.914V571.332H380.342V565.746H382.039V569.914H393.92ZM377.592 561.514C381.158 561.492 385.928 561.471 390.031 560.955L390.139 562.18C388.431 562.448 386.647 562.62 384.896 562.717V566.498H383.199V562.803C381.266 562.889 379.429 562.899 377.828 562.889L377.592 561.514ZM383.865 553.436C386.658 553.436 388.57 554.768 388.592 556.766C388.57 558.807 386.658 560.074 383.865 560.074C381.051 560.074 379.139 558.807 379.139 556.766C379.139 554.768 381.051 553.436 383.865 553.436ZM383.865 554.725C381.996 554.703 380.729 555.541 380.75 556.766C380.729 558.012 381.996 558.828 383.865 558.828C385.67 558.828 386.959 558.012 386.98 556.766C386.959 555.541 385.67 554.703 383.865 554.725Z" fill="#222222"/>
<rect width="189" height="58" transform="translate(69 596)" fill="#9CF9DF"/>
<path d="M132.713 619.271C132.713 621.764 134.582 623.998 137.396 624.922L136.602 626.254C134.399 625.534 132.734 624.009 131.918 622.086C131.091 624.277 129.329 625.985 127.041 626.812L126.182 625.459C129.039 624.492 131.037 622.021 131.059 619.271V618.455H126.697V617.059H137.01V618.455H132.713V619.271ZM141.178 615.641V620.518H144.057V621.936H141.178V627.178H139.502V615.641H141.178ZM135.055 627.693C138.986 627.693 141.35 628.982 141.35 631.174C141.35 633.408 138.986 634.697 135.055 634.697C131.123 634.697 128.717 633.408 128.717 631.174C128.717 628.982 131.123 627.693 135.055 627.693ZM135.055 629.047C132.176 629.047 130.393 629.842 130.414 631.174C130.393 632.549 132.176 633.344 135.055 633.344C137.955 633.344 139.717 632.549 139.717 631.174C139.717 629.842 137.955 629.047 135.055 629.047ZM161.008 615.641V634.783H159.311V615.641H161.008ZM148.053 617.273V622.322H153.746V617.273H155.4V630.164H146.377V617.273H148.053ZM148.053 628.746H153.746V623.676H148.053V628.746ZM180.107 615.662V629.777H178.41V624.621H173.469C172.588 625.749 171.17 626.426 169.537 626.426C166.68 626.426 164.574 624.449 164.574 621.656C164.574 618.863 166.68 616.887 169.537 616.865C171.159 616.876 172.545 617.542 173.447 618.648H178.41V615.662H180.107ZM180.645 632.914V634.332H167.84V628.295H169.537V632.914H180.645ZM169.537 618.369C167.582 618.391 166.186 619.744 166.186 621.656C166.186 623.568 167.582 624.922 169.537 624.922C171.406 624.922 172.846 623.568 172.846 621.656C172.846 619.744 171.406 618.391 169.537 618.369ZM174.221 620.045C174.382 620.539 174.479 621.076 174.479 621.656C174.479 622.215 174.382 622.741 174.221 623.225H178.41V620.045H174.221ZM199.121 615.641V625.416H197.424V623.418H192.332V622.086H197.424V619.787H192.611C191.408 622.806 188.443 624.836 184.211 625.846L183.609 624.449C188.293 623.364 191.021 621.076 191.344 618.004H184.576V616.607H193.191C193.191 617.241 193.127 617.854 193.02 618.434H197.424V615.641H199.121ZM199.121 626.275V630.938H188.465V633.172H199.766V634.568H186.789V629.648H197.424V627.65H186.746V626.275H199.121Z" fill="#222222"/>
<rect width="188" height="58" transform="translate(262 596)" fill="#D4F9F0"/>
<path d="M323.258 617.445V633H321.303V619.465H321.217L317.436 621.979V620.023L321.303 617.445H323.258ZM332.496 633.215C329.037 633.215 327.061 630.314 327.061 625.223C327.061 620.174 329.08 617.23 332.496 617.23C335.912 617.23 337.932 620.174 337.932 625.223C337.932 630.314 335.934 633.215 332.496 633.215ZM332.496 631.496C334.73 631.496 336.041 629.24 336.041 625.223C336.041 621.205 334.73 618.906 332.496 618.906C330.262 618.906 328.93 621.205 328.93 625.223C328.93 629.24 330.24 631.496 332.496 631.496ZM345.602 633.215C342.143 633.215 340.166 630.314 340.166 625.223C340.166 620.174 342.186 617.23 345.602 617.23C349.018 617.23 351.037 620.174 351.037 625.223C351.037 630.314 349.039 633.215 345.602 633.215ZM345.602 631.496C347.836 631.496 349.146 629.24 349.146 625.223C349.146 621.205 347.836 618.906 345.602 618.906C343.367 618.906 342.035 621.205 342.035 625.223C342.035 629.24 343.346 631.496 345.602 631.496ZM362.574 617.381V626.168H353.744V617.381H362.574ZM355.398 618.756V624.814H360.941V618.756H355.398ZM367.859 615.641V621.463H370.738V622.881H367.859V629.648H366.184V615.641H367.859ZM368.74 632.914V634.332H355.914V628.316H357.568V632.914H368.74ZM393.211 615.662V630.164H391.514V628.188H387.561V626.963H391.514V615.662H393.211ZM393.684 632.914V634.332H380.105V628.746H381.803V632.914H393.684ZM377.355 624.514C380.922 624.492 385.691 624.471 389.795 623.955L389.902 625.18C388.194 625.448 386.411 625.62 384.66 625.717V629.498H382.963V625.803C381.029 625.889 379.192 625.899 377.592 625.889L377.355 624.514ZM383.629 616.436C386.422 616.436 388.334 617.768 388.355 619.766C388.334 621.807 386.422 623.074 383.629 623.074C380.814 623.074 378.902 621.807 378.902 619.766C378.902 617.768 380.814 616.436 383.629 616.436ZM383.629 617.725C381.76 617.703 380.492 618.541 380.514 619.766C380.492 621.012 381.76 621.828 383.629 621.828C385.434 621.828 386.723 621.012 386.744 619.766C386.723 618.541 385.434 617.703 383.629 617.725Z" fill="#222222"/>
<rect width="386" height="50" transform="translate(69 668)" fill="#53D4B1"/>
<path d="M201.487 684.371V686.246H197.62V689.908H201.487V691.871H197.62V695.826H195.335V680.328H197.62V684.371H201.487ZM197.62 697.027V706.373H195.335V698.932H180.569V697.027H197.62ZM184.583 681.91C188.538 681.881 191.409 684.43 191.438 688.033C191.409 691.695 188.538 694.215 184.583 694.215C180.628 694.215 177.728 691.695 177.757 688.033C177.728 684.43 180.628 681.881 184.583 681.91ZM184.583 683.873C181.946 683.873 179.983 685.572 180.013 688.033C179.983 690.523 181.946 692.252 184.583 692.223C187.249 692.252 189.183 690.523 189.183 688.033C189.183 685.572 187.249 683.873 184.583 683.873ZM218.567 704.293C214.729 704.293 211.829 701.92 211.683 698.668H214.231C214.437 700.572 216.282 701.979 218.567 701.979C221.321 701.979 223.313 699.957 223.313 697.291C223.313 694.537 221.233 692.516 218.392 692.486C216.604 692.457 215.228 693.014 214.437 694.391H211.888L213.382 682.789H224.866V685.133H215.579L214.788 691.344H214.993C215.931 690.611 217.366 690.113 218.86 690.113C222.903 690.113 225.892 693.102 225.892 697.232C225.892 701.334 222.786 704.293 218.567 704.293ZM232.103 702.037L229.817 710.006H227.649L229.261 702.037H232.103ZM242.913 704.293C238.46 704.293 235.354 701.832 235.384 698.375C235.354 695.621 237.259 693.365 239.69 692.984V692.867C237.581 692.369 236.204 690.436 236.204 688.121C236.204 684.869 239.046 682.496 242.913 682.496C246.78 682.496 249.622 684.869 249.651 688.121C249.622 690.436 248.216 692.369 246.136 692.867V692.984C248.538 693.365 250.442 695.621 250.472 698.375C250.442 701.832 247.337 704.293 242.913 704.293ZM242.913 701.979C245.96 701.979 247.835 700.455 247.835 698.229C247.835 695.885 245.755 694.156 242.913 694.156C240.071 694.156 237.962 695.885 238.021 698.229C237.962 700.455 239.866 701.979 242.913 701.979ZM242.913 691.93C245.315 691.93 247.073 690.465 247.073 688.326C247.073 686.217 245.403 684.781 242.913 684.781C240.394 684.781 238.753 686.217 238.753 688.326C238.753 690.465 240.481 691.93 242.913 691.93ZM261.341 704.293C257.122 704.293 254.104 702.037 253.958 698.668H256.624C256.771 700.689 258.792 701.949 261.312 701.949C264.095 701.949 266.146 700.426 266.146 698.229C266.146 695.914 264.3 694.273 260.989 694.273H259.261V691.959H260.989C263.567 691.959 265.354 690.523 265.354 688.326C265.354 686.217 263.802 684.781 261.399 684.781C259.144 684.781 257.063 686.041 256.946 688.121H254.397C254.544 684.752 257.649 682.496 261.429 682.496C265.472 682.496 267.933 685.133 267.903 688.18C267.933 690.582 266.526 692.369 264.3 692.984V693.131C267.054 693.57 268.753 695.533 268.724 698.229C268.753 701.715 265.56 704.293 261.341 704.293ZM279.476 704.293C274.759 704.293 272.063 700.338 272.063 693.395C272.063 686.51 274.817 682.496 279.476 682.496C284.134 682.496 286.888 686.51 286.888 693.395C286.888 700.338 284.163 704.293 279.476 704.293ZM279.476 701.949C282.522 701.949 284.31 698.873 284.31 693.395C284.31 687.916 282.522 684.781 279.476 684.781C276.429 684.781 274.612 687.916 274.612 693.395C274.612 698.873 276.399 701.949 279.476 701.949ZM302.62 682.701V694.684H290.579V682.701H302.62ZM292.835 684.576V692.838H300.394V684.576H292.835ZM309.827 680.328V688.268H313.753V690.201H309.827V699.43H307.542V680.328H309.827ZM311.028 703.883V705.816H293.538V697.613H295.794V703.883H311.028ZM344.397 680.357V700.133H342.083V697.438H336.692V695.768H342.083V680.357H344.397ZM345.042 703.883V705.816H326.526V698.199H328.841V703.883H345.042ZM322.776 692.428C327.64 692.398 334.144 692.369 339.739 691.666L339.886 693.336C337.557 693.702 335.125 693.937 332.737 694.068V699.225H330.423V694.186C327.786 694.303 325.281 694.317 323.099 694.303L322.776 692.428ZM331.331 681.412C335.14 681.412 337.747 683.229 337.776 685.953C337.747 688.736 335.14 690.465 331.331 690.465C327.493 690.465 324.886 688.736 324.886 685.953C324.886 683.229 327.493 681.412 331.331 681.412ZM331.331 683.17C328.782 683.141 327.054 684.283 327.083 685.953C327.054 687.652 328.782 688.766 331.331 688.766C333.792 688.766 335.55 687.652 335.579 685.953C335.55 684.283 333.792 683.141 331.331 683.17Z" fill="white"/>
<path d="M176.204 694.449H347.796V696.485H176.204V694.449Z" fill="white"/>
<rect x="68" y="744" width="388" height="77" fill="#D4F9F0"/>
<rect x="68" y="744" width="388" height="77" stroke="#0AC290" stroke-width="2"/>
<path d="M165.211 770.688C165.211 775.469 168.352 780.391 175.289 782.5L172.43 787.141C167.648 785.781 164.273 782.852 162.352 779.125C160.453 783.156 157.055 786.32 152.133 787.844L149.227 783.156C156.164 781.094 159.258 775.891 159.258 770.688V770.359H150.68V765.672H159.258V760.938H165.305V765.672H173.836V770.359H165.211V770.688ZM185.461 760.703V792.344H179.508V777.953H172.43V773.125H179.508V760.703H185.461ZM186.492 797.781V802.562H157.148V789.625H163.148V797.781H186.492ZM212.742 764.172V784.656H192.258V764.172H212.742ZM198.164 768.953V779.969H206.836V768.953H198.164ZM224.836 760.656V772.938H230.602V777.859H224.836V791.781H218.836V760.656H224.836ZM226.383 797.781V802.562H197.18V788.734H203.133V797.781H226.383ZM279.68 760.703V792.906H273.68V789.531H265.523V785.453H273.68V760.703H279.68ZM280.617 797.781V802.562H248.836V789.812H254.789V784.141C250.969 784.305 247.336 784.328 244.102 784.328L243.398 779.594C251.227 779.547 261.773 779.453 270.773 778.328L271.102 782.594C267.727 783.156 264.234 783.555 260.789 783.812V791.922H254.789V797.781H280.617ZM257.273 762.156C263.461 762.109 267.914 765.25 267.914 769.797C267.914 774.344 263.461 777.297 257.273 777.297C250.945 777.297 246.539 774.344 246.539 769.797C246.539 765.25 250.898 762.109 257.273 762.156ZM257.273 766.516C254.227 766.516 252.164 767.688 252.211 769.797C252.164 771.859 254.227 772.984 257.273 772.984C260.133 772.984 262.195 771.859 262.242 769.797C262.195 767.688 260.133 766.516 257.273 766.516Z" fill="#377B68"/>
<rect width="89" height="59" transform="translate(287 753)" fill="#377B68"/>
<path d="M307.828 773.281C307.828 780.172 311.344 787.531 318.516 790.531L315.281 795.219C310.242 793.086 306.773 788.844 304.875 783.641C302.93 789.289 299.391 793.977 294.375 796.297L290.953 791.562C298.031 788.422 301.688 780.5 301.688 773.281V770.656H292.641V765.781H316.734V770.656H307.828V773.281ZM327 761.656V804.312H320.953V761.656H327ZM368.906 761.703V793.906H362.906V790.531H354.75V786.453H362.906V761.703H368.906ZM369.844 798.781V803.562H338.062V790.812H344.016V785.141C340.195 785.305 336.562 785.328 333.328 785.328L332.625 780.594C340.453 780.547 351 780.453 360 779.328L360.328 783.594C356.953 784.156 353.461 784.555 350.016 784.812V792.922H344.016V798.781H369.844ZM346.5 763.156C352.688 763.109 357.141 766.25 357.141 770.797C357.141 775.344 352.688 778.297 346.5 778.297C340.172 778.297 335.766 775.344 335.766 770.797C335.766 766.25 340.125 763.109 346.5 763.156ZM346.5 767.516C343.453 767.516 341.391 768.688 341.438 770.797C341.391 772.859 343.453 773.984 346.5 773.984C349.359 773.984 351.422 772.859 351.469 770.797C351.422 768.688 349.359 767.516 346.5 767.516Z" fill="white"/>
</svg>
