<svg width="500" height="575" viewBox="0 0 500 575" fill="none" xmlns="http://www.w3.org/2000/svg">
<path d="M0 5C0 2.23858 2.23858 0 5 0H420C422.761 0 425 2.23858 425 5V478H0V5Z" fill="white"/>
<path d="M0 5C0 2.23858 2.23858 0 5 0H420C422.761 0 425 2.23858 425 5V81H0V5Z" fill="#9CF9DF"/>
<path d="M0 397H425V473C425 475.761 422.761 478 420 478H5C2.23858 478 0 475.761 0 473V397Z" fill="#9CF9DF"/>
<line y1="80" x2="425" y2="80" stroke="#53D4B1" stroke-width="2"/>
<path d="M50.3262 39.1797V49.4336H48.4707V48.5938H45.0527V47.4219H48.4707V39.1797H50.3262ZM35.7363 45.625C39.1152 45.6445 43.4121 45.6055 47.1816 45.1953L47.2793 46.3867C45.6289 46.6113 43.9199 46.748 42.2402 46.8359V49.4727H40.4043V46.9141C38.8223 46.9531 37.3184 46.9629 35.9512 46.9531L35.7363 45.625ZM50.3262 50.0195V53.7891H40.248V55.1367H50.8535V56.4844H38.4316V52.5586H48.4902V51.3086H38.3535V50.0195H50.3262ZM41.4199 39.4727C44.0176 39.4727 45.7754 40.5078 45.7949 42.1094C45.7754 43.75 44.0176 44.7266 41.4199 44.7266C38.7637 44.7266 37.0254 43.75 37.0449 42.1094C37.0254 40.5078 38.7637 39.4727 41.4199 39.4727ZM41.4199 40.7227C39.7988 40.7227 38.7832 41.2695 38.7832 42.1094C38.7832 42.9492 39.7988 43.4766 41.4199 43.4766C43.002 43.4766 44.0371 42.9492 44.0371 42.1094C44.0371 41.2695 43.002 40.7227 41.4199 40.7227ZM73.002 39.1602V56.6602H71.2246V47.5391H69.0566V55.8008H67.2988V39.4922H69.0566V46.0156H71.2246V39.1602H73.002ZM65.3262 41.1328V52.0508H58.5293V41.1328H65.3262ZM60.2871 42.5977V50.5664H63.5879V42.5977H60.2871ZM91.166 46.8359V48.2227H84.1152V49.6875H89.1738V53.6328H78.9785V55.0781H89.6621V56.4844H77.1621V52.3438H87.3379V51.0352H77.1426V49.6875H82.2793V48.2227H75.248V46.8359H91.166ZM84.1152 39.082V40.625H89.584V42.0508H84.2715C84.623 43.5352 86.9961 44.5703 90.3848 44.7461L89.8184 46.1523C86.7715 45.9375 84.291 45.0391 83.1973 43.4961C82.1035 45.0391 79.623 45.9375 76.5566 46.1523L76.0293 44.7461C79.3887 44.5703 81.752 43.5352 82.1426 42.0508H76.8301V40.625H82.2793V39.082H84.1152Z" fill="#222222"/>
<path d="M44.7012 430.371C44.7012 432.559 47.5137 434.668 50.834 435.156L50.1113 436.621C47.3379 436.162 44.8867 434.727 43.7637 432.754C42.6504 434.766 40.1797 436.201 37.3965 436.66L36.6934 435.195C40.0137 434.688 42.8066 432.637 42.8066 430.371V429.609H44.7012V430.371ZM51.7715 437.969V439.473H44.8184V442.852H42.9824V439.473H35.7559V437.969H51.7715ZM49.9941 444.785V446.289H37.748V441.211H39.6035V444.785H49.9941ZM72.4355 429.16V446.699H70.5801V429.16H72.4355ZM63.0801 430.469C65.6777 430.469 67.5918 432.852 67.5918 436.602C67.5918 440.371 65.6777 442.754 63.0801 442.754C60.4434 442.754 58.5488 440.371 58.5488 436.602C58.5488 432.852 60.4434 430.469 63.0801 430.469ZM63.0801 432.129C61.459 432.129 60.3457 433.848 60.3457 436.602C60.3457 439.375 61.459 441.094 63.0801 441.094C64.6816 441.094 65.7949 439.375 65.7949 436.602C65.7949 433.848 64.6816 432.129 63.0801 432.129ZM89.7402 440.43V446.66H87.8848V441.934H77.8848V440.43H89.7402ZM89.7402 429.16V439.531H87.8848V429.16H89.7402ZM80.248 430.176C82.9238 430.176 84.8965 431.895 84.8965 434.355C84.8965 436.816 82.9238 438.535 80.248 438.535C77.5723 438.535 75.5801 436.816 75.5801 434.355C75.5801 431.895 77.5723 430.176 80.248 430.176ZM80.248 431.758C78.5879 431.758 77.3965 432.793 77.3965 434.355C77.3965 435.938 78.5879 436.973 80.248 436.953C81.8887 436.973 83.0801 435.938 83.0801 434.355C83.0801 432.793 81.8887 431.758 80.248 431.758Z" fill="#222222"/>
<path d="M33.5459 103.814V113.025H32.1572V112.164H28.9932V111.25H32.1572V103.814H33.5459ZM20.6084 109.703C23.6318 109.721 27.499 109.686 30.874 109.316L30.9619 110.213C29.4326 110.433 27.8418 110.564 26.2861 110.635V113.078H24.9326V110.688C23.4561 110.74 22.041 110.749 20.7666 110.74L20.6084 109.703ZM33.5459 113.588V116.822H24.4229V118.229H34.0557V119.248H23.0693V115.855H32.1748V114.59H22.999V113.588H33.5459ZM25.7061 104.113C28.0264 104.113 29.5732 105.027 29.5908 106.469C29.5732 107.928 28.0264 108.807 25.7061 108.807C23.3506 108.807 21.8213 107.928 21.8213 106.469C21.8213 105.027 23.3506 104.113 25.7061 104.113ZM25.7061 105.08C24.124 105.08 23.1045 105.625 23.1221 106.469C23.1045 107.295 24.124 107.857 25.7061 107.857C27.2705 107.857 28.29 107.295 28.29 106.469C28.29 105.625 27.2705 105.08 25.7061 105.08ZM49.1201 103.814V112.744H47.749V103.814H49.1201ZM49.1201 113.588V119.213H38.96V113.588H49.1201ZM40.3135 114.713V118.088H47.7666V114.713H40.3135ZM40.6826 104.641C43.0557 104.641 44.7783 106.117 44.7783 108.297C44.7783 110.441 43.0557 111.936 40.6826 111.936C38.3096 111.936 36.5869 110.441 36.5869 108.297C36.5869 106.117 38.3096 104.641 40.6826 104.641ZM40.6826 105.818C39.083 105.801 37.9229 106.838 37.9404 108.297C37.9229 109.738 39.083 110.758 40.6826 110.758C42.2646 110.758 43.4248 109.738 43.4248 108.297C43.4248 106.838 42.2646 105.801 40.6826 105.818ZM56.9775 108.895C56.9775 111.391 58.6123 113.957 60.8799 115.047L60.0713 116.119C58.3486 115.275 56.9863 113.57 56.3447 111.549C55.6592 113.72 54.209 115.539 52.4248 116.4L51.6338 115.328C53.9189 114.256 55.624 111.584 55.6416 108.895V107.646H52.0557V106.521H55.624V104.096H57.0127V106.521H60.5283V107.646H56.9775V108.895ZM63.8682 103.797V110.213H66.4873V111.391H63.8682V119.424H62.4971V103.797H63.8682ZM81.6396 116.33V117.49H67.3311V116.33H71.3564V113.359H69.124V108.543H78.4756V106.1H69.0889V104.957H79.8291V109.686H70.4951V112.217H80.1982V113.359H77.7549V116.33H81.6396ZM72.71 116.33H76.4014V113.359H72.71V116.33ZM92.5205 104.676L88.4072 119.916H87.0361L91.1318 104.676H92.5205ZM106.601 105.01V105.836C106.583 106.855 106.583 108.42 106.196 110.459L104.808 110.354C105.186 108.481 105.221 107.154 105.247 106.17H98.8135V105.01H106.601ZM102.575 108.473V111.83C104.307 111.76 106.1 111.637 107.726 111.408L107.813 112.428C104.544 112.99 100.765 113.061 97.9873 113.061L97.8467 111.918C98.8574 111.909 100 111.9 101.204 111.865V108.473H102.575ZM110.187 103.797V108.895H112.472V110.072H110.187V115.557H108.78V103.797H110.187ZM110.696 117.93V119.09H100.255V114.502H101.644V117.93H110.696ZM126.394 103.797V119.459H125.022V103.797H126.394ZM121.647 105.256V110.811H115.812V114.502C118.404 114.502 120.716 114.388 123.511 113.939L123.651 115.1C120.769 115.557 118.396 115.662 115.706 115.662H114.405V109.686H120.259V106.398H114.37V105.256H121.647ZM141.933 103.797V119.459H140.544V103.797H141.933ZM131.333 105.133V109.264H135.991V105.133H137.345V115.68H129.962V105.133H131.333ZM131.333 114.52H135.991V110.371H131.333V114.52Z" fill="#222222"/>
<path d="M33.7002 154.814V166.24H32.3291V154.814H33.7002ZM34.1924 168.93V170.09H23.6104V165.08H24.9814V168.93H34.1924ZM25.2627 155.904C27.6006 155.904 29.3584 157.486 29.3584 159.736C29.3584 162.021 27.6006 163.586 25.2627 163.586C22.9248 163.586 21.167 162.021 21.167 159.736C21.167 157.486 22.9248 155.904 25.2627 155.904ZM25.2627 157.117C23.6807 157.117 22.5029 158.207 22.5205 159.736C22.5029 161.301 23.6807 162.373 25.2627 162.373C26.8096 162.373 28.0049 161.301 28.0049 159.736C28.0049 158.207 26.8096 157.117 25.2627 157.117ZM49.3096 154.814V166.363H47.9209V160.791H44.458V159.631H47.9209V154.814H49.3096ZM44.5283 156.01C44.5107 160.018 41.6455 163.076 37.1982 164.535L36.6006 163.428C40.2041 162.241 42.709 160 43.0166 157.17H37.3916V156.01H44.5283ZM49.7139 168.93V170.09H39.3604V165.186H40.7666V168.93H49.7139ZM64.7959 154.797V170.459H63.4072V154.797H64.7959ZM54.1963 156.133V160.264H58.8545V156.133H60.208V166.68H52.8252V156.133H54.1963ZM54.1963 165.52H58.8545V161.371H54.1963V165.52Z" fill="#222222"/>
<path d="M354.711 105.273V118H353.111V106.926H353.041L349.947 108.982V107.383L353.111 105.273H354.711ZM362.27 118.176C359.439 118.176 357.822 115.803 357.822 111.637C357.822 107.506 359.475 105.098 362.27 105.098C365.064 105.098 366.717 107.506 366.717 111.637C366.717 115.803 365.082 118.176 362.27 118.176ZM362.27 116.77C364.098 116.77 365.17 114.924 365.17 111.637C365.17 108.35 364.098 106.469 362.27 106.469C360.441 106.469 359.352 108.35 359.352 111.637C359.352 114.924 360.424 116.77 362.27 116.77ZM372.992 118.176C370.162 118.176 368.545 115.803 368.545 111.637C368.545 107.506 370.197 105.098 372.992 105.098C375.787 105.098 377.439 107.506 377.439 111.637C377.439 115.803 375.805 118.176 372.992 118.176ZM372.992 116.77C374.82 116.77 375.893 114.924 375.893 111.637C375.893 108.35 374.82 106.469 372.992 106.469C371.164 106.469 370.074 108.35 370.074 111.637C370.074 114.924 371.146 116.77 372.992 116.77ZM386.879 105.221V112.41H379.654V105.221H386.879ZM381.008 106.346V111.303H385.543V106.346H381.008ZM391.203 103.797V108.561H393.559V109.721H391.203V115.258H389.832V103.797H391.203ZM391.924 117.93V119.09H381.43V114.168H382.783V117.93H391.924ZM411.945 103.814V115.68H410.557V114.062H407.322V113.061H410.557V103.814H411.945ZM412.332 117.93V119.09H401.223V114.52H402.611V117.93H412.332ZM398.973 111.057C401.891 111.039 405.793 111.021 409.15 110.6L409.238 111.602C407.841 111.821 406.382 111.962 404.949 112.041V115.135H403.561V112.111C401.979 112.182 400.476 112.19 399.166 112.182L398.973 111.057ZM404.105 104.447C406.391 104.447 407.955 105.537 407.973 107.172C407.955 108.842 406.391 109.879 404.105 109.879C401.803 109.879 400.238 108.842 400.238 107.172C400.238 105.537 401.803 104.447 404.105 104.447ZM404.105 105.502C402.576 105.484 401.539 106.17 401.557 107.172C401.539 108.191 402.576 108.859 404.105 108.859C405.582 108.859 406.637 108.191 406.654 107.172C406.637 106.17 405.582 105.484 404.105 105.502Z" fill="#222222"/>
<path d="M357.814 218.176C355.143 218.176 353.279 216.699 353.297 214.625C353.279 212.973 354.422 211.619 355.881 211.391V211.32C354.615 211.021 353.789 209.861 353.789 208.473C353.789 206.521 355.494 205.098 357.814 205.098C360.135 205.098 361.84 206.521 361.857 208.473C361.84 209.861 360.996 211.021 359.748 211.32V211.391C361.189 211.619 362.332 212.973 362.35 214.625C362.332 216.699 360.469 218.176 357.814 218.176ZM357.814 216.787C359.643 216.787 360.768 215.873 360.768 214.537C360.768 213.131 359.52 212.094 357.814 212.094C356.109 212.094 354.844 213.131 354.879 214.537C354.844 215.873 355.986 216.787 357.814 216.787ZM357.814 210.758C359.256 210.758 360.311 209.879 360.311 208.596C360.311 207.33 359.309 206.469 357.814 206.469C356.303 206.469 355.318 207.33 355.318 208.596C355.318 209.879 356.355 210.758 357.814 210.758ZM368.643 218.176C365.812 218.176 364.195 215.803 364.195 211.637C364.195 207.506 365.848 205.098 368.643 205.098C371.438 205.098 373.09 207.506 373.09 211.637C373.09 215.803 371.455 218.176 368.643 218.176ZM368.643 216.77C370.471 216.77 371.543 214.924 371.543 211.637C371.543 208.35 370.471 206.469 368.643 206.469C366.814 206.469 365.725 208.35 365.725 211.637C365.725 214.924 366.797 216.77 368.643 216.77ZM382.529 205.221V212.41H375.305V205.221H382.529ZM376.658 206.346V211.303H381.193V206.346H376.658ZM386.854 203.797V208.561H389.209V209.721H386.854V215.258H385.482V203.797H386.854ZM387.574 217.93V219.09H377.08V214.168H378.434V217.93H387.574ZM407.596 203.814V215.68H406.207V214.062H402.973V213.061H406.207V203.814H407.596ZM407.982 217.93V219.09H396.873V214.52H398.262V217.93H407.982ZM394.623 211.057C397.541 211.039 401.443 211.021 404.801 210.6L404.889 211.602C403.491 211.821 402.032 211.962 400.6 212.041V215.135H399.211V212.111C397.629 212.182 396.126 212.19 394.816 212.182L394.623 211.057ZM399.756 204.447C402.041 204.447 403.605 205.537 403.623 207.172C403.605 208.842 402.041 209.879 399.756 209.879C397.453 209.879 395.889 208.842 395.889 207.172C395.889 205.537 397.453 204.447 399.756 204.447ZM399.756 205.502C398.227 205.484 397.189 206.17 397.207 207.172C397.189 208.191 398.227 208.859 399.756 208.859C401.232 208.859 402.287 208.191 402.305 207.172C402.287 206.17 401.232 205.484 399.756 205.502Z" fill="#222222"/>
<path d="M354.236 271L354.219 269.84L358.561 265.27C360.072 263.67 360.793 262.809 360.793 261.631C360.793 260.33 359.686 259.469 358.262 259.469C356.75 259.469 355.783 260.436 355.783 261.859H354.289C354.271 259.609 356.012 258.098 358.314 258.098C360.617 258.098 362.27 259.645 362.27 261.631C362.27 263.055 361.602 264.162 359.352 266.482L356.434 269.488V269.594H362.498V271H354.236ZM368.967 271.176C366.137 271.176 364.52 268.803 364.52 264.637C364.52 260.506 366.172 258.098 368.967 258.098C371.762 258.098 373.414 260.506 373.414 264.637C373.414 268.803 371.779 271.176 368.967 271.176ZM368.967 269.77C370.795 269.77 371.867 267.924 371.867 264.637C371.867 261.35 370.795 259.469 368.967 259.469C367.139 259.469 366.049 261.35 366.049 264.637C366.049 267.924 367.121 269.77 368.967 269.77ZM382.854 258.221V265.41H375.629V258.221H382.854ZM376.982 259.346V264.303H381.518V259.346H376.982ZM387.178 256.797V261.561H389.533V262.721H387.178V268.258H385.807V256.797H387.178ZM387.898 270.93V272.09H377.404V267.168H378.758V270.93H387.898ZM407.92 256.814V268.68H406.531V267.062H403.297V266.061H406.531V256.814H407.92ZM408.307 270.93V272.09H397.197V267.52H398.586V270.93H408.307ZM394.947 264.057C397.865 264.039 401.768 264.021 405.125 263.6L405.213 264.602C403.815 264.821 402.356 264.962 400.924 265.041V268.135H399.535V265.111C397.953 265.182 396.45 265.19 395.141 265.182L394.947 264.057ZM400.08 257.447C402.365 257.447 403.93 258.537 403.947 260.172C403.93 261.842 402.365 262.879 400.08 262.879C397.777 262.879 396.213 261.842 396.213 260.172C396.213 258.537 397.777 257.447 400.08 257.447ZM400.08 258.502C398.551 258.484 397.514 259.17 397.531 260.172C397.514 261.191 398.551 261.859 400.08 261.859C401.557 261.859 402.611 261.191 402.629 260.172C402.611 259.17 401.557 258.484 400.08 258.502Z" fill="#222222"/>
<path d="M356.126 309.273V322H354.526V310.926H354.456L351.362 312.982V311.383L354.526 309.273H356.126ZM364.019 309.273V322H362.419V310.926H362.349L359.255 312.982V311.383L362.419 309.273H364.019ZM371.577 322.176C368.747 322.176 367.13 319.803 367.13 315.637C367.13 311.506 368.782 309.098 371.577 309.098C374.372 309.098 376.024 311.506 376.024 315.637C376.024 319.803 374.39 322.176 371.577 322.176ZM371.577 320.77C373.405 320.77 374.478 318.924 374.478 315.637C374.478 312.35 373.405 310.469 371.577 310.469C369.749 310.469 368.659 312.35 368.659 315.637C368.659 318.924 369.731 320.77 371.577 320.77ZM385.464 309.221V316.41H378.239V309.221H385.464ZM379.593 310.346V315.303H384.128V310.346H379.593ZM389.788 307.797V312.561H392.144V313.721H389.788V319.258H388.417V307.797H389.788ZM390.509 321.93V323.09H380.015V318.168H381.368V321.93H390.509ZM410.53 307.814V319.68H409.142V318.062H405.907V317.061H409.142V307.814H410.53ZM410.917 321.93V323.09H399.808V318.52H401.196V321.93H410.917ZM397.558 315.057C400.476 315.039 404.378 315.021 407.735 314.6L407.823 315.602C406.426 315.821 404.967 315.962 403.534 316.041V319.135H402.146V316.111C400.563 316.182 399.061 316.19 397.751 316.182L397.558 315.057ZM402.69 308.447C404.976 308.447 406.54 309.537 406.558 311.172C406.54 312.842 404.976 313.879 402.69 313.879C400.388 313.879 398.823 312.842 398.823 311.172C398.823 309.537 400.388 308.447 402.69 308.447ZM402.69 309.502C401.161 309.484 400.124 310.17 400.142 311.172C400.124 312.191 401.161 312.859 402.69 312.859C404.167 312.859 405.222 312.191 405.239 311.172C405.222 310.17 404.167 309.484 402.69 309.502Z" fill="#222222"/>
<path d="M354.236 373L354.219 371.84L358.561 367.27C360.072 365.67 360.793 364.809 360.793 363.631C360.793 362.33 359.686 361.469 358.262 361.469C356.75 361.469 355.783 362.436 355.783 363.859H354.289C354.271 361.609 356.012 360.098 358.314 360.098C360.617 360.098 362.27 361.645 362.27 363.631C362.27 365.055 361.602 366.162 359.352 368.482L356.434 371.488V371.594H362.498V373H354.236ZM368.967 373.176C366.137 373.176 364.52 370.803 364.52 366.637C364.52 362.506 366.172 360.098 368.967 360.098C371.762 360.098 373.414 362.506 373.414 366.637C373.414 370.803 371.779 373.176 368.967 373.176ZM368.967 371.77C370.795 371.77 371.867 369.924 371.867 366.637C371.867 363.35 370.795 361.469 368.967 361.469C367.139 361.469 366.049 363.35 366.049 366.637C366.049 369.924 367.121 371.77 368.967 371.77ZM382.854 360.221V367.41H375.629V360.221H382.854ZM376.982 361.346V366.303H381.518V361.346H376.982ZM387.178 358.797V363.561H389.533V364.721H387.178V370.258H385.807V358.797H387.178ZM387.898 372.93V374.09H377.404V369.168H378.758V372.93H387.898ZM407.92 358.814V370.68H406.531V369.062H403.297V368.061H406.531V358.814H407.92ZM408.307 372.93V374.09H397.197V369.52H398.586V372.93H408.307ZM394.947 366.057C397.865 366.039 401.768 366.021 405.125 365.6L405.213 366.602C403.815 366.821 402.356 366.962 400.924 367.041V370.135H399.535V367.111C397.953 367.182 396.45 367.19 395.141 367.182L394.947 366.057ZM400.08 359.447C402.365 359.447 403.93 360.537 403.947 362.172C403.93 363.842 402.365 364.879 400.08 364.879C397.777 364.879 396.213 363.842 396.213 362.172C396.213 360.537 397.777 359.447 400.08 359.447ZM400.08 360.502C398.551 360.484 397.514 361.17 397.531 362.172C397.514 363.191 398.551 363.859 400.08 363.859C401.557 363.859 402.611 363.191 402.629 362.172C402.611 361.17 401.557 360.484 400.08 360.502Z" fill="black"/>
<path d="M363.685 168.176C360.854 168.176 359.237 165.803 359.237 161.637C359.237 157.506 360.89 155.098 363.685 155.098C366.479 155.098 368.132 157.506 368.132 161.637C368.132 165.803 366.497 168.176 363.685 168.176ZM363.685 166.77C365.513 166.77 366.585 164.924 366.585 161.637C366.585 158.35 365.513 156.469 363.685 156.469C361.856 156.469 360.767 158.35 360.767 161.637C360.767 164.924 361.839 166.77 363.685 166.77ZM377.571 155.221V162.41H370.347V155.221H377.571ZM371.7 156.346V161.303H376.235V156.346H371.7ZM381.896 153.797V158.561H384.251V159.721H381.896V165.258H380.524V153.797H381.896ZM382.616 167.93V169.09H372.122V164.168H373.476V167.93H382.616ZM402.638 153.814V165.68H401.249V164.062H398.015V163.061H401.249V153.814H402.638ZM403.024 167.93V169.09H391.915V164.52H393.304V167.93H403.024ZM389.665 161.057C392.583 161.039 396.485 161.021 399.843 160.6L399.931 161.602C398.533 161.821 397.074 161.962 395.642 162.041V165.135H394.253V162.111C392.671 162.182 391.168 162.19 389.858 162.182L389.665 161.057ZM394.798 154.447C397.083 154.447 398.647 155.537 398.665 157.172C398.647 158.842 397.083 159.879 394.798 159.879C392.495 159.879 390.931 158.842 390.931 157.172C390.931 155.537 392.495 154.447 394.798 154.447ZM394.798 155.502C393.269 155.484 392.231 156.17 392.249 157.172C392.231 158.191 393.269 158.859 394.798 158.859C396.274 158.859 397.329 158.191 397.347 157.172C397.329 156.17 396.274 155.484 394.798 155.502Z" fill="#222222"/>
<path d="M35.1064 218.242V219.385H20.7979V218.242H27.1963V214.41H28.5498V218.242H35.1064ZM28.585 208.064C28.585 210.684 31.6787 212.969 34.4033 213.443L33.7881 214.586C31.4062 214.103 28.8926 212.485 27.8818 210.227C26.8535 212.477 24.3574 214.103 21.9756 214.586L21.3604 213.443C24.085 212.969 27.1436 210.684 27.1436 208.064V206.869H28.585V208.064ZM50.6631 218.26V219.42H36.3545V218.26H42.7881V214.445H38.042V207.115H48.8877V214.445H44.1416V218.26H50.6631ZM39.3955 208.223V213.338H47.5518V208.223H39.3955ZM66.1494 213.355V214.498H59.6982V216.344H64.4092V221.213H53.6514V216.344H58.3447V214.498H51.9111V213.355H66.1494ZM64.7959 206.307V207.449H62.3877V210.736H64.7432V211.879H53.2998V210.736H55.6553V207.449H53.2471V206.307H64.7959ZM55.0225 217.434V220.088H63.0557V217.434H55.0225ZM57.0264 210.736H61.0166V207.449H57.0264V210.736Z" fill="#222222"/>
<path d="M25.7637 261.244C25.7637 263.723 26.9766 266.412 29.0508 267.643L28.2598 268.715C26.7568 267.801 25.6758 266.131 25.1309 264.232C24.5508 266.307 23.3906 268.091 21.8262 269.049L20.9473 268.012C23.1094 266.746 24.4277 263.969 24.4277 261.297V258.273H25.7637V261.244ZM34.5176 256.797V272.424H33.1816V256.797H34.5176ZM31.2832 257.131V271.633H29.9824V263.582H27.3281V262.404H29.9824V257.131H31.2832ZM49.1074 257.641V258.801C49.1074 260.014 49.1074 261.438 48.7031 263.389H50.9883V264.531H36.6797V263.389H47.3145C47.7363 261.429 47.7363 260.014 47.7363 258.801V258.783H38.4902V257.641H49.1074ZM49.1777 266.693V272.213H38.4375V266.693H49.1777ZM39.8086 267.783V271.088H47.8066V267.783H39.8086ZM54.8027 269.822L53.4316 274.604H52.1309L53.0977 269.822H54.8027ZM69.4629 258.432C69.4453 262.949 67.916 267.08 62.291 269.84L61.5176 268.785C64.4619 267.361 66.2285 265.551 67.1777 263.441L61.8164 263.951L61.5879 262.738L67.5996 262.334C67.8721 261.455 68.0303 260.532 68.0918 259.574H62.3789V258.432H69.4629ZM73.4531 256.797V263.16H75.9844V264.32H73.4531V272.424H72.082V256.797H73.4531ZM89.5371 264.32V265.463H78.7441V258.256H89.3789V259.398H80.1152V264.32H89.5371ZM91.2246 269.137V270.297H76.916V269.137H91.2246ZM100.312 258.256C100.312 260.453 103.195 262.369 106.008 262.756L105.445 263.881C103.02 263.477 100.62 262.132 99.6094 260.207C98.6074 262.141 96.1992 263.477 93.7734 263.881L93.2109 262.756C96.0234 262.369 98.8887 260.488 98.8887 258.256V257.359H100.312V258.256ZM106.711 265.604V266.764H100.242V272.424H98.8887V266.764H92.4727V265.604H106.711ZM115.869 258.256C115.869 260.453 118.752 262.369 121.564 262.756L121.002 263.881C118.576 263.477 116.177 262.132 115.166 260.207C114.164 262.141 111.756 263.477 109.33 263.881L108.768 262.756C111.58 262.369 114.445 260.488 114.445 258.256V257.359H115.869V258.256ZM122.268 265.604V266.764H115.799V272.424H114.445V266.764H108.029V265.604H122.268ZM137.895 269.33V270.49H123.586V269.33H127.611V266.359H125.379V261.543H134.73V259.1H125.344V257.957H136.084V262.686H126.75V265.217H136.453V266.359H134.01V269.33H137.895ZM128.965 269.33H132.656V266.359H128.965V269.33Z" fill="#222222"/>
<path d="M33.6348 307.814V319.275H32.2461V313.281H29.0293V312.139H32.2461V307.814H33.6348ZM34.0742 321.93V323.09H23.5977V318.238H24.9863V321.93H34.0742ZM26.1113 311.031C26.1113 313.053 27.6758 315.021 29.9609 315.795L29.2402 316.902C27.4736 316.27 26.1113 314.951 25.4434 313.334C24.7666 315.136 23.3252 316.577 21.4707 317.271L20.75 316.146C23.0527 315.338 24.7227 313.281 24.7227 311.031V310.223H21.1895V309.08H29.6094V310.223H26.1113V311.031ZM49.1562 307.797V323.424H47.7676V307.797H49.1562ZM44.5332 309.502C44.5156 314.002 42.4238 317.975 37.1855 320.488L36.4297 319.363C40.6572 317.359 42.8105 314.362 43.127 310.627H37.1504V309.502H44.5332ZM54.3594 320.822L52.9883 325.604H51.6875L52.6543 320.822H54.3594ZM68.7559 309.256C68.7559 311.453 71.6387 313.369 74.4512 313.756L73.8887 314.881C71.4629 314.477 69.0635 313.132 68.0527 311.207C67.0508 313.141 64.6426 314.477 62.2168 314.881L61.6543 313.756C64.4668 313.369 67.332 311.488 67.332 309.256V308.359H68.7559V309.256ZM75.1543 316.604V317.764H68.6855V323.424H67.332V317.764H60.916V316.604H75.1543ZM89.0938 315.127V316.252H84.2598V320.295H90.7812V321.455H76.4727V320.295H82.9062V316.252H78.3008V309.08H88.9355V310.205H79.6895V315.127H89.0938ZM96.6699 312.244C96.6699 314.723 97.8828 317.412 99.957 318.643L99.166 319.715C97.6631 318.801 96.582 317.131 96.0371 315.232C95.457 317.307 94.2969 319.091 92.7324 320.049L91.8535 319.012C94.0156 317.746 95.334 314.969 95.334 312.297V309.273H96.6699V312.244ZM105.424 307.797V323.424H104.088V307.797H105.424ZM102.189 308.131V322.633H100.889V314.582H98.2344V313.404H100.889V308.131H102.189Z" fill="#222222"/>
<path d="M33.5449 358.814V370.24H32.1738V358.814H33.5449ZM34.0371 372.93V374.09H23.4551V369.08H24.8262V372.93H34.0371ZM25.1074 359.904C27.4453 359.904 29.2031 361.486 29.2031 363.736C29.2031 366.021 27.4453 367.586 25.1074 367.586C22.7695 367.586 21.0117 366.021 21.0117 363.736C21.0117 361.486 22.7695 359.904 25.1074 359.904ZM25.1074 361.117C23.5254 361.117 22.3477 362.207 22.3652 363.736C22.3477 365.301 23.5254 366.373 25.1074 366.373C26.6543 366.373 27.8496 365.301 27.8496 363.736C27.8496 362.207 26.6543 361.117 25.1074 361.117ZM49.1543 358.797V374.459H47.7832V365.846H44.4785V364.703H47.7832V358.797H49.1543ZM44.2148 360.238V361.381H38.3086V364.633H43.5293V365.758H38.3086V369.537C41.1826 369.537 43.0107 369.44 45.1641 369.062L45.3223 370.205C43.0547 370.574 41.1387 370.68 38.1152 370.68H36.9199V360.238H44.2148ZM53.9707 360.221V366.268C55.5967 366.25 57.2314 366.145 59.0859 365.758L59.2266 366.9C57.1348 367.34 55.4121 367.445 53.584 367.445H52.5996V360.221H53.9707ZM65.0625 358.814V369.396H63.7441V358.814H65.0625ZM61.9336 359.131V367.99H60.6152V363.508H57.2402V362.383H60.6152V359.131H61.9336ZM60.5098 369.15C60.5098 371.207 63.1465 372.877 65.8711 373.281L65.3438 374.354C63.0059 373.958 60.7822 372.771 59.8242 371.031C58.8662 372.771 56.6426 373.958 54.3047 374.354L53.7773 373.281C56.502 372.877 59.1387 371.207 59.1387 369.15V368.57H60.5098V369.15ZM69.8789 371.822L68.5078 376.604H67.207L68.1738 371.822H69.8789ZM90.7441 371.277V372.42H76.4355V371.277H82.8691V367.902H78.123V359.904H79.5117V362.734H87.6328V359.904H88.9863V367.902H84.2227V371.277H90.7441ZM79.5117 366.777H87.6328V363.859H79.5117V366.777ZM104.947 358.797V368.271H103.559V364.703H100.904V363.561H103.559V358.797H104.947ZM104.947 369.115V374.213H94.7344V369.115H104.947ZM96.1055 370.223V373.088H103.594V370.223H96.1055ZM101.133 360.449V361.574H92.0098V360.449H95.8945V358.656H97.248V360.449H101.133ZM96.5625 362.383C98.6895 362.383 100.184 363.525 100.201 365.16C100.184 366.848 98.6895 367.955 96.5625 367.955C94.4355 367.955 92.9414 366.848 92.9414 365.16C92.9414 363.525 94.4355 362.383 96.5625 362.383ZM96.5625 363.455C95.209 363.455 94.2598 364.158 94.2598 365.16C94.2598 366.197 95.209 366.883 96.5625 366.9C97.916 366.883 98.8652 366.197 98.8652 365.16C98.8652 364.158 97.916 363.455 96.5625 363.455ZM126.322 366.232V367.393H112.066V366.232H126.322ZM124.652 363.613V364.738H113.877V359.43H124.547V360.59H115.23V363.613H124.652ZM119.186 368.764C122.543 368.764 124.547 369.783 124.564 371.576C124.547 373.387 122.543 374.389 119.186 374.389C115.811 374.389 113.789 373.387 113.789 371.576C113.789 369.783 115.811 368.764 119.186 368.764ZM119.186 369.836C116.672 369.854 115.178 370.486 115.195 371.576C115.178 372.684 116.672 373.299 119.186 373.299C121.664 373.299 123.176 372.684 123.176 371.576C123.176 370.486 121.664 369.854 119.186 369.836Z" fill="#222222"/>
<path d="M270.101 60.332C265.087 60.332 261.435 57.377 261.335 53.2266H266.183C266.282 55.1191 268.009 56.3809 270.101 56.3809C272.591 56.3809 274.351 54.6211 274.351 52.1309C274.351 49.5742 272.558 47.8145 270.034 47.7812C268.241 47.7812 266.979 48.4453 266.249 49.8066H261.733L263.028 35.9609H277.837V40.0449H267.146L266.481 46.1211H266.681C267.577 44.9258 269.37 44.0957 271.495 44.0957C275.911 44.0957 279.198 47.3828 279.198 51.998C279.198 56.8457 275.513 60.332 270.101 60.332ZM291.616 60.332C286.138 60.332 282.187 57.4434 282.187 53.5254C282.187 50.5039 284.511 48.0469 287.499 47.582V47.416C284.909 46.918 283.116 44.7266 283.116 42.1035C283.116 38.3516 286.702 35.6289 291.616 35.6289C296.53 35.6289 300.116 38.3516 300.149 42.1035C300.116 44.7598 298.29 46.918 295.767 47.416V47.582C298.688 48.0469 301.046 50.5039 301.046 53.5254C301.046 57.4434 297.095 60.332 291.616 60.332ZM291.616 56.5137C294.14 56.5137 295.833 55.0859 295.833 53.0273C295.833 50.9355 294.073 49.4082 291.616 49.4082C289.159 49.4082 287.366 50.9355 287.399 53.0273C287.366 55.0859 289.06 56.5137 291.616 56.5137ZM291.616 45.8887C293.741 45.8887 295.269 44.5273 295.269 42.6016C295.269 40.7422 293.774 39.4141 291.616 39.4141C289.458 39.4141 287.997 40.709 287.997 42.6016C287.997 44.5273 289.491 45.8887 291.616 45.8887ZM313.796 60.332C307.786 60.332 304.134 55.8496 304.134 47.9805C304.134 40.1113 307.786 35.6289 313.796 35.6289C319.806 35.6289 323.458 40.1445 323.458 47.9805C323.458 55.8828 319.806 60.332 313.796 60.332ZM313.796 56.2148C316.585 56.2148 318.378 53.5254 318.345 47.9805C318.345 42.502 316.585 39.7129 313.796 39.7129C311.007 39.7129 309.247 42.502 309.247 47.9805C309.214 53.5254 311.007 56.2148 313.796 56.2148ZM341.321 35.3301V49.8398H326.812V35.3301H341.321ZM330.995 38.7168V46.5195H337.138V38.7168H330.995ZM349.888 32.8398V41.5391H353.972V45.0254H349.888V54.8867H345.638V32.8398H349.888ZM350.983 59.1367V62.5234H330.298V52.7285H334.515V59.1367H350.983ZM388.735 32.873V55.6836H384.485V53.293H378.708V50.4043H384.485V32.873H388.735ZM389.399 59.1367V62.5234H366.888V53.4922H371.104V49.4746C368.398 49.5908 365.825 49.6074 363.534 49.6074L363.036 46.2539C368.581 46.2207 376.052 46.1543 382.427 45.3574L382.659 48.3789C380.269 48.7773 377.795 49.0596 375.354 49.2422V54.9863H371.104V59.1367H389.399ZM372.864 33.9023C377.247 33.8691 380.401 36.0938 380.401 39.3145C380.401 42.5352 377.247 44.627 372.864 44.627C368.382 44.627 365.261 42.5352 365.261 39.3145C365.261 36.0938 368.349 33.8691 372.864 33.9023ZM372.864 36.9902C370.706 36.9902 369.245 37.8203 369.278 39.3145C369.245 40.7754 370.706 41.5723 372.864 41.5723C374.89 41.5723 376.351 40.7754 376.384 39.3145C376.351 37.8203 374.89 36.9902 372.864 36.9902Z" fill="#0AC290"/>
<line x1="168" y1="111.5" x2="329" y2="111.5" stroke="black" stroke-dasharray="2 2"/>
<line x1="115" y1="161.5" x2="329" y2="161.5" stroke="black" stroke-dasharray="2 2"/>
<line x1="115" y1="212.5" x2="329" y2="212.5" stroke="black" stroke-dasharray="2 2"/>
<line x1="168" y1="264.5" x2="329" y2="264.5" stroke="black" stroke-dasharray="2 2"/>
<line x1="139" y1="315.5" x2="325" y2="315.5" stroke="black" stroke-dasharray="2 2"/>
<line x1="164" y1="366.5" x2="325" y2="366.5" stroke="black" stroke-dasharray="2 2"/>
<g filter="url(#filter0_d_271_289)">
<ellipse cx="363.5" cy="433" rx="67.5" ry="65" fill="white"/>
</g>
<mask id="path-27-outside-1_271_289" maskUnits="userSpaceOnUse" x="219.427" y="315.859" width="252.287" height="263.064" fill="black">
<rect fill="white" x="219.427" y="315.859" width="252.287" height="263.064"/>
<path d="M446.06 490.024C437.091 504.639 424.424 516.538 409.323 524.536C394.221 532.534 377.212 536.352 359.991 535.608C342.77 534.865 325.938 529.586 311.172 520.299C296.406 511.011 284.221 498.039 275.833 482.675C267.445 467.311 263.145 450.091 263.363 432.732C263.581 415.372 268.308 398.48 277.074 383.737C285.84 368.994 298.339 356.916 313.324 348.706C328.31 340.496 345.259 336.441 362.483 336.944L362.26 376.091C351.823 375.786 341.551 378.243 332.47 383.218C323.389 388.193 315.815 395.513 310.502 404.447C305.19 413.381 302.325 423.618 302.193 434.138C302.061 444.658 304.667 455.093 309.75 464.404C314.834 473.714 322.217 481.575 331.166 487.204C340.114 492.832 350.314 496.031 360.75 496.481C371.186 496.932 381.493 494.618 390.645 489.772C399.796 484.925 407.472 477.714 412.908 468.857L446.06 490.024Z"/>
</mask>
<path d="M446.06 490.024C437.091 504.639 424.424 516.538 409.323 524.536C394.221 532.534 377.212 536.352 359.991 535.608C342.77 534.865 325.938 529.586 311.172 520.299C296.406 511.011 284.221 498.039 275.833 482.675C267.445 467.311 263.145 450.091 263.363 432.732C263.581 415.372 268.308 398.48 277.074 383.737C285.84 368.994 298.339 356.916 313.324 348.706C328.31 340.496 345.259 336.441 362.483 336.944L362.26 376.091C351.823 375.786 341.551 378.243 332.47 383.218C323.389 388.193 315.815 395.513 310.502 404.447C305.19 413.381 302.325 423.618 302.193 434.138C302.061 444.658 304.667 455.093 309.75 464.404C314.834 473.714 322.217 481.575 331.166 487.204C340.114 492.832 350.314 496.031 360.75 496.481C371.186 496.932 381.493 494.618 390.645 489.772C399.796 484.925 407.472 477.714 412.908 468.857L446.06 490.024Z" fill="#D6FFF4"/>
<path d="M446.06 490.024C437.091 504.639 424.424 516.538 409.323 524.536C394.221 532.534 377.212 536.352 359.991 535.608C342.77 534.865 325.938 529.586 311.172 520.299C296.406 511.011 284.221 498.039 275.833 482.675C267.445 467.311 263.145 450.091 263.363 432.732C263.581 415.372 268.308 398.48 277.074 383.737C285.84 368.994 298.339 356.916 313.324 348.706C328.31 340.496 345.259 336.441 362.483 336.944L362.26 376.091C351.823 375.786 341.551 378.243 332.47 383.218C323.389 388.193 315.815 395.513 310.502 404.447C305.19 413.381 302.325 423.618 302.193 434.138C302.061 444.658 304.667 455.093 309.75 464.404C314.834 473.714 322.217 481.575 331.166 487.204C340.114 492.832 350.314 496.031 360.75 496.481C371.186 496.932 381.493 494.618 390.645 489.772C399.796 484.925 407.472 477.714 412.908 468.857L446.06 490.024Z" stroke="white" stroke-width="6" mask="url(#path-27-outside-1_271_289)"/>
<mask id="path-28-outside-2_271_289" maskUnits="userSpaceOnUse" x="328.848" y="308.217" width="170.789" height="195.528" fill="black">
<rect fill="white" x="328.848" y="308.217" width="170.789" height="195.528"/>
<path d="M362.443 336.944C379.783 337.444 396.791 342.546 411.751 351.735C426.711 360.925 439.094 373.876 447.65 389.283C456.205 404.689 460.631 422.005 460.479 439.482C460.328 456.96 455.605 473.981 446.788 488.827L413.387 468.156C418.735 459.152 421.599 448.83 421.69 438.231C421.782 427.632 419.098 417.131 413.91 407.788C408.721 398.445 401.212 390.59 392.139 385.017C383.067 379.444 372.752 376.35 362.237 376.047L362.443 336.944Z"/>
</mask>
<path d="M362.443 336.944C379.783 337.444 396.791 342.546 411.751 351.735C426.711 360.925 439.094 373.876 447.65 389.283C456.205 404.689 460.631 422.005 460.479 439.482C460.328 456.96 455.605 473.981 446.788 488.827L413.387 468.156C418.735 459.152 421.599 448.83 421.69 438.231C421.782 427.632 419.098 417.131 413.91 407.788C408.721 398.445 401.212 390.59 392.139 385.017C383.067 379.444 372.752 376.35 362.237 376.047L362.443 336.944Z" fill="#53D4B1"/>
<path d="M362.443 336.944C379.783 337.444 396.791 342.546 411.751 351.735C426.711 360.925 439.094 373.876 447.65 389.283C456.205 404.689 460.631 422.005 460.479 439.482C460.328 456.96 455.605 473.981 446.788 488.827L413.387 468.156C418.735 459.152 421.599 448.83 421.69 438.231C421.782 427.632 419.098 417.131 413.91 407.788C408.721 398.445 401.212 390.59 392.139 385.017C383.067 379.444 372.752 376.35 362.237 376.047L362.443 336.944Z" stroke="white" stroke-width="6" mask="url(#path-28-outside-2_271_289)"/>
<path d="M346.906 406.328C346.906 407.688 348.805 408.93 350.609 409.211L350.246 409.938C348.664 409.668 347.1 408.789 346.438 407.57C345.781 408.812 344.199 409.68 342.617 409.949L342.254 409.223C344.07 408.941 345.957 407.734 345.957 406.328V405.801H346.906V406.328ZM351.207 410.84V411.602H346.965V413.734H346.051V411.602H341.668V410.84H351.207ZM350.141 414.953V415.727H342.887V412.715H343.812V414.953H350.141ZM357.277 406.504C357.277 407.969 359.199 409.246 361.074 409.504L360.699 410.254C359.082 409.984 357.482 409.088 356.809 407.805C356.141 409.094 354.535 409.984 352.918 410.254L352.543 409.504C354.418 409.246 356.328 407.992 356.328 406.504V405.906H357.277V406.504ZM361.543 411.402V412.176H357.23V415.949H356.328V412.176H352.051V411.402H361.543ZM371.023 412.293V415.949H370.109V413.066H364.016V412.293H371.023ZM371.023 405.531V411.73H370.109V405.531H371.023ZM365.398 406.164C366.98 406.152 368.129 407.172 368.129 408.613C368.129 410.078 366.98 411.086 365.398 411.086C363.816 411.086 362.668 410.078 362.668 408.613C362.668 407.172 363.816 406.152 365.398 406.164ZM365.398 406.949C364.332 406.949 363.559 407.629 363.57 408.613C363.559 409.609 364.332 410.301 365.398 410.289C366.453 410.301 367.227 409.609 367.227 408.613C367.227 407.629 366.453 406.949 365.398 406.949ZM382.32 410.289V411.004H379.742V411.953H381.125V414.168H374.867V415.164H381.465V415.832H373.941V413.523H380.211V412.633H373.93V411.953H375.371V411.004H372.781V410.289H382.32ZM381.09 405.848V407.992H374.938V408.883H381.277V409.551H374.023V407.371H380.164V406.504H373.988V405.848H381.09ZM376.273 411.953H378.828V411.004H376.273V411.953Z" fill="#222222"/>
<path d="M362.141 462.531V472.973H361.215V462.531H362.141ZM356.598 463.34C358.145 463.352 359.258 464.758 359.258 466.973C359.258 469.188 358.145 470.594 356.598 470.594C355.039 470.594 353.938 469.188 353.938 466.973C353.938 464.758 355.039 463.352 356.598 463.34ZM356.598 464.16C355.555 464.172 354.828 465.273 354.828 466.973C354.828 468.672 355.555 469.773 356.598 469.773C357.641 469.773 358.367 468.672 358.367 466.973C358.367 465.273 357.641 464.172 356.598 464.16ZM367.402 464.219C367.402 465.637 368.48 466.938 369.992 467.453L369.488 468.18C368.334 467.758 367.426 466.896 366.969 465.812C366.523 467.037 365.598 468.004 364.379 468.473L363.887 467.734C365.445 467.148 366.488 465.754 366.5 464.148V463.07H367.402V464.219ZM372.066 462.531V465.25H373.637V466.023H372.066V468.871H371.152V462.531H372.066ZM368.727 469.141C370.871 469.141 372.16 469.832 372.16 471.027C372.16 472.246 370.871 472.926 368.727 472.926C366.582 472.926 365.27 472.246 365.27 471.027C365.27 469.832 366.582 469.141 368.727 469.141ZM368.727 469.879C367.156 469.879 366.184 470.312 366.195 471.027C366.184 471.766 367.156 472.188 368.727 472.199C370.309 472.188 371.27 471.766 371.27 471.027C371.27 470.312 370.309 469.879 368.727 469.879Z" fill="#222222"/>
<path d="M314.779 447.75V443.799L324.939 427.961H331.215V443.732H334.27V447.75H331.215V452H326.467V447.75H314.779ZM319.826 443.732H326.533V433.439H326.301L319.826 443.533V443.732ZM346.854 452.332C340.844 452.332 337.191 447.85 337.191 439.98C337.191 432.111 340.844 427.629 346.854 427.629C352.863 427.629 356.516 432.145 356.516 439.98C356.516 447.883 352.863 452.332 346.854 452.332ZM346.854 448.215C349.643 448.215 351.436 445.525 351.402 439.98C351.402 434.502 349.643 431.713 346.854 431.713C344.064 431.713 342.305 434.502 342.305 439.98C342.271 445.525 344.064 448.215 346.854 448.215ZM366.277 439.98C362.691 439.98 360.732 437.357 360.732 433.572C360.732 429.754 362.758 427.131 366.277 427.131C369.896 427.131 371.789 429.754 371.822 433.572C371.789 437.391 369.83 439.98 366.277 439.98ZM366.277 437.025C367.705 437.025 368.402 435.631 368.436 433.572C368.402 431.514 367.771 430.086 366.277 430.086C364.85 430.086 364.119 431.547 364.119 433.572C364.119 435.631 364.883 437.025 366.277 437.025ZM382.48 452.797C378.928 452.797 376.969 450.174 376.969 446.389C376.969 442.57 378.994 439.947 382.48 439.947C386.1 439.947 388.025 442.57 388.059 446.389C388.025 450.207 386.066 452.797 382.48 452.797ZM382.48 449.842C383.941 449.842 384.639 448.48 384.672 446.389C384.639 444.33 384.008 442.902 382.48 442.936C381.086 442.936 380.355 444.363 380.355 446.389C380.355 448.48 381.119 449.842 382.48 449.842ZM364.186 452L380.721 427.961H384.439L367.904 452H364.186Z" fill="#377B68"/>
<path d="M407 450.667L399 450.667L399 440L392.546 440L403 429.547L413.453 440L407 440L407 450.667Z" fill="#377B68"/>
<defs>
<filter id="filter0_d_271_289" x="262.7" y="336.7" width="215.6" height="210.6" filterUnits="userSpaceOnUse" color-interpolation-filters="sRGB">
<feFlood flood-opacity="0" result="BackgroundImageFix"/>
<feColorMatrix in="SourceAlpha" type="matrix" values="0 0 0 0 0 0 0 0 0 0 0 0 0 0 0 0 0 0 127 0" result="hardAlpha"/>
<feMorphology radius="30" operator="dilate" in="SourceAlpha" result="effect1_dropShadow_271_289"/>
<feOffset dx="7" dy="9"/>
<feGaussianBlur stdDeviation="5.15"/>
<feComposite in2="hardAlpha" operator="out"/>
<feColorMatrix type="matrix" values="0 0 0 0 0 0 0 0 0 0 0 0 0 0 0 0 0 0 0.25 0"/>
<feBlend mode="normal" in2="BackgroundImageFix" result="effect1_dropShadow_271_289"/>
<feBlend mode="normal" in="SourceGraphic" in2="effect1_dropShadow_271_289" result="shape"/>
</filter>
</defs>
</svg>
